v -0.75 0.0 0.35
v -1.5 0.0 0.35
v -0.75 0.0 4.55
newmtl 1
Ka 1.0 1.0 1.0
Kd 1.0 1.0 1.0
Ks 0.30196078431372547 0.30196078431372547 0.30196078431372547
d 0.0
endmtl
v -1.5 0.0 4.05
v -1.5 0.0 4.55
v -2.0 0.0 4.05
v -1.5 0.0 5.05
v -2.0 0.0 5.05
v 3.5 0.0 0.35
v 2.75 0.0 0.35
v 3.5 0.0 4.05
v 2.75 0.0 4.55
v 4.0 0.0 4.05
v 3.5 0.0 4.55
v 4.0 0.0 5.05
v 3.5 0.0 5.05
v 0.842683 -1.25 2.462484
v 1.062195 -1.25 2.462484
v 1.062195 -1.25 5.05
v 0.262941 -1.25 3.051704
v 0.25 -1.25 3.05
v 0.355488 -1.25 2.462484
v 0.842683 -1.25 1.873138
v 0.813415 -1.25 1.619785
v 0.842683 -1.25 1.56948
v 0.813415 -1.25 1.586858
v 0.781436 -1.25 1.573728
v 0.769326 -1.25 1.873138
v 0.77873 -1.25 1.87249
v 0.813415 -1.25 1.863078
v 0.813415 -1.25 1.822834
v 0.779623 -1.25 1.837304
v 0.808038 -1.25 1.616807
v 0.743159 -1.25 1.842041
v 0.713619 -1.25 1.838724
v 0.691164 -1.25 1.83062
v 0.6704 -1.25 1.816729
v 0.652283 -1.25 1.796729
v 0.630488 -1.25 1.718108
v 0.633525 -1.25 1.685631
v 0.641676 -1.25 1.659827
v 0.708432 -1.25 1.603716
v 0.736414 -1.25 1.600577
v 0.686573 -1.25 1.611764
v 0.668161 -1.25 1.624173
v 0.654083 -1.25 1.639025
v 0.776236 -1.25 1.604998
v 0.639915 -1.25 1.773566
v 0.631919 -1.25 1.74145
v 0.742816 -1.25 1.874968
v 0.720409 -1.25 1.873138
v 0.577439 -1.25 2.462484
v 0.713227 -1.25 1.56948
v 0.693898 -1.25 1.571484
v 0.577439 -1.25 1.56948
v 0.664821 -1.25 1.581493
v 0.640689 -1.25 1.596902
v 0.590244 -1.25 1.71565
v 0.594559 -1.25 1.758301
v 0.577439 -1.25 1.873138
v 0.606077 -1.25 1.792293
v 0.62366 -1.25 1.820341
v 0.650745 -1.25 1.84639
v 0.67924 -1.25 1.862792
v 0.712684 -1.25 1.872508
v 0.618156 -1.25 1.620626
v 0.602174 -1.25 1.649151
v 0.593145 -1.25 1.680906
v 0.730869 -1.25 1.567651
v 0.577439 -1.25 0.85
v 0.739072 -1.25 1.567791
v 0.842683 -1.25 0.85
v 0.751122 -1.25 1.56948
v -0.9 -1.25 2.462484
v -0.9 -1.25 4.55
v -1.5 -1.25 2.462484
v -1.5 -1.25 4.55
v 0.262941 -1.25 3.648296
v 0.275 -1.25 3.643301
v 0.355488 -1.25 4.55
v -0.25 -1.25 3.05
v -0.262941 -1.25 3.051704
v -0.275 -1.25 3.056699
v -0.285355 -1.25 3.064645
v -0.293301 -1.25 3.075
v 0.293301 -1.25 3.075
v 0.285355 -1.25 3.064645
v 0.275 -1.25 3.056699
v -0.275 -1.25 3.643301
v -0.75 -1.25 4.55
v -0.285355 -1.25 3.635355
v -0.293301 -1.25 3.625
v -0.298296 -1.25 3.612941
v -0.298296 -1.25 3.087059
v -0.3 -1.25 3.1
v -0.3 -1.25 3.6
v -0.262941 -1.25 3.648296
v -0.25 -1.25 3.65
v 0.25 -1.25 3.65
v 0.285355 -1.25 3.635355
v 0.293301 -1.25 3.625
v 0.298296 -1.25 3.612941
v 0.3 -1.25 3.6
v 0.3 -1.25 3.1
v 0.298296 -1.25 3.087059
v 0.842683 -1.25 5.05
v 0.7 -1.25 5.05
v 0.7 -1.25 4.55
v 1.662805 -1.25 2.462484
v 1.662805 -1.25 4.55
v 1.343902 -1.25 2.462484
v 1.343902 -1.25 4.55
v 1.3 -1.25 4.55
v 1.3 -1.25 5.05
v 2.262941 -1.25 3.648296
v 2.275 -1.25 3.643301
v 2.75 -1.25 4.55
v 2.293301 -1.25 3.075
v 2.285355 -1.25 3.064645
v 3.5 -1.25 2.462484
v 1.714645 -1.25 3.064645
v 1.706699 -1.25 3.075
v 3.5 -1.25 4.55
v 2.285355 -1.25 3.635355
v 2.293301 -1.25 3.625
v 1.75 -1.25 3.05
v 1.737059 -1.25 3.051704
v 1.725 -1.25 3.056699
v 1.701704 -1.25 3.087059
v 1.7 -1.25 3.1
v 1.7 -1.25 3.6
v 1.701704 -1.25 3.612941
v 1.706699 -1.25 3.625
v 1.714645 -1.25 3.635355
v 1.725 -1.25 3.643301
v 2.298296 -1.25 3.087059
v 2.275 -1.25 3.056699
v 2.262941 -1.25 3.051704
v 2.25 -1.25 3.05
v 1.737059 -1.25 3.648296
v 1.75 -1.25 3.65
v 2.25 -1.25 3.65
v 2.298296 -1.25 3.612941
v 2.3 -1.25 3.6
v 2.3 -1.25 3.1
v 1.39878 -1.25 1.571309
v 1.354878 -1.25 1.571309
v 1.343902 -1.25 1.56948
v 1.343902 -1.25 1.873138
v 1.508537 -1.25 1.871309
v 1.62561 -1.25 1.571309
v 1.662805 -1.25 1.56948
v 1.581707 -1.25 1.571309
v 1.551353 -1.25 1.655456
v 1.42742 -1.25 1.655456
v 1.468293 -1.25 1.871309
v 1.662805 -1.25 1.873138
v 3.5 -1.25 1.873138
v 3.5 -1.25 1.56948
v 1.176124 -1.25 1.871309
v 1.062195 -1.25 1.873138
v 1.219466 -1.25 1.866676
v 1.254566 -1.25 1.854351
v 1.287219 -1.25 1.832468
v 1.317946 -1.25 1.653533
v 1.300742 -1.25 1.626699
v 1.276049 -1.25 1.603056
v 1.244725 -1.25 1.584853
v 1.287533 -1.25 1.832193
v 1.308747 -1.25 1.808669
v 1.322689 -1.25 1.782868
v 1.210157 -1.25 1.574549
v 1.173037 -1.25 1.571309
v 1.062195 -1.25 1.56948
v 1.091463 -1.25 1.571309
v 1.091463 -1.25 1.871309
v 1.330747 -1.25 1.753311
v 1.332927 -1.25 1.725082
v 1.328717 -1.25 1.684933
v 3.5 -1.25 0.85
v 1.662805 -1.25 0.85
v 1.343902 -1.25 0.85
v 1.062195 -1.25 0.85
v 1.02561 -1.25 1.871309
v 1.02561 -1.25 1.838382
v 1.032927 -1.25 1.604236
v 1.032927 -1.25 1.571309
v 0.871951 -1.25 1.571309
v 0.871951 -1.25 1.871309
v 0.912195 -1.25 1.706675
v 0.912195 -1.25 1.604236
v 1.018293 -1.25 1.706675
v 1.018293 -1.25 1.739602
v 0.912195 -1.25 1.739602
v 0.912195 -1.25 1.838382
v 0.577439 -1.25 4.55
v 0.410976 -1.25 1.571309
v 0.410976 -1.25 1.871309
v 0.355488 -1.25 1.873138
v 0.451219 -1.25 1.871309
v 0.564634 -1.25 1.604236
v 0.451219 -1.25 1.604236
v 0.355488 -1.25 0.85
v 0.355488 -1.25 1.56948
v -0.9 -1.25 0.85
v -0.9 -1.25 1.56948
v -1.5 -1.25 0.85
v -1.5 -1.25 1.56948
v 0.564634 -1.25 1.571309
v -0.9 -1.25 1.873138
v -1.5 -1.25 1.873138
v 1.25 -0.31 0.35
v 1.736145 -0.31 2.918462
v 1.738891 -0.31 2.916536
v 1.75 -0.31 2.91245
v 2.25 -0.31 2.91245
v 2.75 -0.31 0.35
v 2.254005 -0.31 2.912963
v 2.256246 -0.31 2.913693
v 1.741264 -0.31 2.914871
v 1.744818 -0.31 2.913307
v 1.748647 -0.31 2.912508
v 2.293054 -0.31 3.601218
v 2.291655 -0.31 3.604089
v 2.75 -0.31 4.55
v 2.288417 -0.31 3.608569
v 2.28513 -0.31 3.611779
v 1.25 -0.31 5.05
v 1.738554 -0.31 3.625743
v 1.737074 -0.31 3.625304
v 1.73381 -0.31 3.624336
v 1.723305 -0.31 3.619158
v 1.719448 -0.31 3.616379
v 2.263413 -0.31 2.918092
v 2.272969 -0.31 2.928527
v 2.3 -0.31 3.575534
v 2.29852 -0.31 3.588012
v 2.279881 -0.31 3.616903
v 2.275275 -0.31 3.620047
v 2.75 -0.31 5.05
v 2.264678 -0.31 3.624842
v 2.262925 -0.31 3.625292
v 2.259498 -0.31 3.626173
v 2.25 -0.31 3.62711
v 1.75 -0.31 3.62711
v 2.298261 -0.31 3.588892
v 2.297041 -0.31 3.593039
v 1.718995 -0.31 2.941655
v 1.719816 -0.31 2.939767
v 1.729241 -0.31 2.925668
v 2.261119 -0.31 2.916449
v 2.261789 -0.31 2.916827
v 2.276731 -0.31 2.934013
v 2.280519 -0.31 2.942048
v 2.283304 -0.31 2.947954
v 1.71489 -0.31 3.611767
v 1.710992 -0.31 3.607824
v 1.708315 -0.31 3.604041
v 1.706946 -0.31 3.601219
v 1.702915 -0.31 3.592912
v 1.701725 -0.31 3.588897
v 1.702348 -0.31 2.994329
v 1.704335 -0.31 2.978967
v 1.707391 -0.31 2.968335
v 1.701565 -0.31 3.588359
v 1.7 -0.31 3.575534
v 1.7 -0.31 3.012481
v 1.711538 -0.31 2.958801
v 1.716313 -0.31 2.947822
v 2.288459 -0.31 2.958888
v 2.291882 -0.31 2.966148
v 2.294574 -0.31 2.974847
v 2.297776 -0.31 2.994428
v 2.299891 -0.31 3.00737
v 2.3 -0.31 3.012481
v -0.75 -0.31 0.35
v -0.263855 -0.31 2.918462
v -0.261109 -0.31 2.916536
v -0.25 -0.31 2.91245
v 0.25 -0.31 2.91245
v 0.75 -0.31 0.35
v 0.254005 -0.31 2.912963
v 0.256246 -0.31 2.913693
v -0.258736 -0.31 2.914871
v -0.255182 -0.31 2.913307
v -0.251353 -0.31 2.912508
v 0.293054 -0.31 3.601218
v 0.291655 -0.31 3.604089
v 0.75 -0.31 5.05
v 0.288417 -0.31 3.608569
v 0.28513 -0.31 3.611779
v 0.279882 -0.31 3.616903
v 0.275275 -0.31 3.620047
v 0.264678 -0.31 3.624842
v 0.262925 -0.31 3.625292
v -0.261446 -0.31 3.625743
v -0.262926 -0.31 3.625304
v -0.75 -0.31 5.05
v -0.26619 -0.31 3.624336
v -0.75 -0.31 4.55
v 0.263414 -0.31 2.918092
v 0.272969 -0.31 2.928527
v 0.3 -0.31 3.575534
v 0.29852 -0.31 3.588012
v 0.259498 -0.31 3.626173
v 0.25 -0.31 3.62711
v -0.25 -0.31 3.62711
v 0.29826 -0.31 3.588892
v 0.297041 -0.31 3.593039
v -0.281005 -0.31 2.941655
v -0.280184 -0.31 2.939767
v -0.270759 -0.31 2.925668
v 0.261119 -0.31 2.916449
v 0.261789 -0.31 2.916827
v 0.276731 -0.31 2.934013
v 0.28052 -0.31 2.942048
v 0.283304 -0.31 2.947954
v -0.276695 -0.31 3.619158
v -0.280552 -0.31 3.616379
v -0.28511 -0.31 3.611767
v -0.289008 -0.31 3.607824
v -0.291685 -0.31 3.604041
v -0.293054 -0.31 3.601219
v -0.297085 -0.31 3.592912
v -0.298275 -0.31 3.588897
v -0.298435 -0.31 3.588359
v -0.295665 -0.31 2.978967
v -0.292609 -0.31 2.968335
v -0.3 -0.31 3.575534
v -0.3 -0.31 3.012481
v -0.297652 -0.31 2.994329
v -0.288462 -0.31 2.958801
v -0.283687 -0.31 2.947822
v 0.288459 -0.31 2.958888
v 0.291882 -0.31 2.966148
v 0.294574 -0.31 2.974847
v 0.297776 -0.31 2.994428
v 0.299892 -0.31 3.00737
v 0.3 -0.31 3.012481
v 1.25 0.0 0.35
v 0.75 0.0 0.35
v 1.25 0.0 5.05
v 0.75 0.0 5.05
v 3.75173 -6.25 3.85
v 4.0 -6.25 3.85
v 3.75173 -6.25 4.80173
v 4.0 -6.25 5.05
v 1.3 -6.25 4.80173
v 1.3 -6.25 5.05
v 0.7 -6.25 4.80173
v 0.7 -6.25 5.05
v -1.75173 -6.25 4.80173
v -2.0 -6.25 5.05
v -1.75173 -6.25 3.85
v -2.0 -6.25 3.85
v -1.5 -5.95 4.55
v -1.5 -5.95 3.85
v 3.5 -5.95 4.55
v 3.5 -5.95 3.85
v -2.0 -6.25 0.05
v -2.0 1.45 0.05
v -1.5 -6.25 0.05
v -1.5 1.45 0.05
v 4.0 -4.05 3.85
v 4.0 -6.25 2.85
v 4.0 -6.25 0.05
v 4.0 -4.05 2.85
v 4.0 1.45 0.05
v 4.0 1.45 3.212842
v -2.0 -6.25 2.85
v -2.0 -4.05 2.85
v -2.0 1.45 3.212842
v -2.0 -4.05 3.85
v -1.75173 -6.25 0.59827
v -1.75173 -6.25 2.85
v -1.5 -6.25 0.35
v 3.75173 -6.25 0.59827
v 3.5 -6.25 0.35
v 3.5 -6.25 0.05
v 3.75173 -6.25 2.85
v 3.5 -4.45 5.05
v -1.5 -4.45 5.05
v -0.75 -4.45 5.05
v 2.75 -4.45 5.05
v 3.5 1.45 0.05
v 2.75 -4.45 4.55
v 1.3 -5.95 4.55
v 3.5 -4.45 4.55
v 3.5 -4.05 3.85
v 3.5 -4.05 2.85
v 3.5 -5.95 0.85
v 3.5 -5.95 2.85
v -1.5 -5.95 0.85
v -1.5 -4.45 4.55
v -1.5 -4.05 3.85
v -1.5 -5.95 2.85
v -1.5 -4.05 2.85
v 0.7 -5.95 4.55
v -0.75 -4.45 4.55
v -1.5 1.45 3.212842
v 3.5 1.45 3.212842
v 1.508537 -1.24 1.871309
v 1.62561 -1.24 1.571309
newmtl 2
Ka 0.4392156862745098 0.4392156862745098 0.4392156862745098
Kd 0.4392156862745098 0.4392156862745098 0.4392156862745098
Ks 0.2196078431372549 0.2196078431372549 0.2196078431372549
d 0.0
endmtl
v 1.581707 -1.24 1.571309
v 1.551353 -1.24 1.655456
v 1.42742 -1.24 1.655456
v 1.39878 -1.24 1.571309
v 1.354878 -1.24 1.571309
v 1.468293 -1.24 1.871309
v 1.437538 -1.24 1.688383
v 1.482298 -1.24 1.813687
v 1.485185 -1.24 1.824092
v 1.4871 -1.24 1.834724
v 1.488072 -1.24 1.834724
v 1.490029 -1.24 1.824124
v 1.537862 -1.24 1.688383
v 1.492702 -1.24 1.813687
v 1.437538 -1.25 1.688383
v 1.537862 -1.25 1.688383
v 1.482298 -1.25 1.813687
v 1.485185 -1.25 1.824092
v 1.4871 -1.25 1.834724
v 1.488072 -1.25 1.834724
v 1.490029 -1.25 1.824124
v 1.492702 -1.25 1.813687
v 1.173037 -1.24 1.571309
v 1.091463 -1.24 1.571309
v 1.091463 -1.24 1.871309
v 1.176124 -1.24 1.871309
v 1.332927 -1.24 1.725082
v 1.330747 -1.24 1.753311
v 1.322689 -1.24 1.782868
v 1.308747 -1.24 1.808669
v 1.287533 -1.24 1.832193
v 1.287219 -1.24 1.832468
v 1.254566 -1.24 1.854351
v 1.219466 -1.24 1.866676
v 1.210157 -1.24 1.574549
v 1.244725 -1.24 1.584853
v 1.276049 -1.24 1.603056
v 1.300742 -1.24 1.626699
v 1.317946 -1.24 1.653533
v 1.328717 -1.24 1.684933
v 1.272709 -1.24 1.796313
v 1.258137 -1.24 1.811785
v 1.236224 -1.24 1.825942
v 1.211461 -1.24 1.834608
v 1.175953 -1.24 1.838382
v 1.131707 -1.24 1.838382
v 1.131707 -1.24 1.604236
v 1.174295 -1.24 1.604236
v 1.205945 -1.24 1.607182
v 1.231191 -1.24 1.615062
v 1.25165 -1.24 1.627211
v 1.268476 -1.24 1.643831
v 1.28113 -1.24 1.664515
v 1.289929 -1.24 1.692715
v 1.292683 -1.24 1.724225
v 1.290134 -1.24 1.754082
v 1.283131 -1.24 1.77781
v 1.175953 -1.25 1.838382
v 1.131707 -1.25 1.838382
v 1.211461 -1.25 1.834608
v 1.236224 -1.25 1.825942
v 1.258137 -1.25 1.811785
v 1.272709 -1.25 1.796313
v 1.283131 -1.25 1.77781
v 1.290134 -1.25 1.754082
v 1.292683 -1.25 1.724225
v 1.289929 -1.25 1.692715
v 1.28113 -1.25 1.664515
v 1.268476 -1.25 1.643831
v 1.25165 -1.25 1.627211
v 1.231191 -1.25 1.615062
v 1.205945 -1.25 1.607182
v 1.174295 -1.25 1.604236
v 1.131707 -1.25 1.604236
v 1.032927 -1.24 1.604236
v 1.032927 -1.24 1.571309
v 0.871951 -1.24 1.571309
v 0.871951 -1.24 1.871309
v 1.02561 -1.24 1.871309
v 1.02561 -1.24 1.838382
v 0.912195 -1.24 1.838382
v 0.912195 -1.24 1.739602
v 1.018293 -1.24 1.739602
v 1.018293 -1.24 1.706675
v 0.912195 -1.24 1.706675
v 0.912195 -1.24 1.604236
v 0.813415 -1.24 1.619785
v 0.813415 -1.24 1.586858
v 0.781436 -1.24 1.573728
v 0.730869 -1.24 1.567651
v 0.739072 -1.24 1.567791
v 0.590244 -1.24 1.71565
v 0.593145 -1.24 1.680906
v 0.602174 -1.24 1.649151
v 0.618156 -1.24 1.620626
v 0.640689 -1.24 1.596902
v 0.664821 -1.24 1.581493
v 0.693898 -1.24 1.571484
v 0.742816 -1.24 1.874968
v 0.712684 -1.24 1.872508
v 0.67924 -1.24 1.862792
v 0.650745 -1.24 1.84639
v 0.62366 -1.24 1.820341
v 0.606077 -1.24 1.792293
v 0.594559 -1.24 1.758301
v 0.77873 -1.24 1.87249
v 0.813415 -1.24 1.863078
v 0.813415 -1.24 1.822834
v 0.743159 -1.24 1.842041
v 0.779623 -1.24 1.837304
v 0.630488 -1.24 1.718108
v 0.631919 -1.24 1.74145
v 0.639915 -1.24 1.773566
v 0.652283 -1.24 1.796729
v 0.6704 -1.24 1.816729
v 0.691164 -1.24 1.83062
v 0.713619 -1.24 1.838724
v 0.736414 -1.24 1.600577
v 0.708432 -1.24 1.603716
v 0.686573 -1.24 1.611764
v 0.668161 -1.24 1.624173
v 0.654083 -1.24 1.639025
v 0.641676 -1.24 1.659827
v 0.633525 -1.24 1.685631
v 0.808038 -1.24 1.616807
v 0.776236 -1.24 1.604998
v 0.564634 -1.24 1.604236
v 0.564634 -1.24 1.571309
v 0.410976 -1.24 1.571309
v 0.410976 -1.24 1.871309
v 0.451219 -1.24 1.871309
v 0.451219 -1.24 1.604236
v 0.25 -0.3 2.85
v -0.25 -0.3 2.85
v 0.25 -0.3 -3.1
newmtl 3
Ka 0.7686274509803922 0.7686274509803922 0.7686274509803922
Kd 0.7686274509803922 0.7686274509803922 0.7686274509803922
Ks 0.615686274509804 0.615686274509804 0.615686274509804
d 0.0
endmtl
v -0.25 -0.3 -3.1
v -0.3 -0.25 2.85
v -0.3 0.25 2.85
v -0.3 -0.25 -3.1
v -0.3 0.25 -3.1
v 0.25 0.3 -3.1
v -0.25 0.3 -3.1
v 0.25 0.3 2.85
v -0.25 0.3 2.85
v 0.3 -0.25 -3.1
v 0.3 0.25 -3.1
v 0.3 -0.25 2.85
v 0.3 0.25 2.85
v -0.19282 0.144524 -3.5
v -0.144524 0.19282 -3.5
v 0.19282 0.144524 -3.5
v 0.144524 0.19282 -3.5
v -0.19282 -0.144524 -3.5
v 0.144524 -0.19282 -3.5
v -0.144524 -0.19282 -3.5
v -0.191203 0.157225 -3.5
v -0.163244 0.189205 -3.5
v -0.157225 0.191203 -3.5
v 0.163244 -0.189205 -3.5
v 0.157225 -0.191203 -3.5
v 0.19282 -0.144524 -3.5
v 0.186452 0.168915 -3.5
v 0.189205 0.163244 -3.5
v 0.168915 0.186452 -3.5
v 0.163244 0.189205 -3.5
v 0.157225 0.191203 -3.5
v 0.191203 0.157225 -3.5
v -0.186452 -0.168915 -3.5
v -0.189205 -0.163244 -3.5
v -0.168915 -0.186452 -3.5
v -0.163244 -0.189205 -3.5
v -0.157225 -0.191203 -3.5
v -0.191203 -0.157225 -3.5
v -0.189205 0.163244 -3.5
v -0.186452 0.168915 -3.5
v -0.168915 0.186452 -3.5
v -0.182988 0.17415 -3.5
v -0.17415 0.182988 -3.5
v -0.178865 0.178865 -3.5
v 0.182988 0.17415 -3.5
v 0.17415 0.182988 -3.5
v 0.178865 0.178865 -3.5
v 0.191203 -0.157225 -3.5
v 0.189205 -0.163244 -3.5
v 0.168915 -0.186452 -3.5
v 0.186452 -0.168915 -3.5
v 0.17415 -0.182988 -3.5
v 0.182988 -0.17415 -3.5
v 0.178865 -0.178865 -3.5
v -0.182988 -0.17415 -3.5
v -0.17415 -0.182988 -3.5
v -0.178865 -0.178865 -3.5
v 0.25 -0.305602 2.897005
v -0.25 -0.305602 2.897005
v 0.25 -0.303751 2.881475
v -0.25 -0.303751 2.881475
v -0.3 -0.192065 3.533869
v -0.3 -0.067665 3.462851
v -0.3 0.236321 2.99259
v -0.3 -0.257003 2.908756
v -0.3 0.195782 3.129979
v -0.3 -0.277618 2.96422
v -0.3 0.129862 3.257154
v -0.3 0.040965 3.369477
v 0.25 0.285409 3.002096
v -0.25 0.285409 3.002096
v 0.25 0.278515 3.02546
v -0.25 0.278515 3.02546
v 0.25 0.242167 3.148644
v -0.25 0.242167 3.148644
v 0.25 0.219724 3.191941
v -0.25 0.219724 3.191941
v 0.25 0.171852 3.284298
v -0.25 0.171852 3.284298
v 0.25 0.126423 3.341699
v -0.25 0.126423 3.341699
v 0.25 0.07703 3.404109
v -0.25 0.07703 3.404109
v 0.25 0.002984 3.467755
v -0.25 0.002984 3.467755
v 0.25 -0.038842 3.503707
v -0.25 -0.038842 3.503707
v 0.25 -0.144843 3.564221
v -0.25 -0.144843 3.564221
v 0.25 -0.171536 3.57946
v -0.25 -0.171536 3.57946
v 0.3 -0.192065 3.533869
v 0.3 -0.257003 2.908756
v 0.3 0.236321 2.99259
v 0.3 -0.277618 2.96422
v 0.3 -0.067665 3.462851
v 0.3 0.195782 3.129979
v 0.3 0.129862 3.257154
v 0.3 0.040965 3.369477
v -0.19282 -5.2 3.494524
v -0.19282 -5.2 3.205476
v -0.144524 -5.2 3.54282
v -0.144524 -5.2 3.15718
v 0.144524 -5.2 3.15718
v 0.19282 -5.2 3.205476
v -0.168915 -5.2 3.163548
v -0.163244 -5.2 3.160795
v -0.189205 -5.2 3.186756
v -0.157225 -5.2 3.158797
v 0.19282 -5.2 3.494524
v 0.144524 -5.2 3.54282
v 0.157225 -5.2 3.158797
v 0.189205 -5.2 3.186756
v 0.191203 -5.2 3.192775
v 0.163244 -5.2 3.160795
v 0.168915 -5.2 3.163548
v 0.186452 -5.2 3.181085
v -0.191203 -5.2 3.192775
v -0.157225 -5.2 3.541203
v -0.189205 -5.2 3.513244
v -0.191203 -5.2 3.507225
v -0.163244 -5.2 3.539205
v -0.168915 -5.2 3.536452
v -0.186452 -5.2 3.518915
v 0.191203 -5.2 3.507225
v 0.163244 -5.2 3.539205
v 0.157225 -5.2 3.541203
v 0.182988 -5.2 3.17585
v 0.17415 -5.2 3.167012
v 0.178865 -5.2 3.171135
v -0.186452 -5.2 3.181085
v -0.182988 -5.2 3.17585
v -0.17415 -5.2 3.167012
v -0.178865 -5.2 3.171135
v -0.182988 -5.2 3.52415
v -0.17415 -5.2 3.532988
v -0.178865 -5.2 3.528865
v 0.189205 -5.2 3.513244
v 0.186452 -5.2 3.518915
v 0.168915 -5.2 3.536452
v 0.182988 -5.2 3.52415
v 0.17415 -5.2 3.532988
v 0.178865 -5.2 3.528865
v 0.3 -4.8 3.1
v 0.3 -4.8 3.6
v 0.25 -4.8 3.65
v -0.25 -4.8 3.65
v -0.3 -4.8 3.6
v -0.3 -4.8 3.1
v 0.25 -4.8 3.05
v -0.25 -4.8 3.05
v -0.251676 -0.299972 -3.100105
v 0.251676 -0.299972 -3.100105
v 0.299972 -0.251676 -3.100105
v 0.299972 0.251676 -3.100105
v -0.299972 0.251676 -3.100105
v -0.299972 -0.251676 -3.100105
v 0.251676 0.299972 -3.100105
v -0.251676 0.299972 -3.100105
v -0.251676 -4.800105 3.649972
v 0.251676 -4.800105 3.649972
v -0.299972 -4.800105 3.098324
v -0.299972 -4.800105 3.601676
v 0.299972 -4.800105 3.601676
v 0.299972 -4.800105 3.098324
v 0.251676 -4.800105 3.050028
v -0.251676 -4.800105 3.050028
v 0.262921 -4.801328 3.051829
v 0.264017 -4.801447 3.052005
v 0.274973 -4.80225 3.05676
v 0.275482 -4.802287 3.056981
v 0.285355 -4.802573 3.064645
v 0.293019 -4.802287 3.074518
v 0.29324 -4.80225 3.075027
v 0.297995 -4.801447 3.085983
v 0.298171 -4.801328 3.087079
v -0.298171 -4.801328 3.087079
v -0.297995 -4.801447 3.085983
v -0.29324 -4.80225 3.075027
v -0.293019 -4.802287 3.074518
v -0.285355 -4.802573 3.064645
v -0.275482 -4.802287 3.056981
v -0.274973 -4.80225 3.05676
v -0.264017 -4.801447 3.052005
v -0.262921 -4.801328 3.051829
v 0.298171 -4.801328 3.612921
v 0.297995 -4.801447 3.614017
v 0.29324 -4.80225 3.624973
v 0.293019 -4.802287 3.625482
v 0.285355 -4.802573 3.635355
v 0.275482 -4.802287 3.643019
v 0.274973 -4.80225 3.64324
v 0.264017 -4.801447 3.647995
v 0.262921 -4.801328 3.648171
v -0.262921 -4.801328 3.648171
v -0.264017 -4.801447 3.647995
v -0.274973 -4.80225 3.64324
v -0.275482 -4.802287 3.643019
v -0.285355 -4.802573 3.635355
v -0.293019 -4.802287 3.625482
v -0.29324 -4.80225 3.624973
v -0.297995 -4.801447 3.614017
v -0.298171 -4.801328 3.612921
v 0.262941 0.298296 2.85
v 0.298296 -0.186752 3.545668
v 0.293301 -0.181801 3.556664
v 0.285355 -0.177549 3.566106
v 0.275 -0.174287 3.573352
v 0.262941 -0.172236 3.577906
v 0.262941 0.283736 3.001772
v 0.262941 0.240586 3.148008
v 0.262941 0.170422 3.283373
v 0.262941 0.075801 3.402929
v 0.262941 -0.039824 3.502315
v 0.275 -0.042704 3.498234
v 0.275 0.072198 3.399469
v 0.275 0.166227 3.280661
v 0.275 0.235953 3.146143
v 0.275 0.278832 3.000822
v 0.275 0.293301 2.85
v 0.285355 -0.047284 3.491741
v 0.285355 0.066467 3.393965
v 0.285355 0.159553 3.276347
v 0.285355 0.228581 3.143177
v 0.285355 0.271031 2.999312
v 0.285355 0.285355 2.85
v 0.293301 -0.053253 3.483279
v 0.293301 0.058997 3.386793
v 0.293301 0.150857 3.270726
v 0.293301 0.218974 3.139311
v 0.293301 0.260865 2.997343
v 0.293301 0.275 2.85
v 0.298296 -0.060205 3.473425
v 0.298296 0.050299 3.378441
v 0.298296 0.14073 3.264179
v 0.298296 0.207787 3.134809
v 0.298296 0.249026 2.99505
v 0.298296 0.262941 2.85
v 0.262921 0.298171 -3.101328
v 0.264017 0.297995 -3.101447
v 0.274973 0.29324 -3.10225
v 0.275482 0.293019 -3.102287
v 0.285355 0.285355 -3.102573
v 0.293019 0.275482 -3.102287
v 0.29324 0.274973 -3.10225
v 0.297995 0.264017 -3.101447
v 0.298171 0.262921 -3.101328
v -0.298746 -0.267817 2.906141
v -0.298746 -0.287515 2.959137
v -0.295048 -0.296916 2.954309
v -0.289092 -0.305349 2.949977
v -0.281174 -0.294999 2.899569
v -0.261126 -0.304384 2.897299
v -0.271694 -0.300789 2.898169
v -0.298746 -0.261126 2.85
v -0.298132 -0.262883 2.85
v -0.295048 -0.278089 2.903657
v -0.295048 -0.271694 2.85
v -0.293065 -0.274851 2.85
v -0.289092 -0.287304 2.901429
v -0.289092 -0.281174 2.85
v -0.285133 -0.285133 2.85
v -0.281174 -0.289092 2.85
v -0.274851 -0.293065 2.85
v -0.271694 -0.295048 2.85
v -0.262883 -0.298132 2.85
v -0.261126 -0.298746 2.85
v -0.262921 -0.298171 -3.101328
v -0.264017 -0.297995 -3.101447
v -0.274973 -0.29324 -3.10225
v -0.275482 -0.293019 -3.102287
v -0.285355 -0.285355 -3.102573
v -0.293019 -0.275482 -3.102287
v -0.29324 -0.274973 -3.10225
v -0.297995 -0.264017 -3.101447
v -0.298171 -0.262921 -3.101328
v 0.274851 -0.293065 2.85
v 0.281174 -0.289092 2.85
v 0.281174 -0.294999 2.899569
v 0.271694 -0.300789 2.898169
v 0.261126 -0.304384 2.897299
v 0.289092 -0.305349 2.949977
v 0.295048 -0.296916 2.954309
v 0.298746 -0.287515 2.959137
v 0.298746 -0.261126 2.85
v 0.298746 -0.267817 2.906141
v 0.298132 -0.262883 2.85
v 0.295048 -0.278089 2.903657
v 0.285133 -0.285133 2.85
v 0.289092 -0.281174 2.85
v 0.289092 -0.287304 2.901429
v 0.293065 -0.274851 2.85
v 0.295048 -0.271694 2.85
v 0.271694 -0.295048 2.85
v 0.262883 -0.298132 2.85
v 0.261126 -0.298746 2.85
v 0.298171 -0.262921 -3.101328
v 0.297995 -0.264017 -3.101447
v 0.29324 -0.274973 -3.10225
v 0.293019 -0.275482 -3.102287
v 0.285355 -0.285355 -3.102573
v 0.275482 -0.293019 -3.102287
v 0.274973 -0.29324 -3.10225
v 0.264017 -0.297995 -3.101447
v 0.262921 -0.298171 -3.101328
v -0.262941 -0.172236 3.577906
v -0.275 -0.174287 3.573352
v -0.285355 -0.177549 3.566106
v -0.293301 -0.181801 3.556664
v -0.298296 -0.186752 3.545668
v -0.262941 -0.039824 3.502315
v -0.262941 0.170422 3.283373
v -0.262941 0.075801 3.402929
v -0.262941 0.240586 3.148008
v -0.262941 0.283736 3.001772
v -0.262941 0.298296 2.85
v -0.275 -0.042704 3.498234
v -0.275 0.072198 3.399469
v -0.275 0.166227 3.280661
v -0.275 0.235953 3.146143
v -0.275 0.278832 3.000822
v -0.275 0.293301 2.85
v -0.285355 -0.047284 3.491741
v -0.285355 0.066467 3.393965
v -0.285355 0.159553 3.276347
v -0.285355 0.228581 3.143177
v -0.285355 0.271031 2.999312
v -0.285355 0.285355 2.85
v -0.293301 -0.053253 3.483279
v -0.293301 0.058997 3.386793
v -0.293301 0.150857 3.270726
v -0.293301 0.218974 3.139311
v -0.293301 0.260865 2.997343
v -0.293301 0.275 2.85
v -0.298296 -0.060205 3.473425
v -0.298296 0.050299 3.378441
v -0.298296 0.14073 3.264179
v -0.298296 0.207787 3.134809
v -0.298296 0.249026 2.99505
v -0.298296 0.262941 2.85
v -0.298171 0.262921 -3.101328
v -0.297995 0.264017 -3.101447
v -0.29324 0.274973 -3.10225
v -0.293019 0.275482 -3.102287
v -0.285355 0.285355 -3.102573
v -0.275482 0.293019 -3.102287
v -0.274973 0.29324 -3.10225
v -0.264017 0.297995 -3.101447
v -0.262921 0.298171 -3.101328
v 2.25 -0.3 2.85
v 1.75 -0.3 2.85
v 2.25 -0.3 -3.1
v 1.75 -0.3 -3.1
v 1.7 -0.25 2.85
v 1.7 0.25 2.85
v 1.7 -0.25 -3.1
v 1.7 0.25 -3.1
v 2.25 0.3 -3.1
v 1.75 0.3 -3.1
v 2.25 0.3 2.85
v 1.75 0.3 2.85
v 2.3 -0.25 -3.1
v 2.3 0.25 -3.1
v 2.3 -0.25 2.85
v 2.3 0.25 2.85
v 2.19282 0.144524 -3.5
v 2.19282 -0.144524 -3.5
v 1.80718 -0.144524 -3.5
v 2.144524 -0.19282 -3.5
v 1.855476 -0.19282 -3.5
v 1.80718 0.144524 -3.5
v 1.855476 0.19282 -3.5
v 2.144524 0.19282 -3.5
v 2.168916 -0.186452 -3.5
v 2.163244 -0.189205 -3.5
v 2.186452 -0.168915 -3.5
v 2.189205 -0.163244 -3.5
v 2.191203 -0.157225 -3.5
v 2.157225 -0.191203 -3.5
v 1.813548 -0.168915 -3.5
v 1.810795 -0.163244 -3.5
v 1.836756 -0.189205 -3.5
v 1.831085 0.186452 -3.5
v 1.836756 0.189205 -3.5
v 1.813548 0.168915 -3.5
v 1.810795 0.163244 -3.5
v 1.808797 0.157225 -3.5
v 1.842775 0.191203 -3.5
v 1.842775 -0.191203 -3.5
v 1.808797 -0.157225 -3.5
v 2.157225 0.191203 -3.5
v 2.189205 0.163244 -3.5
v 2.191203 0.157225 -3.5
v 2.163244 0.189205 -3.5
v 2.168916 0.186452 -3.5
v 2.186452 0.168915 -3.5
v 2.17415 -0.182988 -3.5
v 2.182987 -0.17415 -3.5
v 2.178865 -0.178865 -3.5
v 1.82585 0.182988 -3.5
v 1.817012 0.17415 -3.5
v 1.821135 0.178865 -3.5
v 1.831085 -0.186452 -3.5
v 1.82585 -0.182988 -3.5
v 1.817012 -0.17415 -3.5
v 1.821135 -0.178865 -3.5
v 2.182987 0.17415 -3.5
v 2.17415 0.182988 -3.5
v 2.178865 0.178865 -3.5
v 2.25 -0.305602 2.897005
v 1.75 -0.305602 2.897005
v 2.25 -0.303751 2.881475
v 1.75 -0.303751 2.881475
v 1.7 -0.192065 3.533869
v 1.7 -0.067665 3.462851
v 1.7 0.236321 2.99259
v 1.7 -0.257003 2.908756
v 1.7 0.195782 3.129979
v 1.7 -0.277618 2.96422
v 1.7 0.129862 3.257154
v 1.7 0.040965 3.369477
v 2.25 0.285409 3.002096
v 1.75 0.285409 3.002096
v 2.25 0.278515 3.02546
v 1.75 0.278515 3.02546
v 2.25 0.242167 3.148644
v 1.75 0.242167 3.148644
v 2.25 0.219724 3.191941
v 1.75 0.219724 3.191941
v 2.25 0.171852 3.284298
v 1.75 0.171852 3.284298
v 2.25 0.126423 3.341699
v 1.75 0.126423 3.341699
v 2.25 0.07703 3.404109
v 1.75 0.07703 3.404109
v 2.25 0.002984 3.467755
v 1.75 0.002984 3.467755
v 2.25 -0.038842 3.503707
v 1.75 -0.038842 3.503707
v 2.25 -0.144843 3.564221
v 1.75 -0.144843 3.564221
v 2.25 -0.171536 3.57946
v 1.75 -0.171536 3.57946
v 2.3 -0.192065 3.533869
v 2.3 -0.257003 2.908756
v 2.3 0.236321 2.99259
v 2.3 -0.277618 2.96422
v 2.3 -0.067665 3.462851
v 2.3 0.195782 3.129979
v 2.3 0.129862 3.257154
v 2.3 0.040965 3.369477
v 1.80718 -5.2 3.494524
v 1.80718 -5.2 3.205476
v 1.855476 -5.2 3.54282
v 2.19282 -5.2 3.205476
v 1.855476 -5.2 3.15718
v 2.144524 -5.2 3.15718
v 2.157225 -5.2 3.158797
v 2.163244 -5.2 3.160795
v 2.19282 -5.2 3.494524
v 2.144524 -5.2 3.54282
v 1.808797 -5.2 3.192775
v 1.836756 -5.2 3.160795
v 1.842775 -5.2 3.158797
v 1.842775 -5.2 3.541203
v 1.836756 -5.2 3.539205
v 1.808797 -5.2 3.507225
v 1.810795 -5.2 3.513244
v 2.191203 -5.2 3.507225
v 2.163244 -5.2 3.539205
v 2.157225 -5.2 3.541203
v 2.178865 -5.2 3.171135
v 2.182987 -5.2 3.17585
v 2.17415 -5.2 3.167012
v 2.186452 -5.2 3.181085
v 2.168916 -5.2 3.163548
v 2.189205 -5.2 3.186756
v 2.191203 -5.2 3.192775
v 1.810795 -5.2 3.186756
v 1.813548 -5.2 3.181085
v 1.831085 -5.2 3.163548
v 1.817012 -5.2 3.17585
v 1.82585 -5.2 3.167012
v 1.821135 -5.2 3.171135
v 1.813548 -5.2 3.518915
v 1.831085 -5.2 3.536452
v 1.817012 -5.2 3.52415
v 1.82585 -5.2 3.532988
v 1.821135 -5.2 3.528865
v 2.189205 -5.2 3.513244
v 2.186452 -5.2 3.518915
v 2.168916 -5.2 3.536452
v 2.182987 -5.2 3.52415
v 2.17415 -5.2 3.532988
v 2.178865 -5.2 3.528865
v 2.3 -4.8 3.1
v 2.3 -4.8 3.6
v 2.25 -4.8 3.65
v 1.75 -4.8 3.65
v 1.7 -4.8 3.6
v 1.7 -4.8 3.1
v 2.25 -4.8 3.05
v 1.75 -4.8 3.05
v 1.748324 -0.299972 -3.100105
v 2.251676 -0.299972 -3.100105
v 2.299972 -0.251676 -3.100105
v 2.299972 0.251676 -3.100105
v 1.700028 0.251676 -3.100105
v 1.700028 -0.251676 -3.100105
v 2.251676 0.299972 -3.100105
v 1.748324 0.299972 -3.100105
v 1.748324 -4.800105 3.649972
v 2.251676 -4.800105 3.649972
v 1.700028 -4.800105 3.098324
v 1.700028 -4.800105 3.601676
v 2.299972 -4.800105 3.601676
v 2.299972 -4.800105 3.098324
v 2.251676 -4.800105 3.050028
v 1.748324 -4.800105 3.050028
v 2.262921 -4.801328 3.051829
v 2.264017 -4.801447 3.052005
v 2.274973 -4.80225 3.05676
v 2.275482 -4.802287 3.056981
v 2.285355 -4.802573 3.064645
v 2.293019 -4.802287 3.074518
v 2.29324 -4.80225 3.075027
v 2.297995 -4.801447 3.085983
v 2.298171 -4.801328 3.087079
v 1.701829 -4.801328 3.087079
v 1.702005 -4.801447 3.085983
v 1.70676 -4.80225 3.075027
v 1.706981 -4.802287 3.074518
v 1.714645 -4.802573 3.064645
v 1.724518 -4.802287 3.056981
v 1.725026 -4.80225 3.05676
v 1.735983 -4.801447 3.052005
v 1.737079 -4.801328 3.051829
v 2.298171 -4.801328 3.612921
v 2.297995 -4.801447 3.614017
v 2.29324 -4.80225 3.624973
v 2.293019 -4.802287 3.625482
v 2.285355 -4.802573 3.635355
v 2.275482 -4.802287 3.643019
v 2.274973 -4.80225 3.64324
v 2.264017 -4.801447 3.647995
v 2.262921 -4.801328 3.648171
v 1.737079 -4.801328 3.648171
v 1.735983 -4.801447 3.647995
v 1.725026 -4.80225 3.64324
v 1.724518 -4.802287 3.643019
v 1.714645 -4.802573 3.635355
v 1.706981 -4.802287 3.625482
v 1.70676 -4.80225 3.624973
v 1.702005 -4.801447 3.614017
v 1.701829 -4.801328 3.612921
v 2.262941 0.298296 2.85
v 2.298296 -0.186752 3.545668
v 2.293301 -0.181801 3.556664
v 2.285355 -0.177549 3.566106
v 2.275 -0.174287 3.573352
v 2.262941 -0.172236 3.577906
v 2.262941 0.283736 3.001772
v 2.262941 0.240586 3.148008
v 2.262941 0.170422 3.283373
v 2.262941 0.075801 3.402929
v 2.262941 -0.039824 3.502315
v 2.275 -0.042704 3.498234
v 2.275 0.072198 3.399469
v 2.275 0.166227 3.280661
v 2.275 0.235953 3.146143
v 2.275 0.278832 3.000822
v 2.275 0.293301 2.85
v 2.285355 -0.047284 3.491741
v 2.285355 0.066467 3.393965
v 2.285355 0.159553 3.276347
v 2.285355 0.228581 3.143177
v 2.285355 0.271031 2.999312
v 2.285355 0.285355 2.85
v 2.293301 -0.053253 3.483279
v 2.293301 0.058997 3.386793
v 2.293301 0.150857 3.270726
v 2.293301 0.218974 3.139311
v 2.293301 0.260865 2.997343
v 2.293301 0.275 2.85
v 2.298296 -0.060205 3.473425
v 2.298296 0.050299 3.378441
v 2.298296 0.14073 3.264179
v 2.298296 0.207787 3.134809
v 2.298296 0.249026 2.99505
v 2.298296 0.262941 2.85
v 2.262921 0.298171 -3.101328
v 2.264017 0.297995 -3.101447
v 2.274973 0.29324 -3.10225
v 2.275482 0.293019 -3.102287
v 2.285355 0.285355 -3.102573
v 2.293019 0.275482 -3.102287
v 2.29324 0.274973 -3.10225
v 2.297995 0.264017 -3.101447
v 2.298171 0.262921 -3.101328
v 1.701254 -0.267817 2.906141
v 1.701254 -0.287515 2.959137
v 1.704952 -0.296916 2.954309
v 1.710908 -0.305349 2.949977
v 1.718826 -0.294999 2.899569
v 1.738874 -0.304384 2.897299
v 1.728306 -0.300789 2.898169
v 1.701254 -0.261126 2.85
v 1.701869 -0.262883 2.85
v 1.704952 -0.278089 2.903657
v 1.704952 -0.271694 2.85
v 1.706935 -0.274851 2.85
v 1.710908 -0.287304 2.901429
v 1.710908 -0.281174 2.85
v 1.714867 -0.285133 2.85
v 1.718826 -0.289092 2.85
v 1.725149 -0.293065 2.85
v 1.728306 -0.295048 2.85
v 1.737117 -0.298132 2.85
v 1.738874 -0.298746 2.85
v 1.737079 -0.298171 -3.101328
v 1.735983 -0.297995 -3.101447
v 1.725026 -0.29324 -3.10225
v 1.724518 -0.293019 -3.102287
v 1.714645 -0.285355 -3.102573
v 1.706981 -0.275482 -3.102287
v 1.70676 -0.274973 -3.10225
v 1.702005 -0.264017 -3.101447
v 1.701829 -0.262921 -3.101328
v 2.274851 -0.293065 2.85
v 2.281174 -0.289092 2.85
v 2.281174 -0.294999 2.899569
v 2.271694 -0.300789 2.898169
v 2.261126 -0.304384 2.897299
v 2.289092 -0.305349 2.949977
v 2.295048 -0.296916 2.954309
v 2.298747 -0.287515 2.959137
v 2.298747 -0.261126 2.85
v 2.298747 -0.267817 2.906141
v 2.298131 -0.262883 2.85
v 2.295048 -0.278089 2.903657
v 2.285133 -0.285133 2.85
v 2.289092 -0.281174 2.85
v 2.289092 -0.287304 2.901429
v 2.293065 -0.274851 2.85
v 2.295048 -0.271694 2.85
v 2.271694 -0.295048 2.85
v 2.262883 -0.298132 2.85
v 2.261126 -0.298746 2.85
v 2.298171 -0.262921 -3.101328
v 2.297995 -0.264017 -3.101447
v 2.29324 -0.274973 -3.10225
v 2.293019 -0.275482 -3.102287
v 2.285355 -0.285355 -3.102573
v 2.275482 -0.293019 -3.102287
v 2.274973 -0.29324 -3.10225
v 2.264017 -0.297995 -3.101447
v 2.262921 -0.298171 -3.101328
v 1.737059 -0.172236 3.577906
v 1.725 -0.174287 3.573352
v 1.714645 -0.177549 3.566106
v 1.706699 -0.181801 3.556664
v 1.701704 -0.186752 3.545668
v 1.737059 -0.039824 3.502315
v 1.737059 0.170422 3.283373
v 1.737059 0.075801 3.402929
v 1.737059 0.240586 3.148008
v 1.737059 0.283736 3.001772
v 1.737059 0.298296 2.85
v 1.725 -0.042704 3.498234
v 1.725 0.072198 3.399469
v 1.725 0.166227 3.280661
v 1.725 0.235953 3.146143
v 1.725 0.278832 3.000822
v 1.725 0.293301 2.85
v 1.714645 -0.047284 3.491741
v 1.714645 0.066467 3.393965
v 1.714645 0.159553 3.276347
v 1.714645 0.228581 3.143177
v 1.714645 0.271031 2.999312
v 1.714645 0.285355 2.85
v 1.706699 -0.053253 3.483279
v 1.706699 0.058997 3.386793
v 1.706699 0.150857 3.270726
v 1.706699 0.218974 3.139311
v 1.706699 0.260865 2.997343
v 1.706699 0.275 2.85
v 1.701704 -0.060205 3.473425
v 1.701704 0.050299 3.378441
v 1.701704 0.14073 3.264179
v 1.701704 0.207787 3.134809
v 1.701704 0.249026 2.99505
v 1.701704 0.262941 2.85
v 1.701829 0.262921 -3.101328
v 1.702005 0.264017 -3.101447
v 1.70676 0.274973 -3.10225
v 1.706981 0.275482 -3.102287
v 1.714645 0.285355 -3.102573
v 1.724518 0.293019 -3.102287
v 1.725026 0.29324 -3.10225
v 1.735983 0.297995 -3.101447
v 1.737079 0.298171 -3.101328
usemtl 1
f 1// 2// 3//
f 3// 2// 4//
f 3// 4// 5//
f 5// 4// 6//
f 5// 6// 7//
f 7// 6// 8//
f 9// 10// 11//
f 11// 10// 12//
f 11// 12// 13//
f 13// 12// 14//
f 13// 14// 15//
f 15// 14// 16//
f 17// 18// 19//
f 20// 21// 22//
f 23// 24// 25//
f 25// 24// 26//
f 25// 26// 27//
f 23// 28// 29//
f 29// 30// 23//
f 23// 30// 31//
f 23// 31// 24//
f 24// 31// 32//
f 24// 32// 33//
f 33// 32// 34//
f 33// 34// 35//
f 35// 36// 33//
f 33// 36// 37//
f 33// 37// 38//
f 39// 40// 33//
f 33// 40// 41//
f 42// 43// 44//
f 44// 43// 45//
f 41// 46// 33//
f 33// 46// 45//
f 33// 45// 47//
f 47// 45// 43//
f 38// 48// 33//
f 33// 48// 49//
f 33// 49// 39//
f 50// 17// 51//
f 51// 17// 52//
f 53// 54// 55//
f 55// 54// 56//
f 55// 56// 57//
f 58// 59// 60//
f 60// 59// 61//
f 60// 61// 62//
f 62// 63// 60//
f 60// 63// 64//
f 60// 64// 65//
f 57// 66// 55//
f 55// 66// 67//
f 55// 67// 68//
f 69// 70// 71//
f 71// 70// 72//
f 71// 72// 73//
f 74// 75// 76//
f 76// 75// 77//
f 78// 79// 80//
f 22// 21// 74//
f 74// 21// 81//
f 74// 81// 82//
f 82// 83// 74//
f 74// 83// 84//
f 74// 84// 85//
f 86// 87// 22//
f 22// 87// 88//
f 22// 88// 20//
f 89// 90// 91//
f 91// 90// 75//
f 91// 75// 92//
f 92// 75// 93//
f 85// 94// 74//
f 74// 94// 95//
f 74// 95// 75//
f 75// 95// 96//
f 75// 96// 93//
f 89// 97// 90//
f 90// 97// 98//
f 90// 98// 80//
f 80// 98// 99//
f 80// 99// 78//
f 79// 100// 80//
f 80// 100// 101//
f 80// 101// 102//
f 103// 104// 22//
f 22// 104// 105//
f 22// 105// 86//
f 106// 107// 108//
f 109// 110// 111//
f 111// 110// 112//
f 111// 112// 18//
f 18// 112// 113//
f 18// 113// 19//
f 19// 113// 114//
f 115// 116// 117//
f 118// 119// 120//
f 109// 121// 122//
f 117// 116// 123//
f 123// 116// 124//
f 123// 124// 125//
f 126// 127// 109//
f 109// 127// 128//
f 109// 128// 121//
f 122// 129// 109//
f 109// 129// 130//
f 109// 130// 110//
f 110// 130// 131//
f 110// 131// 132//
f 132// 133// 110//
f 110// 133// 134//
f 110// 134// 135//
f 118// 120// 136//
f 119// 137// 120//
f 120// 137// 138//
f 120// 138// 109//
f 109// 138// 139//
f 109// 139// 126//
f 135// 140// 110//
f 110// 140// 141//
f 110// 141// 117//
f 117// 141// 142//
f 117// 142// 115//
f 125// 143// 123//
f 123// 143// 144//
f 123// 144// 120//
f 120// 144// 145//
f 120// 145// 136//
f 146// 147// 148//
f 148// 147// 149//
f 150// 151// 152//
f 152// 151// 153//
f 154// 155// 153//
f 153// 155// 146//
f 153// 146// 152//
f 152// 146// 148//
f 147// 156// 149//
f 149// 156// 150//
f 149// 150// 157//
f 157// 150// 152//
f 157// 152// 158//
f 158// 152// 159//
f 160// 149// 161//
f 160// 162// 149//
f 149// 162// 163//
f 149// 163// 164//
f 165// 166// 148//
f 148// 166// 167//
f 148// 167// 168//
f 164// 169// 149//
f 149// 169// 170//
f 149// 170// 171//
f 168// 172// 148//
f 148// 172// 173//
f 148// 173// 174//
f 174// 173// 175//
f 174// 175// 161//
f 161// 175// 176//
f 161// 176// 160//
f 171// 177// 149//
f 149// 177// 178//
f 149// 178// 148//
f 148// 178// 179//
f 148// 179// 165//
f 180// 159// 181//
f 181// 159// 152//
f 181// 152// 182//
f 182// 152// 148//
f 182// 148// 183//
f 183// 148// 174//
f 183// 174// 72//
f 72// 174// 25//
f 72// 25// 73//
f 73// 25// 27//
f 184// 161// 23//
f 184// 185// 161//
f 161// 185// 186//
f 161// 186// 174//
f 174// 186// 187//
f 174// 187// 25//
f 25// 187// 188//
f 25// 188// 23//
f 23// 188// 189//
f 23// 189// 184//
f 190// 191// 192//
f 192// 191// 186//
f 192// 186// 193//
f 193// 186// 185//
f 193// 185// 194//
f 194// 185// 195//
f 158// 120// 157//
f 157// 120// 109//
f 157// 109// 149//
f 149// 109// 111//
f 149// 111// 161//
f 161// 111// 18//
f 161// 18// 23//
f 23// 18// 17//
f 23// 17// 28//
f 28// 17// 50//
f 102// 103// 80//
f 80// 103// 22//
f 80// 22// 196//
f 196// 22// 52//
f 196// 52// 108//
f 108// 52// 17//
f 108// 17// 106//
f 106// 17// 19//
f 197// 198// 199//
f 199// 198// 200//
f 199// 200// 60//
f 68// 58// 55//
f 55// 58// 60//
f 55// 60// 201//
f 201// 60// 200//
f 201// 200// 202//
f 69// 53// 70//
f 70// 53// 55//
f 70// 55// 203//
f 203// 55// 204//
f 203// 204// 205//
f 205// 204// 206//
f 205// 206// 207//
f 207// 206// 208//
f 201// 209// 55//
f 55// 209// 197//
f 55// 197// 204//
f 204// 197// 199//
f 204// 199// 206//
f 206// 199// 210//
f 206// 210// 208//
f 208// 210// 211//
f 65// 51// 60//
f 60// 51// 52//
f 60// 52// 199//
f 199// 52// 22//
f 199// 22// 210//
f 210// 22// 74//
f 210// 74// 211//
f 211// 74// 76//
f 212// 213// 214//
f 215// 216// 217//
f 217// 216// 218//
f 217// 218// 219//
f 214// 220// 212//
f 212// 220// 221//
f 212// 221// 217//
f 217// 221// 222//
f 217// 222// 215//
f 223// 224// 225//
f 225// 224// 226//
f 225// 226// 227//
f 228// 229// 230//
f 230// 231// 228//
f 228// 231// 232//
f 228// 232// 233//
f 234// 235// 217//
f 236// 237// 225//
f 227// 238// 225//
f 225// 238// 239//
f 225// 239// 240//
f 240// 239// 241//
f 240// 241// 242//
f 242// 243// 240//
f 240// 243// 244//
f 240// 244// 228//
f 228// 244// 245//
f 228// 245// 229//
f 237// 246// 225//
f 225// 246// 247//
f 225// 247// 223//
f 248// 249// 212//
f 212// 249// 250//
f 212// 250// 213//
f 219// 251// 217//
f 217// 251// 252//
f 217// 252// 234//
f 235// 253// 217//
f 217// 253// 254//
f 217// 254// 255//
f 233// 256// 228//
f 228// 256// 257//
f 228// 257// 258//
f 258// 259// 228//
f 228// 259// 260//
f 228// 260// 261//
f 262// 263// 212//
f 212// 263// 264//
f 261// 265// 228//
f 228// 265// 266//
f 228// 266// 212//
f 212// 266// 267//
f 212// 267// 262//
f 264// 268// 212//
f 212// 268// 269//
f 212// 269// 248//
f 255// 270// 217//
f 217// 270// 271//
f 217// 271// 272//
f 272// 273// 217//
f 217// 273// 274//
f 217// 274// 225//
f 225// 274// 275//
f 225// 275// 236//
f 276// 277// 278//
f 279// 280// 281//
f 281// 280// 282//
f 281// 282// 283//
f 278// 284// 276//
f 276// 284// 285//
f 276// 285// 281//
f 281// 285// 286//
f 281// 286// 279//
f 287// 288// 289//
f 288// 290// 289//
f 289// 290// 291//
f 289// 291// 292//
f 292// 293// 289//
f 289// 293// 294//
f 289// 294// 295//
f 296// 297// 298//
f 298// 297// 299//
f 298// 299// 300//
f 301// 302// 281//
f 303// 304// 289//
f 295// 305// 289//
f 289// 305// 306//
f 289// 306// 298//
f 298// 306// 307//
f 298// 307// 296//
f 304// 308// 289//
f 289// 308// 309//
f 289// 309// 287//
f 310// 311// 276//
f 276// 311// 312//
f 276// 312// 277//
f 283// 313// 281//
f 281// 313// 314//
f 281// 314// 301//
f 302// 315// 281//
f 281// 315// 316//
f 281// 316// 317//
f 299// 318// 300//
f 300// 318// 319//
f 300// 319// 320//
f 320// 321// 300//
f 300// 321// 322//
f 300// 322// 323//
f 323// 324// 300//
f 300// 324// 325//
f 300// 325// 326//
f 276// 327// 328//
f 326// 329// 300//
f 300// 329// 330//
f 300// 330// 276//
f 276// 330// 331//
f 276// 331// 327//
f 328// 332// 276//
f 276// 332// 333//
f 276// 333// 310//
f 317// 334// 281//
f 281// 334// 335//
f 281// 335// 336//
f 336// 337// 281//
f 281// 337// 338//
f 281// 338// 289//
f 289// 338// 339//
f 289// 339// 303//
f 340// 341// 342//
f 342// 341// 343//
f 344// 345// 346//
f 346// 345// 347//
f 346// 347// 348//
f 348// 347// 349//
f 350// 351// 352//
f 352// 351// 353//
f 352// 353// 354//
f 354// 353// 355//
f 356// 352// 357//
f 357// 352// 354//
f 346// 358// 344//
f 344// 358// 359//
f 360// 361// 362//
f 362// 361// 363//
f 347// 345// 364//
f 365// 366// 367//
f 367// 366// 368//
f 368// 369// 367//
f 367// 369// 13//
f 367// 13// 364//
f 364// 13// 15//
f 364// 15// 347//
f 360// 370// 361//
f 361// 370// 371//
f 372// 361// 6//
f 6// 361// 371//
f 6// 371// 8//
f 8// 371// 373//
f 8// 373// 353//
f 353// 373// 355//
f 374// 375// 370//
f 360// 362// 376//
f 370// 360// 374//
f 374// 360// 376//
f 374// 376// 377//
f 377// 376// 378//
f 378// 379// 377//
f 377// 379// 366//
f 377// 366// 380//
f 380// 366// 365//
f 15// 16// 381//
f 7// 8// 382//
f 382// 8// 353//
f 382// 353// 383//
f 383// 353// 351//
f 383// 351// 298//
f 298// 351// 107//
f 298// 107// 289//
f 289// 107// 228//
f 289// 228// 343//
f 343// 228// 342//
f 107// 106// 228//
f 228// 106// 19//
f 228// 19// 240//
f 240// 19// 114//
f 240// 114// 384//
f 384// 114// 349//
f 384// 349// 381//
f 381// 349// 347//
f 381// 347// 15//
f 368// 366// 385//
f 385// 366// 379//
f 112// 117// 386//
f 113// 112// 387//
f 387// 112// 386//
f 387// 386// 358//
f 358// 386// 388//
f 388// 381// 16//
f 16// 14// 123//
f 359// 358// 389//
f 389// 358// 388//
f 388// 16// 389//
f 389// 16// 123//
f 389// 123// 390//
f 390// 123// 120//
f 390// 120// 158//
f 391// 392// 180//
f 180// 392// 390//
f 180// 390// 159//
f 159// 390// 158//
f 180// 182// 391//
f 391// 182// 183//
f 391// 183// 393//
f 393// 183// 72//
f 393// 72// 70//
f 70// 203// 393//
f 393// 203// 205//
f 393// 205// 207//
f 356// 357// 394//
f 394// 357// 395//
f 394// 395// 382//
f 382// 395// 7//
f 396// 393// 397//
f 397// 393// 207//
f 397// 207// 208//
f 5// 7// 77//
f 77// 7// 395//
f 77// 395// 76//
f 76// 395// 397//
f 76// 397// 211//
f 211// 397// 208//
f 356// 394// 398//
f 398// 394// 399//
f 398// 399// 90//
f 90// 80// 398//
f 398// 80// 196//
f 398// 196// 108//
f 108// 107// 398//
f 398// 107// 351//
f 398// 351// 350//
f 114// 113// 349//
f 349// 113// 387//
f 349// 387// 348//
f 376// 362// 2//
f 2// 362// 363//
f 2// 363// 4//
f 4// 363// 400//
f 2// 1// 276//
f 281// 378// 276//
f 276// 378// 376//
f 276// 376// 2//
f 10// 9// 217//
f 217// 9// 378//
f 217// 378// 212//
f 212// 378// 281//
f 212// 281// 340//
f 340// 281// 341//
f 379// 378// 9//
f 11// 401// 9//
f 9// 401// 385//
f 9// 385// 379//
f 399// 383// 90//
f 90// 383// 298//
f 90// 298// 300//
f 399// 394// 383//
f 383// 394// 382//
f 5// 77// 3//
f 3// 77// 75//
f 3// 75// 300//
f 300// 75// 90//
f 388// 386// 381//
f 381// 386// 384//
f 384// 386// 240//
f 240// 386// 117//
f 240// 117// 225//
f 117// 123// 225//
f 225// 123// 14//
f 225// 14// 12//
f 352// 356// 350//
f 350// 356// 398//
f 374// 393// 375//
f 375// 393// 396//
f 377// 391// 374//
f 374// 391// 393//
f 391// 377// 392//
f 392// 377// 380//
f 348// 387// 346//
f 346// 387// 358//
f 389// 364// 359//
f 359// 364// 345//
f 359// 345// 344//
f 367// 390// 365//
f 365// 390// 392//
f 365// 392// 380//
f 364// 389// 367//
f 367// 389// 390//
f 371// 397// 373//
f 373// 397// 395//
f 373// 395// 355//
f 355// 395// 357//
f 355// 357// 354//
f 397// 371// 396//
f 396// 371// 370//
f 396// 370// 375//
f 343// 341// 289//
f 289// 341// 281//
f 300// 276// 3//
f 3// 276// 1//
usemtl 2
f 402// 403// 150//
f 150// 403// 151//
f 403// 404// 151//
f 151// 404// 153//
f 404// 405// 153//
f 153// 405// 154//
f 405// 406// 154//
f 154// 406// 155//
f 406// 407// 155//
f 155// 407// 146//
f 407// 408// 146//
f 146// 408// 147//
f 408// 409// 147//
f 147// 409// 156//
f 409// 402// 156//
f 156// 402// 150//
f 410// 411// 409//
f 408// 407// 406//
f 411// 412// 409//
f 409// 412// 413//
f 409// 413// 402//
f 402// 413// 414//
f 402// 414// 415//
f 409// 408// 410//
f 410// 408// 406//
f 410// 406// 416//
f 416// 406// 405//
f 415// 417// 402//
f 402// 417// 416//
f 402// 416// 403//
f 403// 416// 405//
f 403// 405// 404//
f 410// 416// 418//
f 418// 416// 419//
f 411// 410// 420//
f 420// 410// 418//
f 411// 420// 421//
f 411// 421// 412//
f 412// 421// 422//
f 412// 422// 413//
f 414// 413// 423//
f 423// 413// 422//
f 414// 423// 424//
f 414// 424// 415//
f 415// 424// 425//
f 415// 425// 417//
f 416// 417// 419//
f 419// 417// 425//
f 426// 427// 173//
f 173// 427// 175//
f 427// 428// 175//
f 175// 428// 176//
f 428// 429// 176//
f 176// 429// 160//
f 430// 178// 177//
f 430// 177// 431//
f 431// 177// 171//
f 431// 171// 432//
f 432// 171// 170//
f 432// 170// 433//
f 433// 170// 169//
f 433// 169// 434//
f 434// 169// 164//
f 434// 164// 435//
f 435// 164// 163//
f 435// 163// 436//
f 436// 163// 162//
f 436// 162// 437//
f 437// 162// 160//
f 437// 160// 429//
f 426// 173// 172//
f 426// 172// 438//
f 438// 172// 168//
f 438// 168// 439//
f 439// 168// 167//
f 439// 167// 440//
f 440// 167// 166//
f 440// 166// 441//
f 441// 166// 165//
f 441// 165// 442//
f 442// 165// 179//
f 442// 179// 443//
f 443// 179// 178//
f 443// 178// 430//
f 432// 433// 444//
f 444// 433// 434//
f 444// 434// 445//
f 445// 434// 435//
f 445// 435// 446//
f 446// 435// 436//
f 446// 436// 447//
f 447// 436// 437//
f 447// 437// 448//
f 448// 437// 429//
f 448// 429// 449//
f 449// 429// 428//
f 449// 428// 450//
f 450// 428// 427//
f 450// 427// 451//
f 451// 427// 426//
f 451// 426// 452//
f 452// 426// 438//
f 452// 438// 453//
f 453// 438// 439//
f 453// 439// 454//
f 454// 439// 440//
f 454// 440// 455//
f 455// 440// 441//
f 455// 441// 456//
f 456// 441// 442//
f 456// 442// 457//
f 457// 442// 443//
f 457// 443// 458//
f 458// 443// 430//
f 458// 430// 459//
f 459// 430// 431//
f 459// 431// 460//
f 460// 431// 432//
f 460// 432// 444//
f 448// 449// 461//
f 461// 449// 462//
f 448// 461// 463//
f 448// 463// 447//
f 447// 463// 464//
f 447// 464// 446//
f 446// 464// 465//
f 446// 465// 445//
f 445// 465// 466//
f 445// 466// 444//
f 444// 466// 467//
f 444// 467// 460//
f 460// 467// 468//
f 460// 468// 459//
f 459// 468// 469//
f 459// 469// 458//
f 458// 469// 470//
f 458// 470// 457//
f 457// 470// 471//
f 457// 471// 456//
f 456// 471// 472//
f 456// 472// 455//
f 455// 472// 473//
f 455// 473// 454//
f 454// 473// 474//
f 454// 474// 453//
f 453// 474// 475//
f 453// 475// 452//
f 452// 475// 476//
f 452// 476// 451//
f 450// 451// 477//
f 477// 451// 476//
f 449// 450// 462//
f 462// 450// 477//
f 478// 479// 186//
f 186// 479// 187//
f 479// 480// 187//
f 187// 480// 188//
f 480// 481// 188//
f 188// 481// 189//
f 481// 482// 189//
f 189// 482// 184//
f 482// 483// 184//
f 184// 483// 185//
f 483// 484// 185//
f 185// 484// 195//
f 484// 485// 195//
f 195// 485// 194//
f 485// 486// 194//
f 194// 486// 193//
f 486// 487// 193//
f 193// 487// 192//
f 487// 488// 192//
f 192// 488// 190//
f 488// 489// 190//
f 190// 489// 191//
f 489// 478// 191//
f 191// 478// 186//
f 480// 479// 478//
f 478// 489// 480//
f 480// 489// 488//
f 480// 488// 481//
f 483// 482// 484//
f 484// 482// 481//
f 484// 481// 485//
f 485// 481// 488//
f 485// 488// 486//
f 486// 488// 487//
f 490// 491// 24//
f 24// 491// 26//
f 26// 491// 492//
f 493// 69// 71//
f 493// 71// 494//
f 494// 71// 73//
f 494// 73// 492//
f 492// 73// 27//
f 492// 27// 26//
f 495// 58// 68//
f 495// 68// 496//
f 496// 68// 67//
f 496// 67// 497//
f 497// 67// 66//
f 497// 66// 498//
f 498// 66// 57//
f 498// 57// 499//
f 499// 57// 56//
f 499// 56// 500//
f 500// 56// 54//
f 500// 54// 501//
f 501// 54// 493//
f 493// 54// 53//
f 493// 53// 69//
f 502// 50// 503//
f 503// 50// 51//
f 51// 65// 503//
f 503// 65// 64//
f 503// 64// 504//
f 504// 64// 63//
f 504// 63// 505//
f 505// 63// 62//
f 505// 62// 506//
f 506// 62// 61//
f 506// 61// 507//
f 507// 61// 59//
f 507// 59// 508//
f 508// 59// 58//
f 508// 58// 495//
f 50// 502// 28//
f 28// 502// 509//
f 28// 509// 29//
f 29// 509// 510//
f 29// 510// 30//
f 510// 511// 30//
f 30// 511// 31//
f 512// 34// 32//
f 512// 32// 513//
f 513// 32// 31//
f 513// 31// 511//
f 514// 39// 49//
f 514// 49// 515//
f 515// 49// 48//
f 515// 48// 516//
f 516// 48// 38//
f 516// 38// 517//
f 517// 38// 37//
f 517// 37// 518//
f 518// 37// 36//
f 518// 36// 519//
f 519// 36// 35//
f 519// 35// 520//
f 520// 35// 34//
f 520// 34// 512//
f 521// 43// 42//
f 521// 42// 522//
f 522// 42// 44//
f 522// 44// 523//
f 523// 44// 45//
f 523// 45// 524//
f 524// 45// 46//
f 524// 46// 525//
f 525// 46// 41//
f 525// 41// 526//
f 526// 41// 40//
f 526// 40// 527//
f 527// 40// 39//
f 527// 39// 514//
f 490// 24// 33//
f 490// 33// 528//
f 528// 33// 47//
f 528// 47// 529//
f 529// 47// 43//
f 529// 43// 521//
f 522// 493// 521//
f 521// 493// 494//
f 521// 494// 529//
f 529// 494// 492//
f 529// 492// 528//
f 528// 492// 491//
f 528// 491// 490//
f 511// 510// 513//
f 513// 510// 509//
f 513// 509// 512//
f 512// 509// 502//
f 512// 502// 520//
f 520// 502// 503//
f 520// 503// 519//
f 519// 503// 504//
f 519// 504// 518//
f 518// 504// 505//
f 518// 505// 517//
f 517// 505// 506//
f 517// 506// 516//
f 516// 506// 507//
f 516// 507// 515//
f 515// 507// 508//
f 515// 508// 514//
f 514// 508// 495//
f 514// 495// 527//
f 527// 495// 496//
f 527// 496// 526//
f 526// 496// 497//
f 526// 497// 525//
f 525// 497// 498//
f 525// 498// 524//
f 524// 498// 499//
f 524// 499// 523//
f 523// 499// 500//
f 523// 500// 522//
f 522// 500// 501//
f 522// 501// 493//
f 530// 531// 201//
f 201// 531// 209//
f 531// 532// 209//
f 209// 532// 197//
f 532// 533// 197//
f 197// 533// 198//
f 533// 534// 198//
f 198// 534// 200//
f 534// 535// 200//
f 200// 535// 202//
f 535// 530// 202//
f 202// 530// 201//
f 534// 533// 535//
f 535// 533// 532//
f 535// 532// 530//
f 530// 532// 531//
usemtl 1
f 418// 419// 420//
f 420// 419// 425//
f 420// 425// 421//
f 421// 425// 424//
f 421// 424// 422//
f 422// 424// 423//
f 462// 477// 461//
f 461// 477// 476//
f 461// 476// 475//
f 469// 468// 461//
f 461// 468// 467//
f 461// 467// 463//
f 475// 474// 461//
f 461// 474// 473//
f 461// 473// 472//
f 472// 471// 461//
f 461// 471// 470//
f 461// 470// 469//
f 466// 465// 467//
f 467// 465// 464//
f 467// 464// 463//
usemtl 3
f 536// 537// 538//
f 538// 537// 539//
f 540// 541// 542//
f 542// 541// 543//
f 544// 545// 546//
f 546// 545// 547//
f 548// 549// 550//
f 550// 549// 551//
f 552// 553// 554//
f 554// 553// 555//
f 556// 557// 558//
f 559// 560// 552//
f 552// 560// 561//
f 552// 561// 553//
f 562// 563// 564//
f 564// 563// 557//
f 564// 557// 554//
f 554// 557// 556//
f 554// 556// 552//
f 565// 566// 567//
f 567// 566// 568//
f 555// 569// 554//
f 554// 569// 568//
f 554// 568// 570//
f 570// 568// 566//
f 571// 572// 573//
f 573// 572// 574//
f 558// 575// 556//
f 556// 575// 574//
f 556// 574// 576//
f 576// 574// 572//
f 559// 577// 560//
f 560// 577// 578//
f 560// 578// 579//
f 579// 578// 580//
f 579// 580// 581//
f 581// 580// 582//
f 565// 567// 583//
f 583// 567// 584//
f 583// 584// 585//
f 564// 586// 562//
f 562// 586// 587//
f 562// 587// 588//
f 588// 587// 589//
f 588// 589// 590//
f 590// 589// 591//
f 590// 591// 592//
f 571// 573// 593//
f 593// 573// 594//
f 593// 594// 595//
f 280// 279// 596//
f 596// 279// 597//
f 596// 597// 598//
f 598// 597// 599//
f 598// 599// 536//
f 536// 599// 537//
f 329// 600// 330//
f 330// 600// 601//
f 541// 540// 602//
f 602// 540// 603//
f 602// 603// 604//
f 604// 603// 605//
f 604// 605// 606//
f 606// 605// 330//
f 606// 330// 607//
f 607// 330// 601//
f 546// 547// 608//
f 608// 547// 609//
f 608// 609// 610//
f 610// 609// 611//
f 610// 611// 612//
f 612// 611// 613//
f 612// 613// 614//
f 614// 613// 615//
f 614// 615// 616//
f 616// 615// 617//
f 616// 617// 618//
f 618// 617// 619//
f 618// 619// 620//
f 620// 619// 621//
f 620// 621// 622//
f 622// 621// 623//
f 622// 623// 624//
f 624// 623// 625//
f 624// 625// 626//
f 626// 625// 627//
f 626// 627// 628//
f 628// 627// 629//
f 628// 629// 306//
f 306// 629// 307//
f 630// 303// 339//
f 550// 551// 631//
f 631// 551// 632//
f 631// 632// 633//
f 630// 339// 634//
f 632// 635// 633//
f 633// 635// 636//
f 633// 636// 339//
f 339// 636// 637//
f 339// 637// 634//
f 638// 639// 640//
f 641// 642// 643//
f 644// 645// 646//
f 647// 641// 639//
f 639// 641// 643//
f 639// 643// 640//
f 640// 643// 648//
f 640// 648// 649//
f 650// 651// 642//
f 642// 651// 652//
f 642// 652// 643//
f 650// 653// 651//
f 651// 653// 654//
f 651// 654// 655//
f 647// 639// 645//
f 645// 639// 656//
f 645// 656// 646//
f 657// 658// 640//
f 640// 658// 659//
f 640// 659// 638//
f 657// 660// 658//
f 658// 660// 661//
f 658// 661// 662//
f 663// 664// 648//
f 648// 664// 665//
f 648// 665// 649//
f 655// 654// 666//
f 666// 654// 667//
f 666// 667// 668//
f 646// 669// 644//
f 644// 669// 670//
f 644// 670// 671//
f 671// 670// 672//
f 662// 661// 673//
f 673// 661// 674//
f 673// 674// 675//
f 663// 676// 664//
f 664// 676// 677//
f 664// 677// 678//
f 678// 677// 679//
f 678// 679// 680//
f 680// 679// 681//
f 104// 103// 682//
f 682// 103// 683//
f 99// 98// 684//
f 684// 98// 685//
f 96// 95// 686//
f 686// 95// 687//
f 688// 689// 21//
f 21// 689// 81//
f 539// 690// 558//
f 539// 558// 538//
f 538// 558// 557//
f 538// 557// 691//
f 548// 692// 564//
f 548// 564// 549//
f 549// 564// 554//
f 549// 554// 693//
f 543// 694// 552//
f 543// 552// 542//
f 542// 552// 556//
f 542// 556// 695//
f 544// 696// 555//
f 544// 555// 545//
f 545// 555// 553//
f 545// 553// 697//
f 685// 698// 640//
f 685// 640// 684//
f 684// 640// 649//
f 684// 649// 699//
f 687// 700// 639//
f 687// 639// 686//
f 686// 639// 638//
f 686// 638// 701//
f 683// 702// 648//
f 683// 648// 682//
f 682// 648// 643//
f 682// 643// 703//
f 688// 704// 642//
f 688// 642// 689//
f 689// 642// 641//
f 689// 641// 705//
f 704// 688// 21//
f 704// 21// 706//
f 706// 21// 20//
f 706// 20// 707//
f 707// 20// 88//
f 707// 88// 708//
f 708// 88// 709//
f 709// 88// 87//
f 709// 87// 710//
f 710// 87// 711//
f 711// 87// 86//
f 711// 86// 712//
f 712// 86// 713//
f 713// 86// 105//
f 713// 105// 714//
f 104// 682// 105//
f 105// 682// 703//
f 105// 703// 714//
f 667// 654// 709//
f 709// 654// 708//
f 708// 654// 653//
f 708// 653// 707//
f 707// 653// 650//
f 707// 650// 706//
f 706// 650// 642//
f 706// 642// 704//
f 667// 709// 668//
f 668// 709// 710//
f 668// 710// 666//
f 666// 710// 711//
f 666// 711// 655//
f 713// 652// 651//
f 655// 711// 651//
f 651// 711// 712//
f 651// 712// 713//
f 652// 713// 643//
f 643// 713// 714//
f 643// 714// 703//
f 700// 687// 95//
f 700// 95// 715//
f 715// 95// 94//
f 715// 94// 716//
f 716// 94// 85//
f 716// 85// 717//
f 717// 85// 718//
f 718// 85// 84//
f 718// 84// 719//
f 719// 84// 720//
f 720// 84// 83//
f 720// 83// 721//
f 721// 83// 722//
f 722// 83// 82//
f 722// 82// 723//
f 81// 689// 82//
f 82// 689// 705//
f 82// 705// 723//
f 723// 705// 641//
f 723// 641// 722//
f 641// 647// 722//
f 722// 647// 645//
f 722// 645// 721//
f 721// 645// 720//
f 645// 644// 720//
f 720// 644// 671//
f 720// 671// 719//
f 719// 671// 672//
f 719// 672// 718//
f 672// 670// 718//
f 718// 670// 669//
f 718// 669// 717//
f 717// 669// 646//
f 717// 646// 716//
f 716// 646// 656//
f 716// 656// 715//
f 715// 656// 639//
f 715// 639// 700//
f 702// 683// 103//
f 702// 103// 724//
f 724// 103// 102//
f 724// 102// 725//
f 725// 102// 101//
f 725// 101// 726//
f 726// 101// 727//
f 727// 101// 100//
f 727// 100// 728//
f 728// 100// 729//
f 729// 100// 79//
f 729// 79// 730//
f 730// 79// 731//
f 731// 79// 78//
f 731// 78// 732//
f 99// 684// 78//
f 78// 684// 699//
f 78// 699// 732//
f 679// 677// 727//
f 727// 677// 726//
f 726// 677// 676//
f 726// 676// 725//
f 725// 676// 663//
f 725// 663// 724//
f 724// 663// 648//
f 724// 648// 702//
f 679// 727// 681//
f 681// 727// 728//
f 681// 728// 680//
f 680// 728// 729//
f 680// 729// 678//
f 731// 665// 664//
f 678// 729// 664//
f 664// 729// 730//
f 664// 730// 731//
f 665// 731// 649//
f 649// 731// 732//
f 649// 732// 699//
f 698// 685// 98//
f 698// 98// 733//
f 733// 98// 97//
f 733// 97// 734//
f 734// 97// 89//
f 734// 89// 735//
f 735// 89// 736//
f 736// 89// 91//
f 736// 91// 737//
f 737// 91// 738//
f 738// 91// 92//
f 738// 92// 739//
f 739// 92// 740//
f 740// 92// 93//
f 740// 93// 741//
f 96// 686// 93//
f 93// 686// 701//
f 93// 701// 741//
f 741// 701// 638//
f 741// 638// 740//
f 638// 659// 740//
f 740// 659// 658//
f 740// 658// 739//
f 739// 658// 738//
f 658// 662// 738//
f 738// 662// 673//
f 738// 673// 737//
f 737// 673// 675//
f 737// 675// 736//
f 675// 674// 736//
f 736// 674// 661//
f 736// 661// 735//
f 735// 661// 660//
f 735// 660// 734//
f 734// 660// 657//
f 734// 657// 733//
f 733// 657// 640//
f 733// 640// 698//
f 742// 546// 608//
f 304// 303// 630//
f 309// 308// 743//
f 743// 308// 304//
f 288// 287// 744//
f 744// 287// 309//
f 292// 291// 745//
f 745// 291// 290//
f 745// 290// 288//
f 294// 293// 746//
f 746// 293// 292//
f 747// 295// 294//
f 295// 747// 305//
f 305// 747// 628//
f 305// 628// 306//
f 742// 608// 748//
f 748// 608// 610//
f 748// 610// 749//
f 610// 612// 749//
f 749// 612// 614//
f 749// 614// 750//
f 614// 616// 750//
f 750// 616// 618//
f 750// 618// 751//
f 618// 620// 751//
f 751// 620// 622//
f 751// 622// 752//
f 752// 622// 624//
f 752// 624// 747//
f 747// 624// 626//
f 747// 626// 628//
f 294// 746// 747//
f 747// 746// 753//
f 747// 753// 752//
f 752// 753// 754//
f 752// 754// 751//
f 751// 754// 755//
f 751// 755// 750//
f 750// 755// 756//
f 750// 756// 749//
f 749// 756// 757//
f 749// 757// 748//
f 748// 757// 758//
f 748// 758// 742//
f 292// 745// 746//
f 746// 745// 759//
f 746// 759// 753//
f 753// 759// 760//
f 753// 760// 754//
f 754// 760// 761//
f 754// 761// 755//
f 755// 761// 762//
f 755// 762// 756//
f 756// 762// 763//
f 756// 763// 757//
f 757// 763// 764//
f 757// 764// 758//
f 288// 744// 745//
f 745// 744// 765//
f 745// 765// 759//
f 759// 765// 766//
f 759// 766// 760//
f 760// 766// 767//
f 760// 767// 761//
f 761// 767// 768//
f 761// 768// 762//
f 762// 768// 769//
f 762// 769// 763//
f 763// 769// 770//
f 763// 770// 764//
f 309// 743// 744//
f 744// 743// 771//
f 744// 771// 765//
f 765// 771// 772//
f 765// 772// 766//
f 766// 772// 773//
f 766// 773// 767//
f 767// 773// 774//
f 767// 774// 768//
f 768// 774// 775//
f 768// 775// 769//
f 769// 775// 776//
f 769// 776// 770//
f 304// 630// 743//
f 743// 630// 634//
f 743// 634// 771//
f 771// 634// 637//
f 771// 637// 772//
f 772// 637// 636//
f 772// 636// 773//
f 773// 636// 635//
f 773// 635// 774//
f 774// 635// 632//
f 774// 632// 775//
f 775// 632// 551//
f 775// 551// 776//
f 696// 544// 546//
f 696// 546// 777//
f 777// 546// 742//
f 777// 742// 778//
f 778// 742// 758//
f 778// 758// 779//
f 779// 758// 780//
f 780// 758// 764//
f 780// 764// 781//
f 781// 764// 782//
f 782// 764// 770//
f 782// 770// 783//
f 783// 770// 784//
f 784// 770// 776//
f 784// 776// 785//
f 551// 549// 776//
f 776// 549// 693//
f 776// 693// 785//
f 584// 567// 780//
f 780// 567// 779//
f 779// 567// 568//
f 779// 568// 778//
f 778// 568// 569//
f 778// 569// 777//
f 777// 569// 555//
f 777// 555// 696//
f 584// 780// 585//
f 585// 780// 781//
f 585// 781// 583//
f 583// 781// 782//
f 583// 782// 565//
f 784// 570// 566//
f 565// 782// 566//
f 566// 782// 783//
f 566// 783// 784//
f 570// 784// 554//
f 554// 784// 785//
f 554// 785// 693//
f 786// 603// 540//
f 330// 605// 787//
f 330// 787// 331//
f 331// 787// 788//
f 331// 788// 327//
f 789// 332// 788//
f 788// 332// 328//
f 788// 328// 327//
f 312// 311// 790//
f 790// 311// 310//
f 790// 310// 789//
f 789// 310// 333//
f 789// 333// 332//
f 286// 285// 791//
f 277// 792// 278//
f 278// 792// 791//
f 278// 791// 284//
f 284// 791// 285//
f 540// 793// 786//
f 786// 793// 794//
f 786// 794// 795//
f 794// 796// 795//
f 795// 796// 797//
f 795// 797// 798//
f 798// 797// 799//
f 798// 799// 800//
f 605// 603// 787//
f 787// 603// 786//
f 787// 786// 788//
f 788// 786// 795//
f 788// 795// 789//
f 789// 795// 798//
f 789// 798// 790//
f 790// 798// 800//
f 790// 800// 801//
f 801// 802// 790//
f 790// 802// 792//
f 790// 792// 312//
f 312// 792// 277//
f 802// 803// 792//
f 792// 803// 804//
f 792// 804// 791//
f 791// 804// 805//
f 791// 805// 537//
f 279// 286// 597//
f 597// 286// 791//
f 597// 791// 599//
f 599// 791// 537//
f 539// 537// 690//
f 690// 537// 805//
f 690// 805// 806//
f 806// 805// 804//
f 806// 804// 807//
f 807// 804// 803//
f 807// 803// 808//
f 808// 803// 802//
f 808// 802// 809//
f 809// 802// 801//
f 809// 801// 810//
f 810// 801// 800//
f 810// 800// 811//
f 811// 800// 799//
f 811// 799// 812//
f 812// 799// 797//
f 812// 797// 813//
f 813// 797// 796//
f 813// 796// 814//
f 814// 796// 794//
f 814// 794// 695//
f 695// 794// 542//
f 542// 794// 793//
f 542// 793// 540//
f 814// 695// 556//
f 814// 556// 813//
f 556// 576// 813//
f 813// 576// 572//
f 813// 572// 812//
f 812// 572// 811//
f 572// 571// 811//
f 811// 571// 593//
f 811// 593// 810//
f 810// 593// 595//
f 810// 595// 809//
f 595// 594// 809//
f 809// 594// 573//
f 809// 573// 808//
f 808// 573// 574//
f 808// 574// 807//
f 807// 574// 575//
f 807// 575// 806//
f 806// 575// 558//
f 806// 558// 690//
f 815// 816// 817//
f 315// 302// 818//
f 819// 283// 282//
f 302// 301// 818//
f 818// 301// 314//
f 818// 314// 819//
f 819// 314// 313//
f 819// 313// 283//
f 334// 820// 335//
f 335// 820// 821//
f 335// 821// 336//
f 336// 821// 822//
f 336// 822// 337//
f 337// 822// 338//
f 338// 822// 633//
f 338// 633// 339//
f 550// 631// 823//
f 823// 631// 824//
f 823// 824// 825//
f 825// 824// 826//
f 827// 828// 829//
f 829// 828// 830//
f 829// 830// 826//
f 826// 830// 831//
f 826// 831// 825//
f 631// 633// 824//
f 824// 633// 822//
f 824// 822// 826//
f 826// 822// 821//
f 826// 821// 829//
f 829// 821// 820//
f 816// 827// 817//
f 817// 827// 829//
f 817// 829// 316//
f 316// 829// 820//
f 316// 820// 317//
f 317// 820// 334//
f 832// 815// 818//
f 818// 815// 817//
f 818// 817// 315//
f 315// 817// 316//
f 598// 819// 596//
f 596// 819// 282//
f 596// 282// 280//
f 832// 818// 833//
f 833// 818// 819//
f 833// 819// 834//
f 834// 819// 598//
f 834// 598// 536//
f 548// 550// 692//
f 692// 550// 823//
f 692// 823// 835//
f 835// 823// 825//
f 835// 825// 836//
f 836// 825// 831//
f 836// 831// 837//
f 837// 831// 830//
f 837// 830// 838//
f 838// 830// 828//
f 838// 828// 839//
f 839// 828// 827//
f 839// 827// 840//
f 840// 827// 816//
f 840// 816// 841//
f 841// 816// 815//
f 841// 815// 842//
f 842// 815// 832//
f 842// 832// 843//
f 843// 832// 833//
f 843// 833// 691//
f 691// 833// 538//
f 538// 833// 834//
f 538// 834// 536//
f 591// 589// 838//
f 838// 589// 837//
f 837// 589// 587//
f 837// 587// 836//
f 836// 587// 586//
f 836// 586// 835//
f 835// 586// 564//
f 835// 564// 692//
f 591// 838// 592//
f 592// 838// 839//
f 592// 839// 590//
f 590// 839// 840//
f 590// 840// 588//
f 842// 563// 562//
f 588// 840// 562//
f 562// 840// 841//
f 562// 841// 842//
f 563// 842// 557//
f 557// 842// 843//
f 557// 843// 691//
f 296// 307// 629//
f 299// 297// 844//
f 844// 297// 296//
f 319// 318// 845//
f 845// 318// 299//
f 322// 321// 846//
f 846// 321// 320//
f 846// 320// 319//
f 324// 323// 847//
f 847// 323// 322//
f 326// 325// 848//
f 848// 325// 324//
f 600// 329// 326//
f 296// 629// 844//
f 844// 629// 627//
f 844// 627// 849//
f 619// 850// 851//
f 627// 625// 849//
f 849// 625// 623//
f 849// 623// 851//
f 851// 623// 621//
f 851// 621// 619//
f 619// 617// 850//
f 850// 617// 615//
f 850// 615// 852//
f 852// 615// 613//
f 852// 613// 853//
f 853// 613// 611//
f 611// 609// 853//
f 853// 609// 547//
f 853// 547// 854//
f 299// 844// 845//
f 845// 844// 849//
f 845// 849// 855//
f 855// 849// 851//
f 855// 851// 856//
f 856// 851// 850//
f 856// 850// 857//
f 857// 850// 852//
f 857// 852// 858//
f 858// 852// 853//
f 858// 853// 859//
f 859// 853// 854//
f 859// 854// 860//
f 319// 845// 846//
f 846// 845// 855//
f 846// 855// 861//
f 861// 855// 856//
f 861// 856// 862//
f 862// 856// 857//
f 862// 857// 863//
f 863// 857// 858//
f 863// 858// 864//
f 864// 858// 859//
f 864// 859// 865//
f 865// 859// 860//
f 865// 860// 866//
f 322// 846// 847//
f 847// 846// 861//
f 847// 861// 867//
f 867// 861// 862//
f 867// 862// 868//
f 868// 862// 863//
f 868// 863// 869//
f 869// 863// 864//
f 869// 864// 870//
f 870// 864// 865//
f 870// 865// 871//
f 871// 865// 866//
f 871// 866// 872//
f 324// 847// 848//
f 848// 847// 867//
f 848// 867// 873//
f 873// 867// 868//
f 873// 868// 874//
f 874// 868// 869//
f 874// 869// 875//
f 875// 869// 870//
f 875// 870// 876//
f 876// 870// 871//
f 876// 871// 877//
f 877// 871// 872//
f 877// 872// 878//
f 326// 848// 600//
f 600// 848// 873//
f 600// 873// 601//
f 601// 873// 874//
f 601// 874// 607//
f 607// 874// 875//
f 607// 875// 606//
f 606// 875// 876//
f 606// 876// 604//
f 604// 876// 877//
f 604// 877// 602//
f 602// 877// 878//
f 602// 878// 541//
f 694// 543// 541//
f 694// 541// 879//
f 879// 541// 878//
f 879// 878// 880//
f 880// 878// 872//
f 880// 872// 881//
f 881// 872// 882//
f 882// 872// 866//
f 882// 866// 883//
f 883// 866// 884//
f 884// 866// 860//
f 884// 860// 885//
f 885// 860// 886//
f 886// 860// 854//
f 886// 854// 887//
f 547// 545// 854//
f 854// 545// 697//
f 854// 697// 887//
f 887// 697// 553//
f 887// 553// 886//
f 553// 561// 886//
f 886// 561// 560//
f 886// 560// 885//
f 885// 560// 884//
f 560// 579// 884//
f 884// 579// 581//
f 884// 581// 883//
f 883// 581// 582//
f 883// 582// 882//
f 582// 580// 882//
f 882// 580// 578//
f 882// 578// 881//
f 881// 578// 577//
f 881// 577// 880//
f 880// 577// 559//
f 880// 559// 879//
f 879// 559// 552//
f 879// 552// 694//
usemtl 1
f 228// 212// 342//
f 342// 212// 340//
f 12// 10// 225//
f 225// 10// 217//
usemtl 3
f 888// 889// 890//
f 890// 889// 891//
f 892// 893// 894//
f 894// 893// 895//
f 896// 897// 898//
f 898// 897// 899//
f 900// 901// 902//
f 902// 901// 903//
f 904// 905// 906//
f 906// 905// 907//
f 906// 907// 908//
f 906// 909// 904//
f 904// 909// 910//
f 904// 910// 911//
f 912// 913// 914//
f 914// 913// 915//
f 905// 916// 907//
f 907// 916// 915//
f 907// 915// 917//
f 917// 915// 913//
f 918// 919// 920//
f 921// 922// 923//
f 923// 922// 924//
f 909// 925// 910//
f 910// 925// 924//
f 910// 924// 926//
f 926// 924// 922//
f 908// 927// 906//
f 906// 927// 920//
f 906// 920// 928//
f 928// 920// 919//
f 929// 930// 911//
f 911// 930// 931//
f 911// 931// 904//
f 929// 932// 930//
f 930// 932// 933//
f 930// 933// 934//
f 912// 914// 935//
f 935// 914// 936//
f 935// 936// 937//
f 921// 923// 938//
f 938// 923// 939//
f 938// 939// 940//
f 920// 941// 918//
f 918// 941// 942//
f 918// 942// 943//
f 943// 942// 944//
f 934// 933// 945//
f 945// 933// 946//
f 945// 946// 947//
f 216// 215// 948//
f 948// 215// 949//
f 948// 949// 950//
f 950// 949// 951//
f 950// 951// 888//
f 888// 951// 889//
f 266// 952// 267//
f 267// 952// 953//
f 893// 892// 954//
f 954// 892// 955//
f 954// 955// 956//
f 956// 955// 957//
f 956// 957// 958//
f 958// 957// 267//
f 958// 267// 959//
f 959// 267// 953//
f 898// 899// 960//
f 960// 899// 961//
f 960// 961// 962//
f 962// 961// 963//
f 962// 963// 964//
f 964// 963// 965//
f 964// 965// 966//
f 966// 965// 967//
f 966// 967// 968//
f 968// 967// 969//
f 968// 969// 970//
f 970// 969// 971//
f 970// 971// 972//
f 972// 971// 973//
f 972// 973// 974//
f 974// 973// 975//
f 974// 975// 976//
f 976// 975// 977//
f 976// 977// 978//
f 978// 977// 979//
f 978// 979// 980//
f 980// 979// 981//
f 980// 981// 244//
f 244// 981// 245//
f 982// 236// 275//
f 902// 903// 983//
f 983// 903// 984//
f 983// 984// 985//
f 982// 275// 986//
f 984// 987// 985//
f 985// 987// 988//
f 985// 988// 275//
f 275// 988// 989//
f 275// 989// 986//
f 990// 991// 992//
f 993// 991// 994//
f 994// 995// 993//
f 993// 995// 996//
f 993// 996// 997//
f 991// 993// 992//
f 992// 993// 998//
f 992// 998// 999//
f 1000// 1001// 991//
f 991// 1001// 1002//
f 991// 1002// 994//
f 992// 1003// 990//
f 990// 1003// 1004//
f 990// 1004// 1005//
f 1005// 1004// 1006//
f 1007// 1008// 998//
f 998// 1008// 1009//
f 998// 1009// 999//
f 1010// 1011// 1012//
f 1012// 1011// 1013//
f 1012// 1013// 1014//
f 1014// 1013// 1015//
f 1014// 1015// 997//
f 997// 1015// 1016//
f 997// 1016// 993//
f 1000// 1017// 1001//
f 1001// 1017// 1018//
f 1001// 1018// 1019//
f 1019// 1018// 1020//
f 1019// 1020// 1021//
f 1021// 1020// 1022//
f 1006// 1004// 1023//
f 1023// 1004// 1024//
f 1023// 1024// 1025//
f 1025// 1024// 1026//
f 1025// 1026// 1027//
f 1007// 1028// 1008//
f 1008// 1028// 1029//
f 1008// 1029// 1030//
f 1030// 1029// 1031//
f 1030// 1031// 1032//
f 1032// 1031// 1033//
f 145// 144// 1034//
f 1034// 144// 1035//
f 142// 141// 1036//
f 1036// 141// 1037//
f 131// 130// 1038//
f 1038// 130// 1039//
f 1040// 1041// 139//
f 139// 1041// 126//
f 891// 1042// 908//
f 891// 908// 890//
f 890// 908// 907//
f 890// 907// 1043//
f 900// 1044// 905//
f 900// 905// 901//
f 901// 905// 904//
f 901// 904// 1045//
f 895// 1046// 909//
f 895// 909// 894//
f 894// 909// 906//
f 894// 906// 1047//
f 896// 1048// 911//
f 896// 911// 897//
f 897// 911// 910//
f 897// 910// 1049//
f 1037// 1050// 992//
f 1037// 992// 1036//
f 1036// 992// 999//
f 1036// 999// 1051//
f 1052// 991// 1039//
f 1039// 991// 990//
f 1039// 990// 1038//
f 1038// 990// 1053//
f 1035// 1054// 998//
f 1035// 998// 1034//
f 1034// 998// 993//
f 1034// 993// 1055//
f 1040// 1056// 995//
f 1040// 995// 1041//
f 1041// 995// 994//
f 1041// 994// 1057//
f 1056// 1040// 139//
f 1056// 139// 1058//
f 1058// 139// 138//
f 1058// 138// 1059//
f 1059// 138// 137//
f 1059// 137// 1060//
f 1060// 137// 1061//
f 1061// 137// 119//
f 1061// 119// 1062//
f 1062// 119// 1063//
f 1063// 119// 118//
f 1063// 118// 1064//
f 1064// 118// 1065//
f 1065// 118// 136//
f 1065// 136// 1066//
f 145// 1034// 136//
f 136// 1034// 1055//
f 136// 1055// 1066//
f 1012// 1014// 1061//
f 1061// 1014// 1060//
f 1060// 1014// 997//
f 1060// 997// 1059//
f 1059// 997// 996//
f 1059// 996// 1058//
f 1058// 996// 995//
f 1058// 995// 1056//
f 1012// 1061// 1010//
f 1010// 1061// 1062//
f 1010// 1062// 1011//
f 1011// 1062// 1063//
f 1011// 1063// 1013//
f 1065// 1016// 1015//
f 1013// 1063// 1015//
f 1015// 1063// 1064//
f 1015// 1064// 1065//
f 1016// 1065// 993//
f 993// 1065// 1066//
f 993// 1066// 1055//
f 1052// 1039// 130//
f 1052// 130// 1067//
f 1067// 130// 129//
f 1067// 129// 1068//
f 1068// 129// 122//
f 1068// 122// 1069//
f 1069// 122// 1070//
f 1070// 122// 121//
f 1070// 121// 1071//
f 1071// 121// 1072//
f 1072// 121// 128//
f 1072// 128// 1073//
f 1073// 128// 1074//
f 1074// 128// 127//
f 1074// 127// 1075//
f 126// 1041// 127//
f 127// 1041// 1057//
f 127// 1057// 1075//
f 1075// 1057// 994//
f 1075// 994// 1074//
f 994// 1002// 1074//
f 1074// 1002// 1001//
f 1074// 1001// 1073//
f 1073// 1001// 1072//
f 1001// 1019// 1072//
f 1072// 1019// 1021//
f 1072// 1021// 1071//
f 1071// 1021// 1022//
f 1071// 1022// 1070//
f 1022// 1020// 1070//
f 1070// 1020// 1018//
f 1070// 1018// 1069//
f 1069// 1018// 1017//
f 1069// 1017// 1068//
f 1068// 1017// 1000//
f 1068// 1000// 1067//
f 1067// 1000// 991//
f 1067// 991// 1052//
f 1054// 1035// 144//
f 1054// 144// 1076//
f 1076// 144// 143//
f 1076// 143// 1077//
f 1077// 143// 125//
f 1077// 125// 1078//
f 1078// 125// 1079//
f 1079// 125// 124//
f 1079// 124// 1080//
f 1080// 124// 1081//
f 1081// 124// 116//
f 1081// 116// 1082//
f 1082// 116// 1083//
f 1083// 116// 115//
f 1083// 115// 1084//
f 142// 1036// 115//
f 115// 1036// 1051//
f 115// 1051// 1084//
f 1031// 1029// 1079//
f 1079// 1029// 1078//
f 1078// 1029// 1028//
f 1078// 1028// 1077//
f 1077// 1028// 1007//
f 1077// 1007// 1076//
f 1076// 1007// 998//
f 1076// 998// 1054//
f 1031// 1079// 1033//
f 1033// 1079// 1080//
f 1033// 1080// 1032//
f 1032// 1080// 1081//
f 1032// 1081// 1030//
f 1083// 1009// 1008//
f 1030// 1081// 1008//
f 1008// 1081// 1082//
f 1008// 1082// 1083//
f 1009// 1083// 999//
f 999// 1083// 1084//
f 999// 1084// 1051//
f 1050// 1037// 141//
f 1050// 141// 1085//
f 1085// 141// 140//
f 1085// 140// 1086//
f 1086// 140// 135//
f 1086// 135// 1087//
f 1087// 135// 1088//
f 1088// 135// 134//
f 1088// 134// 1089//
f 1089// 134// 1090//
f 1090// 134// 133//
f 1090// 133// 1091//
f 1091// 133// 1092//
f 1092// 133// 132//
f 1092// 132// 1093//
f 131// 1038// 132//
f 132// 1038// 1053//
f 132// 1053// 1093//
f 1093// 1053// 990//
f 1093// 990// 1092//
f 990// 1005// 1092//
f 1092// 1005// 1006//
f 1092// 1006// 1091//
f 1091// 1006// 1090//
f 1006// 1023// 1090//
f 1090// 1023// 1025//
f 1090// 1025// 1089//
f 1089// 1025// 1027//
f 1089// 1027// 1088//
f 1027// 1026// 1088//
f 1088// 1026// 1024//
f 1088// 1024// 1087//
f 1087// 1024// 1004//
f 1087// 1004// 1086//
f 1086// 1004// 1003//
f 1086// 1003// 1085//
f 1085// 1003// 992//
f 1085// 992// 1050//
f 1094// 898// 960//
f 237// 236// 982//
f 247// 246// 1095//
f 1095// 246// 237//
f 224// 223// 1096//
f 1096// 223// 247//
f 238// 227// 1097//
f 1097// 227// 226//
f 1097// 226// 224//
f 241// 239// 1098//
f 1098// 239// 238//
f 1099// 242// 241//
f 242// 1099// 243//
f 243// 1099// 980//
f 243// 980// 244//
f 1094// 960// 1100//
f 1100// 960// 962//
f 1100// 962// 1101//
f 962// 964// 1101//
f 1101// 964// 966//
f 1101// 966// 1102//
f 966// 968// 1102//
f 1102// 968// 970//
f 1102// 970// 1103//
f 970// 972// 1103//
f 1103// 972// 974//
f 1103// 974// 1104//
f 1104// 974// 976//
f 1104// 976// 1099//
f 1099// 976// 978//
f 1099// 978// 980//
f 241// 1098// 1099//
f 1099// 1098// 1105//
f 1099// 1105// 1104//
f 1104// 1105// 1106//
f 1104// 1106// 1103//
f 1103// 1106// 1107//
f 1103// 1107// 1102//
f 1102// 1107// 1108//
f 1102// 1108// 1101//
f 1101// 1108// 1109//
f 1101// 1109// 1100//
f 1100// 1109// 1110//
f 1100// 1110// 1094//
f 238// 1097// 1098//
f 1098// 1097// 1111//
f 1098// 1111// 1105//
f 1105// 1111// 1112//
f 1105// 1112// 1106//
f 1106// 1112// 1113//
f 1106// 1113// 1107//
f 1107// 1113// 1114//
f 1107// 1114// 1108//
f 1108// 1114// 1115//
f 1108// 1115// 1109//
f 1109// 1115// 1116//
f 1109// 1116// 1110//
f 224// 1096// 1097//
f 1097// 1096// 1117//
f 1097// 1117// 1111//
f 1111// 1117// 1118//
f 1111// 1118// 1112//
f 1112// 1118// 1119//
f 1112// 1119// 1113//
f 1113// 1119// 1120//
f 1113// 1120// 1114//
f 1114// 1120// 1121//
f 1114// 1121// 1115//
f 1115// 1121// 1122//
f 1115// 1122// 1116//
f 247// 1095// 1096//
f 1096// 1095// 1123//
f 1096// 1123// 1117//
f 1117// 1123// 1124//
f 1117// 1124// 1118//
f 1118// 1124// 1125//
f 1118// 1125// 1119//
f 1119// 1125// 1126//
f 1119// 1126// 1120//
f 1120// 1126// 1127//
f 1120// 1127// 1121//
f 1121// 1127// 1128//
f 1121// 1128// 1122//
f 237// 982// 1095//
f 1095// 982// 986//
f 1095// 986// 1123//
f 1123// 986// 989//
f 1123// 989// 1124//
f 1124// 989// 988//
f 1124// 988// 1125//
f 1125// 988// 987//
f 1125// 987// 1126//
f 1126// 987// 984//
f 1126// 984// 1127//
f 1127// 984// 903//
f 1127// 903// 1128//
f 1048// 896// 898//
f 1048// 898// 1129//
f 1129// 898// 1094//
f 1129// 1094// 1130//
f 1130// 1094// 1110//
f 1130// 1110// 1131//
f 1131// 1110// 1132//
f 1132// 1110// 1116//
f 1132// 1116// 1133//
f 1133// 1116// 1134//
f 1134// 1116// 1122//
f 1134// 1122// 1135//
f 1135// 1122// 1136//
f 1136// 1122// 1128//
f 1136// 1128// 1137//
f 903// 901// 1128//
f 1128// 901// 1045//
f 1128// 1045// 1137//
f 946// 933// 1132//
f 1132// 933// 1131//
f 1131// 933// 932//
f 1131// 932// 1130//
f 1130// 932// 929//
f 1130// 929// 1129//
f 1129// 929// 911//
f 1129// 911// 1048//
f 946// 1132// 947//
f 947// 1132// 1133//
f 947// 1133// 945//
f 945// 1133// 1134//
f 945// 1134// 934//
f 1136// 931// 930//
f 934// 1134// 930//
f 930// 1134// 1135//
f 930// 1135// 1136//
f 931// 1136// 904//
f 904// 1136// 1137//
f 904// 1137// 1045//
f 1138// 955// 892//
f 267// 957// 1139//
f 267// 1139// 262//
f 262// 1139// 1140//
f 262// 1140// 263//
f 1141// 268// 1140//
f 1140// 268// 264//
f 1140// 264// 263//
f 250// 249// 1142//
f 1142// 249// 248//
f 1142// 248// 1141//
f 1141// 248// 269//
f 1141// 269// 268//
f 222// 221// 1143//
f 213// 1144// 214//
f 214// 1144// 1143//
f 214// 1143// 220//
f 220// 1143// 221//
f 892// 1145// 1138//
f 1138// 1145// 1146//
f 1138// 1146// 1147//
f 1146// 1148// 1147//
f 1147// 1148// 1149//
f 1147// 1149// 1150//
f 1150// 1149// 1151//
f 1150// 1151// 1152//
f 957// 955// 1139//
f 1139// 955// 1138//
f 1139// 1138// 1140//
f 1140// 1138// 1147//
f 1140// 1147// 1141//
f 1141// 1147// 1150//
f 1141// 1150// 1142//
f 1142// 1150// 1152//
f 1142// 1152// 1153//
f 1153// 1154// 1142//
f 1142// 1154// 1144//
f 1142// 1144// 250//
f 250// 1144// 213//
f 1154// 1155// 1144//
f 1144// 1155// 1156//
f 1144// 1156// 1143//
f 1143// 1156// 1157//
f 1143// 1157// 889//
f 215// 222// 949//
f 949// 222// 1143//
f 949// 1143// 951//
f 951// 1143// 889//
f 891// 889// 1042//
f 1042// 889// 1157//
f 1042// 1157// 1158//
f 1158// 1157// 1156//
f 1158// 1156// 1159//
f 1159// 1156// 1155//
f 1159// 1155// 1160//
f 1160// 1155// 1154//
f 1160// 1154// 1161//
f 1161// 1154// 1153//
f 1161// 1153// 1162//
f 1162// 1153// 1152//
f 1162// 1152// 1163//
f 1163// 1152// 1151//
f 1163// 1151// 1164//
f 1164// 1151// 1149//
f 1164// 1149// 1165//
f 1165// 1149// 1148//
f 1165// 1148// 1166//
f 1166// 1148// 1146//
f 1166// 1146// 1047//
f 1047// 1146// 894//
f 894// 1146// 1145//
f 894// 1145// 892//
f 1166// 1047// 906//
f 1166// 906// 1165//
f 906// 928// 1165//
f 1165// 928// 919//
f 1165// 919// 1164//
f 1164// 919// 1163//
f 919// 918// 1163//
f 1163// 918// 943//
f 1163// 943// 1162//
f 1162// 943// 944//
f 1162// 944// 1161//
f 944// 942// 1161//
f 1161// 942// 941//
f 1161// 941// 1160//
f 1160// 941// 920//
f 1160// 920// 1159//
f 1159// 920// 927//
f 1159// 927// 1158//
f 1158// 927// 908//
f 1158// 908// 1042//
f 1167// 1168// 1169//
f 253// 235// 1170//
f 1171// 219// 218//
f 235// 234// 1170//
f 1170// 234// 252//
f 1170// 252// 1171//
f 1171// 252// 251//
f 1171// 251// 219//
f 270// 1172// 271//
f 271// 1172// 1173//
f 271// 1173// 272//
f 272// 1173// 1174//
f 272// 1174// 273//
f 273// 1174// 274//
f 274// 1174// 985//
f 274// 985// 275//
f 902// 983// 1175//
f 1175// 983// 1176//
f 1175// 1176// 1177//
f 1177// 1176// 1178//
f 1179// 1180// 1181//
f 1181// 1180// 1182//
f 1181// 1182// 1178//
f 1178// 1182// 1183//
f 1178// 1183// 1177//
f 983// 985// 1176//
f 1176// 985// 1174//
f 1176// 1174// 1178//
f 1178// 1174// 1173//
f 1178// 1173// 1181//
f 1181// 1173// 1172//
f 1168// 1179// 1169//
f 1169// 1179// 1181//
f 1169// 1181// 254//
f 254// 1181// 1172//
f 254// 1172// 255//
f 255// 1172// 270//
f 1184// 1167// 1170//
f 1170// 1167// 1169//
f 1170// 1169// 253//
f 253// 1169// 254//
f 950// 1171// 948//
f 948// 1171// 218//
f 948// 218// 216//
f 1184// 1170// 1185//
f 1185// 1170// 1171//
f 1185// 1171// 1186//
f 1186// 1171// 950//
f 1186// 950// 888//
f 900// 902// 1044//
f 1044// 902// 1175//
f 1044// 1175// 1187//
f 1187// 1175// 1177//
f 1187// 1177// 1188//
f 1188// 1177// 1183//
f 1188// 1183// 1189//
f 1189// 1183// 1182//
f 1189// 1182// 1190//
f 1190// 1182// 1180//
f 1190// 1180// 1191//
f 1191// 1180// 1179//
f 1191// 1179// 1192//
f 1192// 1179// 1168//
f 1192// 1168// 1193//
f 1193// 1168// 1167//
f 1193// 1167// 1194//
f 1194// 1167// 1184//
f 1194// 1184// 1195//
f 1195// 1184// 1185//
f 1195// 1185// 1043//
f 1043// 1185// 890//
f 890// 1185// 1186//
f 890// 1186// 888//
f 936// 914// 1190//
f 1190// 914// 1189//
f 1189// 914// 915//
f 1189// 915// 1188//
f 1188// 915// 916//
f 1188// 916// 1187//
f 1187// 916// 905//
f 1187// 905// 1044//
f 936// 1190// 937//
f 937// 1190// 1191//
f 937// 1191// 935//
f 935// 1191// 1192//
f 935// 1192// 912//
f 1194// 917// 913//
f 912// 1192// 913//
f 913// 1192// 1193//
f 913// 1193// 1194//
f 917// 1194// 907//
f 907// 1194// 1195//
f 907// 1195// 1043//
f 229// 245// 981//
f 231// 230// 1196//
f 1196// 230// 229//
f 233// 232// 1197//
f 1197// 232// 231//
f 258// 257// 1198//
f 1198// 257// 256//
f 1198// 256// 233//
f 260// 259// 1199//
f 1199// 259// 258//
f 265// 261// 1200//
f 1200// 261// 260//
f 952// 266// 265//
f 229// 981// 1196//
f 1196// 981// 979//
f 1196// 979// 1201//
f 971// 1202// 1203//
f 979// 977// 1201//
f 1201// 977// 975//
f 1201// 975// 1203//
f 1203// 975// 973//
f 1203// 973// 971//
f 971// 969// 1202//
f 1202// 969// 967//
f 1202// 967// 1204//
f 1204// 967// 965//
f 1204// 965// 1205//
f 1205// 965// 963//
f 963// 961// 1205//
f 1205// 961// 899//
f 1205// 899// 1206//
f 231// 1196// 1197//
f 1197// 1196// 1201//
f 1197// 1201// 1207//
f 1207// 1201// 1203//
f 1207// 1203// 1208//
f 1208// 1203// 1202//
f 1208// 1202// 1209//
f 1209// 1202// 1204//
f 1209// 1204// 1210//
f 1210// 1204// 1205//
f 1210// 1205// 1211//
f 1211// 1205// 1206//
f 1211// 1206// 1212//
f 233// 1197// 1198//
f 1198// 1197// 1207//
f 1198// 1207// 1213//
f 1213// 1207// 1208//
f 1213// 1208// 1214//
f 1214// 1208// 1209//
f 1214// 1209// 1215//
f 1215// 1209// 1210//
f 1215// 1210// 1216//
f 1216// 1210// 1211//
f 1216// 1211// 1217//
f 1217// 1211// 1212//
f 1217// 1212// 1218//
f 258// 1198// 1199//
f 1199// 1198// 1213//
f 1199// 1213// 1219//
f 1219// 1213// 1214//
f 1219// 1214// 1220//
f 1220// 1214// 1215//
f 1220// 1215// 1221//
f 1221// 1215// 1216//
f 1221// 1216// 1222//
f 1222// 1216// 1217//
f 1222// 1217// 1223//
f 1223// 1217// 1218//
f 1223// 1218// 1224//
f 260// 1199// 1200//
f 1200// 1199// 1219//
f 1200// 1219// 1225//
f 1225// 1219// 1220//
f 1225// 1220// 1226//
f 1226// 1220// 1221//
f 1226// 1221// 1227//
f 1227// 1221// 1222//
f 1227// 1222// 1228//
f 1228// 1222// 1223//
f 1228// 1223// 1229//
f 1229// 1223// 1224//
f 1229// 1224// 1230//
f 265// 1200// 952//
f 952// 1200// 1225//
f 952// 1225// 953//
f 953// 1225// 1226//
f 953// 1226// 959//
f 959// 1226// 1227//
f 959// 1227// 958//
f 958// 1227// 1228//
f 958// 1228// 956//
f 956// 1228// 1229//
f 956// 1229// 954//
f 954// 1229// 1230//
f 954// 1230// 893//
f 1046// 895// 893//
f 1046// 893// 1231//
f 1231// 893// 1230//
f 1231// 1230// 1232//
f 1232// 1230// 1224//
f 1232// 1224// 1233//
f 1233// 1224// 1234//
f 1234// 1224// 1218//
f 1234// 1218// 1235//
f 1235// 1218// 1236//
f 1236// 1218// 1212//
f 1236// 1212// 1237//
f 1237// 1212// 1238//
f 1238// 1212// 1206//
f 1238// 1206// 1239//
f 899// 897// 1206//
f 1206// 897// 1049//
f 1206// 1049// 1239//
f 1239// 1049// 910//
f 1239// 910// 1238//
f 910// 926// 1238//
f 1238// 926// 922//
f 1238// 922// 1237//
f 1237// 922// 1236//
f 922// 921// 1236//
f 1236// 921// 938//
f 1236// 938// 1235//
f 1235// 938// 940//
f 1235// 940// 1234//
f 940// 939// 1234//
f 1234// 939// 923//
f 1234// 923// 1233//
f 1233// 923// 924//
f 1233// 924// 1232//
f 1232// 924// 925//
f 1232// 925// 1231//
f 1231// 925// 909//
f 1231// 909// 1046//
usemtl 1
f 369// 368// 401//
f 401// 368// 385//
f 400// 363// 372//
f 372// 363// 361//
f 401// 11// 369//
f 369// 11// 13//
f 372// 6// 400//
f 400// 6// 4//
