v -0.073001 -0.124009 0.0
v -0.073845 -0.130034 0.0
v -0.79 -0.078228 0.0
newmtl 1
Ka 1.0 1.0 1.0
Kd 1.0 1.0 1.0
Ks 0.8784313725490196 0.8784313725490196 0.8784313725490196
d 0.0
endmtl
v -0.59 -2.01 0.0
v -0.79 -2.01 0.0
v -0.59 -1.425 0.0
v -0.33 -1.425 0.0
v -0.13 -1.425 0.0
v -0.33 -2.01 0.0
v -0.13 -2.01 0.0
v -0.073001 -1.425 0.0
v -0.073001 -0.142939 0.0
v -0.073916 -0.134135 0.0
v -0.073001 -0.078228 0.0
v 0.79 -0.078228 0.0
v -0.047848 -0.092863 0.0
v -0.064312 -0.092863 0.0
v -0.070877 -0.108852 0.0
v 0.79 -2.01 0.0
v 0.59 -1.425 0.0
v 0.59 -2.01 0.0
v 0.33 -1.425 0.0
v 0.33 -2.01 0.0
v 0.13 -2.01 0.0
v -0.055623 -0.27396 0.0
v -0.055623 -0.217253 0.0
v 0.077914 -0.27396 0.0
v 0.077914 -0.294082 0.0
v -0.072086 -0.294082 0.0
v 0.13 -1.425 0.0
v 0.06328 -0.12799 0.0
v 0.061625 -0.142759 0.0
v -0.049338 -0.095551 0.0
v 0.057588 -0.153928 0.0
v 0.050463 -0.164556 0.0
v 0.040414 -0.173572 0.0
v 0.028812 -0.179693 0.0
v 0.012571 -0.183662 0.0
v 0.001313 -0.184326 0.0
v -0.014914 -0.18281 0.0
v -0.027816 -0.178738 0.0
v -0.057452 -0.131363 0.0
v -0.045593 -0.165527 0.0
v -0.0559 -0.145283 0.0
v -0.051845 -0.156315 0.0
v -0.038234 -0.172502 0.0
v -0.055242 -0.111452 0.0
v 0.060911 -0.109758 0.0
v 0.053676 -0.092863 0.0
v 0.073798 -0.092863 0.0
v -0.072086 -0.217253 0.0
v -0.071995 -0.152623 0.0
v -0.066968 -0.167237 0.0
v 0.052463 -0.187737 0.0
v 0.065092 -0.174699 0.0
v 0.07333 -0.16069 0.0
v 0.078331 -0.144241 0.0
v -0.059096 -0.17946 0.0
v -0.047167 -0.190683 0.0
v -0.032852 -0.19861 0.0
v -0.016942 -0.203058 0.0
v 8.4E-5 -0.204448 0.0
v 0.021377 -0.202298 0.0
v 0.03843 -0.196534 0.0
v 0.079743 -0.128162 0.0
v 0.078504 -0.110205 0.0
v -0.072086 0.016894 0.0
v -0.072086 -0.063594 0.0
v 0.077914 -0.063594 0.0
v 0.077914 0.013235 0.0
v -0.072086 0.046162 0.0
v 0.06145 0.013235 0.0
v 0.13 2.01 0.0
v 0.33 2.01 0.0
v 0.13 1.425 0.0
v 0.33 1.425 0.0
v 0.077914 0.234576 0.0
v 0.077914 0.254698 0.0
v 0.59 2.01 0.0
v 0.79 2.01 0.0
v 0.59 1.425 0.0
v 0.054353 0.148418 0.0
v 0.042411 0.15752 0.0
v 0.027777 0.163801 0.0
v -0.004403 0.009576 0.0
v 0.01206 0.009576 0.0
v 0.01206 -0.043472 0.0
v 0.06145 -0.043472 0.0
v 0.077914 0.046162 0.0
v 0.077914 0.088492 0.0
v -0.030975 0.159403 0.0
v -0.044391 0.150801 0.0
v -0.072086 0.177869 0.0
v -0.056213 0.138455 0.0
v -0.065314 0.122793 0.0
v 0.075597 0.110162 0.0
v 0.069436 0.127721 0.0
v 0.059769 0.142578 0.0
v 0.012147 0.166612 0.0
v 0.0048 0.166894 0.0
v -0.015274 0.164789 0.0
v -0.073001 1.425 0.0
v -0.072086 0.313235 0.0
v -0.072086 0.291284 0.0
v -0.030013 0.276107 0.0
v -0.030013 0.21414 0.0
v -0.072086 0.19982 0.0
v -0.070466 0.105509 0.0
v -0.072086 0.086949 0.0
v -0.79 2.01 0.0
v -0.59 1.425 0.0
v -0.59 2.01 0.0
v -0.33 1.425 0.0
v -0.004403 -0.043472 0.0
v -0.055623 -0.043472 0.0
v -0.055623 0.016894 0.0
v -0.13 1.425 0.0
v -0.13 2.01 0.0
v -0.33 2.01 0.0
v -0.59 -1.425 0.01
v -0.33 -1.425 0.01
v -0.59 -2.0 0.01
newmtl 2
Ka 0.25098039215686274 0.25098039215686274 0.25098039215686274
Kd 0.25098039215686274 0.25098039215686274 0.25098039215686274
Ks 0.12549019607843137 0.12549019607843137 0.12549019607843137
d 0.0
endmtl
v -0.33 -2.0 0.01
v -0.13 -1.425 0.01
v 0.13 -1.425 0.01
v -0.13 -2.0 0.01
v 0.13 -2.0 0.01
v 0.33 -1.425 0.01
v 0.59 -1.425 0.01
v 0.33 -2.0 0.01
v 0.59 -2.0 0.01
v 1.080096 0.575 0.01
v 1.065111 0.538823 0.01
v 0.79 2.0 0.01
v 1.171177 1.644889 0.01
v 1.135 1.629904 0.01
v 1.103934 1.606066 0.01
v 1.080096 1.575 0.01
v 1.065111 1.461177 0.01
v 1.080096 1.425 0.01
v 1.065111 1.038823 0.01
v 1.21 1.65 0.01
v 1.5 2.0 0.01
v 1.5 1.65 0.01
v 1.103934 1.393934 0.01
v 1.135 1.370096 0.01
v 1.080096 1.075 0.01
v 1.103934 1.106066 0.01
v 1.080096 0.925 0.01
v 1.103934 0.893934 0.01
v 1.171177 0.644889 0.01
v 1.065111 -0.038823 0.01
v 1.080096 -0.075 0.01
v 1.171177 -0.355111 0.01
v 1.103934 -0.106066 0.01
v 1.103934 -0.606066 0.01
v 1.171177 -0.855111 0.01
v 1.080096 -0.575 0.01
v 1.065111 -0.538823 0.01
v 1.065111 -0.961177 0.01
v 1.080096 -0.925 0.01
v 1.06 -0.5 0.01
v 1.103934 -0.893934 0.01
v 1.135 -0.870096 0.01
v 1.103934 -1.393934 0.01
v 1.080096 -1.425 0.01
v 1.135 -1.129904 0.01
v 1.065111 -1.461177 0.01
v 1.103934 -1.106066 0.01
v 1.065111 -1.538823 0.01
v 1.080096 -1.575 0.01
v 0.79 -2.0 0.01
v 1.103934 -1.606066 0.01
v 1.065111 1.538823 0.01
v 1.06 1.5 0.01
v 1.135 0.129904 0.01
v 1.065111 0.461177 0.01
v 1.171177 0.144889 0.01
v 1.080096 0.425 0.01
v 1.103934 0.393934 0.01
v 1.5 -0.15 0.01
v 1.5 -0.35 0.01
v 1.21 -0.15 0.01
v 1.21 -0.35 0.01
v 1.171177 -0.144889 0.01
v 1.135 -0.129904 0.01
v 1.5 -0.65 0.01
v 1.5 -0.85 0.01
v 1.21 -0.65 0.01
v 1.21 -0.85 0.01
v 1.171177 -0.644889 0.01
v 1.135 -0.629904 0.01
v 1.135 -0.370096 0.01
v 1.103934 -0.393934 0.01
v 1.06 0.0 0.01
v 1.080096 -0.425 0.01
v 1.065111 -0.461177 0.01
v 1.06 -1.0 0.01
v 1.065111 -1.038823 0.01
v 1.080096 -1.075 0.01
v 1.06 -1.5 0.01
v 1.135 -1.629904 0.01
v 1.171177 -1.644889 0.01
v 1.5 -2.0 0.01
v 1.21 -1.65 0.01
v 1.5 -1.65 0.01
v 1.5 1.35 0.01
v 1.5 1.15 0.01
v 1.21 1.35 0.01
v 1.21 1.15 0.01
v 1.171177 1.355111 0.01
v 1.171177 1.144889 0.01
v 1.135 1.129904 0.01
v 1.5 0.85 0.01
v 1.5 0.65 0.01
v 1.21 0.85 0.01
v 1.21 0.65 0.01
v 1.171177 0.855111 0.01
v 1.135 0.870096 0.01
v 1.06 1.0 0.01
v 1.065111 0.961177 0.01
v 1.135 0.629904 0.01
v 1.103934 0.606066 0.01
v 1.5 0.35 0.01
v 1.5 0.15 0.01
v 1.21 0.35 0.01
v 1.21 0.15 0.01
v 1.171177 0.355111 0.01
v 1.135 0.370096 0.01
v 1.103934 0.106066 0.01
v 1.080096 0.075 0.01
v 1.065111 0.038823 0.01
v 1.06 0.5 0.01
v 1.5 -1.15 0.01
v 1.5 -1.35 0.01
v 1.21 -1.15 0.01
v 1.21 -1.35 0.01
v 1.171177 -1.144889 0.01
v 1.171177 -1.355111 0.01
v 1.135 -1.370096 0.01
v 0.59 1.425 0.01
v 0.33 1.425 0.01
v 0.59 2.0 0.01
v 0.33 2.0 0.01
v 0.13 1.425 0.01
v -0.13 1.425 0.01
v 0.13 2.0 0.01
v -0.13 2.0 0.01
v -0.33 1.425 0.01
v -0.59 1.425 0.01
v -0.33 2.0 0.01
v -0.59 2.0 0.01
v -1.135 -0.629904 0.01
v -1.103934 -0.606066 0.01
v -1.171177 -0.855111 0.01
v -1.171177 -1.644889 0.01
v -1.135 -1.629904 0.01
v -0.79 -2.0 0.01
v -1.103934 -0.893934 0.01
v -1.135 -0.870096 0.01
v -1.065111 -0.538823 0.01
v -1.135 0.870096 0.01
v -1.103934 0.893934 0.01
v -1.171177 0.644889 0.01
v -1.103934 -1.606066 0.01
v -1.080096 -1.575 0.01
v -1.065111 -1.538823 0.01
v -1.06 -1.5 0.01
v -1.065111 -1.461177 0.01
v -0.79 2.0 0.01
v -1.21 -1.65 0.01
v -1.5 -2.0 0.01
v -1.5 -1.65 0.01
v -1.171177 -1.144889 0.01
v -1.135 -1.129904 0.01
v -1.135 -1.370096 0.01
v -1.080096 -0.575 0.01
v -1.06 0.0 0.01
v -1.065111 0.038823 0.01
v -1.103934 0.606066 0.01
v -1.135 0.629904 0.01
v -1.065111 0.961177 0.01
v -1.103934 -1.106066 0.01
v -1.080096 -1.075 0.01
v -1.065111 -1.038823 0.01
v -1.06 -1.0 0.01
v -1.065111 -0.961177 0.01
v -1.5 -0.85 0.01
v -1.5 -0.65 0.01
v -1.21 -0.85 0.01
v -1.21 -0.65 0.01
v -1.171177 -0.644889 0.01
v -1.103934 -1.393934 0.01
v -1.065111 -0.038823 0.01
v -1.065111 -0.461177 0.01
v -1.080096 -0.425 0.01
v -1.171177 -0.355111 0.01
v -1.135 -0.129904 0.01
v -1.135 -0.370096 0.01
v -1.103934 -0.106066 0.01
v -1.06 -0.5 0.01
v -1.080096 -0.925 0.01
v -1.080096 0.925 0.01
v -1.5 1.15 0.01
v -1.5 1.35 0.01
v -1.21 1.15 0.01
v -1.21 1.35 0.01
v -1.171177 1.144889 0.01
v -1.080096 -1.425 0.01
v -1.103934 -0.393934 0.01
v -1.080096 -0.075 0.01
v -1.5 0.65 0.01
v -1.5 0.85 0.01
v -1.21 0.65 0.01
v -1.21 0.85 0.01
v -1.171177 0.855111 0.01
v -1.103934 1.393934 0.01
v -1.080096 1.425 0.01
v -1.065111 1.038823 0.01
v -1.080096 0.075 0.01
v -1.065111 0.461177 0.01
v -1.06 0.5 0.01
v -1.065111 0.538823 0.01
v -1.080096 0.575 0.01
v -1.171177 0.144889 0.01
v -1.135 0.370096 0.01
v -1.135 0.129904 0.01
v -1.103934 0.393934 0.01
v -1.103934 1.106066 0.01
v -1.135 1.129904 0.01
v -1.135 1.370096 0.01
v -1.065111 1.461177 0.01
v -1.06 1.0 0.01
v -1.06 1.5 0.01
v -1.065111 1.538823 0.01
v -1.080096 1.575 0.01
v -1.21 -1.15 0.01
v -1.171177 -1.355111 0.01
v -1.5 -1.15 0.01
v -1.21 -1.35 0.01
v -1.5 -1.35 0.01
v -1.5 -0.35 0.01
v -1.5 -0.15 0.01
v -1.21 -0.35 0.01
v -1.21 -0.15 0.01
v -1.171177 -0.144889 0.01
v -1.103934 0.106066 0.01
v -1.080096 0.425 0.01
v -1.080096 1.075 0.01
v -1.171177 1.644889 0.01
v -1.5 2.0 0.01
v -1.21 1.65 0.01
v -1.5 1.65 0.01
v -1.171177 1.355111 0.01
v -1.103934 1.606066 0.01
v -1.135 1.629904 0.01
v -1.5 0.15 0.01
v -1.5 0.35 0.01
v -1.21 0.15 0.01
v -1.21 0.35 0.01
v -1.171177 0.355111 0.01
v 1.5 2.0 1.01
v 0.79 2.0 0.2
v -1.5 2.0 1.01
v 0.59 2.0 0.2
v 0.13 2.0 0.2
v -0.13 2.0 0.2
v -0.33 2.0 0.2
v 0.33 2.0 0.2
v -0.79 2.0 0.2
v -0.59 2.0 0.2
v -1.5 -2.0 1.01
v -0.79 -2.0 0.2
v 0.13 -2.0 0.2
v 0.33 -2.0 0.2
v 1.5 -2.0 1.01
v -0.59 -2.0 0.2
v -0.33 -2.0 0.2
v -0.13 -2.0 0.2
v 0.79 -2.0 0.2
v 0.59 -2.0 0.2
v -1.5 1.35 0.2
v -1.5 1.15 0.2
v -1.5 0.85 0.2
v -1.5 0.65 0.2
v -1.5 0.35 0.2
v -1.5 0.15 0.2
v -1.5 -0.15 0.2
v -1.5 -0.35 0.2
v -1.5 -1.39382 1.01
v -1.5 -0.524225 1.01
v -1.5 -0.33581 1.01
v -1.5 -0.023005 1.01
v -1.5 0.309922 1.01
v -1.5 0.525775 1.01
v -1.5 1.250083 1.01
v -1.5 1.65 0.2
v -1.5 -0.65 0.2
v -1.5 -0.85 0.2
v -1.5 -1.15 0.2
v -1.5 -1.65 0.2
v -1.5 -1.35 0.2
v 0.165504 -0.257151 1.01
v 0.165504 -0.297395 1.01
v 0.167333 -0.33581 1.01
v 0.167333 -1.39382 1.01
v 1.5 -1.39382 1.01
v 1.5 -0.524225 1.01
v -0.669077 -2.0 1.01
v -0.669077 -1.39382 1.01
v 0.169162 -0.480322 1.01
v 0.167333 -0.480322 1.01
v 0.167333 -0.524225 1.01
v -0.136325 0.309922 1.01
v -0.669077 0.309922 1.01
v -0.136325 0.167587 1.01
v -0.138155 0.150318 1.01
v 0.165194 0.109234 1.01
v 0.155101 0.080873 1.01
v 0.167333 -0.023005 1.01
v -0.086335 0.037547 1.01
v -0.109773 0.060626 1.01
v -0.136325 -0.023005 1.01
v -0.058753 0.021145 1.01
v 0.137559 0.054787 1.01
v 0.112503 0.032529 1.01
v 0.082546 0.016889 1.01
v -0.124999 0.085476 1.01
v -0.13456 0.114226 1.01
v -0.136325 0.131953 1.01
v 0.049099 0.008385 1.01
v 0.019048 0.006263 1.01
v -0.024339 0.010287 1.01
v 0.167333 0.128762 1.01
v 1.5 -0.023005 1.01
v 0.169162 0.145459 1.01
v 0.117801 0.25963 1.01
v 0.141927 0.235221 1.01
v 0.167333 0.309922 1.01
v 0.15819 0.206668 1.01
v 0.166663 0.176285 1.01
v 0.167333 0.168016 1.01
v -0.134263 0.187056 1.01
v -0.124568 0.215246 1.01
v -0.108937 0.239787 1.01
v 0.01196 0.291629 1.01
v 0.055171 0.287553 1.01
v 0.089875 0.276458 1.01
v -0.086628 0.261337 1.01
v -0.058622 0.277956 1.01
v -0.026203 0.288098 1.01
v -0.136325 -0.524225 1.01
v 0.085016 -0.374225 1.01
v 0.121601 -0.374225 1.01
v 0.120344 -0.443737 1.01
v 0.101412 -0.415397 1.01
v -0.134496 -0.443737 1.01
v 0.08637 -0.379161 1.01
v -0.134496 -0.480322 1.01
v -0.136325 -0.33581 1.01
v 0.141035 -0.422417 1.01
v 0.167333 -0.463248 1.01
v 1.5 -0.33581 1.01
v 0.169162 -0.466088 1.01
v -0.127202 0.501526 1.01
v -0.122606 0.511141 1.01
v -0.136325 0.525775 1.01
v -0.078703 0.511141 1.01
v 0.088675 0.511141 1.01
v 0.109406 0.508453 1.01
v 0.167333 0.525775 1.01
v 0.123763 0.50259 1.01
v 0.029785 0.481352 1.01
v 0.0435 0.49571 1.01
v 0.057677 0.504467 1.01
v 0.073439 0.509655 1.01
v 0.003557 0.437799 1.01
v -0.09218 0.48921 1.01
v -0.019776 0.394266 1.01
v -0.103101 0.453677 1.01
v -0.020122 0.393736 1.01
v 0.136789 0.493161 1.01
v 0.147967 0.480278 1.01
v 0.157659 0.463409 1.01
v -0.105228 0.431168 1.01
v -0.103549 0.409384 1.01
v -0.099433 0.39416 1.01
v -0.093493 0.3834 1.01
v -0.087606 0.377153 1.01
v -0.081658 0.373181 1.01
v -0.072301 0.369727 1.01
v -0.060468 0.368458 1.01
v -0.030864 0.380833 1.01
v -0.049626 0.369869 1.01
v -0.041047 0.373286 1.01
v -0.136325 0.410928 1.01
v -0.138155 0.435627 1.01
v -0.669077 0.525775 1.01
v -0.136325 0.453379 1.01
v -0.134176 0.474237 1.01
v 1.5 0.309922 1.01
v 0.167333 0.369814 1.01
v 0.160931 0.33919 1.01
v 0.117028 0.33919 1.01
v -0.135827 0.4042 1.01
v -0.127523 0.374797 1.01
v 0.005925 0.362979 1.01
v -0.010109 0.345704 1.01
v -0.078178 0.330562 1.01
v -0.093184 0.336003 1.01
v -0.105913 0.344461 1.01
v -0.116748 0.355974 1.01
v -0.025147 0.33574 1.01
v -0.04062 0.330076 1.01
v -0.057152 0.328214 1.01
v 0.031739 0.407159 1.01
v 0.128805 0.361871 1.01
v 0.046515 0.435043 1.01
v 0.134935 0.387517 1.01
v 0.136236 0.408245 1.01
v 0.101594 0.469982 1.01
v 0.092619 0.470897 1.01
v 0.134337 0.429178 1.01
v 0.129312 0.44495 1.01
v 0.122721 0.456182 1.01
v 0.116016 0.46306 1.01
v 0.081172 0.46958 1.01
v 0.072899 0.466423 1.01
v 0.065458 0.46135 1.01
v 0.05739 0.45215 1.01
v 0.109655 0.467202 1.01
v 0.165928 0.438208 1.01
v 0.167333 0.423801 1.01
v 1.5 0.525775 1.01
v 0.169162 0.405044 1.01
v 0.167736 0.371739 1.01
v 0.167333 -2.0 1.01
v -0.136325 -2.0 1.01
v -0.136325 -1.39382 1.01
v 0.165504 -0.743737 1.01
v -0.032057 -0.743737 1.01
v -0.032057 -0.787639 1.01
v -0.064984 -0.787639 1.01
v -0.064984 -0.743737 1.01
v -0.134496 -0.743737 1.01
v 0.073957 -0.650289 1.01
v 0.165504 -0.704636 1.01
v -0.134496 -0.707151 1.01
v -0.033772 -0.568127 1.01
v -0.064984 -0.568127 1.01
v -0.064984 -0.707151 1.01
v -0.669077 -0.023005 1.01
v -0.669077 -0.33581 1.01
v -0.669077 -0.524225 1.01
v -0.134496 -0.297395 1.01
v 0.117943 -0.092517 1.01
v 0.117943 -0.091317 1.01
v 0.107937 -0.097066 1.01
v 0.096979 -0.092343 1.01
v 0.098393 -0.102521 1.01
v -0.134496 -0.249663 1.01
v 0.075984 -0.092517 1.01
v -0.134496 -0.092517 1.01
v -0.134496 -0.052273 1.01
v 0.165504 -0.052273 1.01
v 0.165504 -0.103493 1.01
v -0.083277 -0.258295 1.01
v -0.083277 -0.259095 1.01
v -0.072812 -0.252519 1.01
v -0.061532 -0.257471 1.01
v -0.06264 -0.246233 1.01
v -0.039717 -0.257151 1.01
v 0.165504 0.580653 1.01
v 0.165504 0.54041 1.01
v -0.134496 0.646507 1.01
v -0.094252 0.668287 1.01
v -0.094252 0.667372 1.01
v -0.080719 0.670632 1.01
v -0.080474 0.664886 1.01
v -0.067499 0.674346 1.01
v 0.165504 0.756263 1.01
v -0.136325 1.250083 1.01
v -0.134496 0.69041 1.01
v 0.167333 1.250083 1.01
v 0.165504 0.800166 1.01
v -0.669077 1.250083 1.01
v 1.5 1.250083 1.01
v -0.067099 0.660741 1.01
v -1.2 1.8 1.01
v -1.203407 1.774118 1.01
v -1.213398 1.75 1.01
v -1.229289 1.729289 1.01
v -1.25 1.713398 1.01
v -1.274118 1.703407 1.01
v -1.3 1.7 1.01
v -1.325882 1.703407 1.01
v -1.35 1.713398 1.01
v -1.370711 1.729289 1.01
v -1.396593 1.825882 1.01
v -1.386603 1.85 1.01
v -1.229289 1.870711 1.01
v -1.213398 1.85 1.01
v -0.669077 2.0 1.01
v -1.203407 1.825882 1.01
v -1.386603 1.75 1.01
v -1.396593 1.774118 1.01
v -1.4 1.8 1.01
v -1.370711 1.870711 1.01
v -1.35 1.886603 1.01
v -1.325882 1.896592 1.01
v -1.3 1.9 1.01
v -1.274118 1.896592 1.01
v -1.25 1.886603 1.01
v 0.167333 2.0 1.01
v -0.136325 2.0 1.01
v 1.5 -0.85 0.2
v 1.5 -0.65 0.2
v 1.5 -1.35 0.2
v 1.5 -1.15 0.2
v 1.5 -0.35 0.2
v 1.5 -0.15 0.2
v 1.5 0.15 0.2
v 1.5 0.35 0.2
v 1.5 -1.65 0.2
v 1.5 0.65 0.2
v 1.5 0.85 0.2
v 1.5 1.15 0.2
v 1.5 1.65 0.2
v 1.5 1.35 0.2
v -1.2 1.8 0.99
v -1.203407 1.825882 0.99
v -1.213398 1.85 0.99
v -1.229289 1.870711 0.99
v -1.25 1.886603 0.99
v -1.274118 1.896592 0.99
v -1.3 1.9 0.99
v -1.325882 1.896592 0.99
v -1.35 1.886603 0.99
v -1.370711 1.870711 0.99
v -1.386603 1.85 0.99
v -1.396593 1.825882 0.99
v -1.4 1.8 0.99
v -1.396593 1.774118 0.99
v -1.386603 1.75 0.99
v -1.370711 1.729289 0.99
v -1.35 1.713398 0.99
v -1.325882 1.703407 0.99
v -1.3 1.7 0.99
v -1.274118 1.703407 0.99
v -1.25 1.713398 0.99
v -1.229289 1.729289 0.99
v -1.213398 1.75 0.99
v -1.203407 1.774118 0.99
v -1.3 1.8 0.99
v 0.165504 -0.704636 1.0
v 0.165504 -0.743737 1.0
newmtl 3
Ka 0.6666666666666666 0.6666666666666666 0.6666666666666666
Kd 0.6666666666666666 0.6666666666666666 0.6666666666666666
Ks 0.3333333333333333 0.3333333333333333 0.3333333333333333
d 0.0
endmtl
v -0.032057 -0.743737 1.0
v -0.032057 -0.787639 1.0
v -0.064984 -0.787639 1.0
v -0.064984 -0.743737 1.0
v -0.134496 -0.743737 1.0
v -0.134496 -0.707151 1.0
v -0.064984 -0.707151 1.0
v -0.064984 -0.568127 1.0
v -0.033772 -0.568127 1.0
v 0.073957 -0.650289 1.0
v 0.110454 -0.707151 1.0
v -0.032057 -0.707151 1.0
v 0.037031 -0.662084 1.0
v -0.032057 -0.6106 1.0
v -0.032057 -0.6106 1.01
v 0.037031 -0.662084 1.01
v 0.110454 -0.707151 1.01
v -0.032057 -0.707151 1.01
v -0.134496 -0.480322 1.0
v -0.134496 -0.443737 1.0
v 0.120344 -0.443737 1.0
v 0.085016 -0.374225 1.0
v 0.08637 -0.379161 1.0
v 0.101412 -0.415397 1.0
v 0.121601 -0.374225 1.0
v 0.141035 -0.422417 1.0
v 0.169162 -0.466088 1.0
v 0.169162 -0.480322 1.0
v 0.165504 -0.297395 1.0
v -0.134496 -0.297395 1.0
v -0.134496 -0.249663 1.0
v 0.098393 -0.102521 1.0
v 0.117943 -0.092517 1.0
v 0.107937 -0.097066 1.0
v 0.117943 -0.091317 1.0
v 0.075984 -0.092517 1.0
v 0.096979 -0.092343 1.0
v -0.134496 -0.092517 1.0
v -0.134496 -0.052273 1.0
v 0.165504 -0.052273 1.0
v 0.165504 -0.103493 1.0
v -0.06264 -0.246233 1.0
v -0.083277 -0.258295 1.0
v -0.072812 -0.252519 1.0
v -0.083277 -0.259095 1.0
v -0.039717 -0.257151 1.0
v -0.061532 -0.257471 1.0
v 0.165504 -0.257151 1.0
v 0.01196 0.291629 1.0
v -0.026203 0.288098 1.0
v -0.058622 0.277956 1.0
v -0.086628 0.261337 1.0
v -0.108937 0.239787 1.0
v -0.124568 0.215246 1.0
v -0.134263 0.187056 1.0
v -0.138155 0.150318 1.0
v 0.169162 0.145459 1.0
v 0.166663 0.176285 1.0
v 0.15819 0.206668 1.0
v 0.141927 0.235221 1.0
v 0.117801 0.25963 1.0
v 0.089875 0.276458 1.0
v 0.055171 0.287553 1.0
v 0.019048 0.006263 1.0
v 0.049099 0.008385 1.0
v 0.082546 0.016889 1.0
v 0.112503 0.032529 1.0
v 0.137559 0.054787 1.0
v 0.155101 0.080873 1.0
v 0.165194 0.109234 1.0
v -0.13456 0.114226 1.0
v -0.124999 0.085476 1.0
v -0.109773 0.060626 1.0
v -0.086335 0.037547 1.0
v -0.058753 0.021145 1.0
v -0.024339 0.010287 1.0
v 0.015218 0.251385 1.0
v -0.019347 0.248151 1.0
v -0.046426 0.239602 1.0
v -0.068034 0.226759 1.0
v -0.084843 0.210589 1.0
v -0.096099 0.192944 1.0
v -0.103104 0.172017 1.0
v -0.105228 0.150204 1.0
v -0.102404 0.123232 1.0
v -0.095305 0.102444 1.0
v -0.0841 0.084916 1.0
v -0.070008 0.071073 1.0
v -0.050829 0.059268 1.0
v -0.022344 0.049957 1.0
v 0.014646 0.046507 1.0
v 0.050102 0.049473 1.0
v 0.077174 0.057125 1.0
v 0.099665 0.069645 1.0
v 0.115274 0.084336 1.0
v 0.126235 0.101028 1.0
v 0.133278 0.120843 1.0
v 0.136236 0.147689 1.0
v 0.133057 0.174508 1.0
v 0.125406 0.194653 1.0
v 0.113025 0.21264 1.0
v 0.093394 0.229927 1.0
v 0.069905 0.242213 1.0
v 0.037377 0.250105 1.0
v 0.015218 0.251385 1.01
v 0.037377 0.250105 1.01
v 0.069905 0.242213 1.01
v 0.093394 0.229927 1.01
v 0.113025 0.21264 1.01
v 0.125406 0.194653 1.01
v 0.133057 0.174508 1.01
v 0.136236 0.147689 1.01
v 0.133278 0.120843 1.01
v 0.126235 0.101028 1.01
v 0.115274 0.084336 1.01
v 0.099665 0.069645 1.01
v 0.077174 0.057125 1.01
v 0.050102 0.049473 1.01
v 0.014646 0.046507 1.01
v -0.022344 0.049957 1.01
v -0.050829 0.059268 1.01
v -0.070008 0.071073 1.01
v -0.0841 0.084916 1.01
v -0.095305 0.102444 1.01
v -0.102404 0.123232 1.01
v -0.105228 0.150204 1.01
v -0.103104 0.172017 1.01
v -0.096099 0.192944 1.01
v -0.084843 0.210589 1.01
v -0.068034 0.226759 1.01
v -0.046426 0.239602 1.01
v -0.019347 0.248151 1.01
v -0.122606 0.511141 1.0
v -0.078703 0.511141 1.0
v -0.105228 0.431168 1.0
v -0.103101 0.453677 1.0
v -0.09218 0.48921 1.0
v -0.060468 0.368458 1.0
v -0.072301 0.369727 1.0
v -0.081658 0.373181 1.0
v -0.087606 0.377153 1.0
v -0.093493 0.3834 1.0
v -0.099433 0.39416 1.0
v -0.103549 0.409384 1.0
v 0.003557 0.437799 1.0
v -0.019776 0.394266 1.0
v -0.020122 0.393736 1.0
v -0.030864 0.380833 1.0
v -0.041047 0.373286 1.0
v -0.049626 0.369869 1.0
v 0.088675 0.511141 1.0
v 0.073439 0.509655 1.0
v 0.057677 0.504467 1.0
v 0.0435 0.49571 1.0
v 0.029785 0.481352 1.0
v 0.169162 0.405044 1.0
v 0.165928 0.438208 1.0
v 0.157659 0.463409 1.0
v 0.147967 0.480278 1.0
v 0.136789 0.493161 1.0
v 0.123763 0.50259 1.0
v 0.109406 0.508453 1.0
v 0.167736 0.371739 1.0
v 0.160931 0.33919 1.0
v 0.117028 0.33919 1.0
v 0.136236 0.408245 1.0
v 0.134935 0.387517 1.0
v 0.128805 0.361871 1.0
v 0.092619 0.470897 1.0
v 0.101594 0.469982 1.0
v 0.109655 0.467202 1.0
v 0.116016 0.46306 1.0
v 0.122721 0.456182 1.0
v 0.129312 0.44495 1.0
v 0.134337 0.429178 1.0
v 0.031739 0.407159 1.0
v 0.046515 0.435043 1.0
v 0.05739 0.45215 1.0
v 0.065458 0.46135 1.0
v 0.072899 0.466423 1.0
v 0.081172 0.46958 1.0
v -0.057152 0.328214 1.0
v -0.04062 0.330076 1.0
v -0.025147 0.33574 1.0
v -0.010109 0.345704 1.0
v 0.005925 0.362979 1.0
v -0.138155 0.435627 1.0
v -0.135827 0.4042 1.0
v -0.127523 0.374797 1.0
v -0.116748 0.355974 1.0
v -0.105913 0.344461 1.0
v -0.093184 0.336003 1.0
v -0.078178 0.330562 1.0
v -0.127202 0.501526 1.0
v -0.134176 0.474237 1.0
v 0.165504 0.580653 1.0
v 0.165504 0.54041 1.0
v -0.134496 0.646507 1.0
v -0.134496 0.69041 1.0
v 0.165504 0.800166 1.0
v 0.165504 0.756263 1.0
v -0.067499 0.674346 1.0
v -0.094252 0.668287 1.0
v -0.080719 0.670632 1.0
v -0.094252 0.667372 1.0
v -0.067099 0.660741 1.0
v -0.080474 0.664886 1.0
v -1.51 1.65 0.2
v -1.51 1.35 0.2
v -1.51 1.35 0.0
v -1.21 1.35 0.0
v -1.21 1.65 0.0
v -1.51 1.65 0.0
v -1.171177 1.355111 0.0
v -1.135 1.370096 0.0
v -1.103934 1.393934 0.0
v -1.080096 1.425 0.0
v -1.065111 1.461177 0.0
v -1.06 1.5 0.0
v -1.065111 1.538823 0.0
v -1.080096 1.575 0.0
v -1.103934 1.606066 0.0
v -1.135 1.629904 0.0
v -1.171177 1.644889 0.0
v -1.51 1.15 0.2
v -1.51 0.85 0.2
v -1.51 0.85 0.0
v -1.21 0.85 0.0
v -1.21 1.15 0.0
v -1.51 1.15 0.0
v -1.171177 0.855111 0.0
v -1.135 0.870096 0.0
v -1.103934 0.893934 0.0
v -1.080096 0.925 0.0
v -1.065111 0.961177 0.0
v -1.06 1.0 0.0
v -1.065111 1.038823 0.0
v -1.080096 1.075 0.0
v -1.103934 1.106066 0.0
v -1.135 1.129904 0.0
v -1.171177 1.144889 0.0
v -1.51 0.65 0.2
v -1.51 0.35 0.2
v -1.51 0.35 0.0
v -1.21 0.35 0.0
v -1.21 0.65 0.0
v -1.51 0.65 0.0
v -1.171177 0.355111 0.0
v -1.135 0.370096 0.0
v -1.103934 0.393934 0.0
v -1.080096 0.425 0.0
v -1.065111 0.461177 0.0
v -1.06 0.5 0.0
v -1.065111 0.538823 0.0
v -1.080096 0.575 0.0
v -1.103934 0.606066 0.0
v -1.135 0.629904 0.0
v -1.171177 0.644889 0.0
v -1.51 0.15 0.2
v -1.51 -0.15 0.2
v -1.51 -0.15 0.0
v -1.21 -0.15 0.0
v -1.21 0.15 0.0
v -1.51 0.15 0.0
v -1.171177 -0.144889 0.0
v -1.135 -0.129904 0.0
v -1.103934 -0.106066 0.0
v -1.080096 -0.075 0.0
v -1.065111 -0.038823 0.0
v -1.06 0.0 0.0
v -1.065111 0.038823 0.0
v -1.080096 0.075 0.0
v -1.103934 0.106066 0.0
v -1.135 0.129904 0.0
v -1.171177 0.144889 0.0
v -1.51 -0.35 0.2
v -1.51 -0.65 0.2
v -1.51 -0.65 0.0
v -1.21 -0.65 0.0
v -1.21 -0.35 0.0
v -1.51 -0.35 0.0
v -1.171177 -0.644889 0.0
v -1.135 -0.629904 0.0
v -1.103934 -0.606066 0.0
v -1.080096 -0.575 0.0
v -1.065111 -0.538823 0.0
v -1.06 -0.5 0.0
v -1.065111 -0.461177 0.0
v -1.080096 -0.425 0.0
v -1.103934 -0.393934 0.0
v -1.135 -0.370096 0.0
v -1.171177 -0.355111 0.0
v -1.51 -0.85 0.2
v -1.51 -1.15 0.2
v -1.51 -1.15 0.0
v -1.21 -1.15 0.0
v -1.21 -0.85 0.0
v -1.51 -0.85 0.0
v -1.171177 -1.144889 0.0
v -1.135 -1.129904 0.0
v -1.103934 -1.106066 0.0
v -1.080096 -1.075 0.0
v -1.065111 -1.038823 0.0
v -1.06 -1.0 0.0
v -1.065111 -0.961177 0.0
v -1.080096 -0.925 0.0
v -1.103934 -0.893934 0.0
v -1.135 -0.870096 0.0
v -1.171177 -0.855111 0.0
v -1.51 -1.35 0.2
v -1.51 -1.65 0.2
v -1.51 -1.65 0.0
v -1.21 -1.65 0.0
v -1.21 -1.35 0.0
v -1.51 -1.35 0.0
v -1.171177 -1.644889 0.0
v -1.135 -1.629904 0.0
v -1.103934 -1.606066 0.0
v -1.080096 -1.575 0.0
v -1.065111 -1.538823 0.0
v -1.06 -1.5 0.0
v -1.065111 -1.461177 0.0
v -1.080096 -1.425 0.0
v -1.103934 -1.393934 0.0
v -1.135 -1.370096 0.0
v -1.171177 -1.355111 0.0
v 1.51 1.35 0.2
v 1.51 1.65 0.2
v 1.51 1.65 0.0
v 1.51 1.35 0.0
v 1.21 1.65 0.0
v 1.171177 1.644889 0.0
v 1.135 1.629904 0.0
v 1.103934 1.606066 0.0
v 1.080096 1.575 0.0
v 1.065111 1.538823 0.0
v 1.06 1.5 0.0
v 1.065111 1.461177 0.0
v 1.080096 1.425 0.0
v 1.103934 1.393934 0.0
v 1.135 1.370096 0.0
v 1.171177 1.355111 0.0
v 1.21 1.35 0.0
v 1.51 0.85 0.2
v 1.51 1.15 0.2
v 1.51 1.15 0.0
v 1.51 0.85 0.0
v 1.21 1.15 0.0
v 1.171177 1.144889 0.0
v 1.135 1.129904 0.0
v 1.103934 1.106066 0.0
v 1.080096 1.075 0.0
v 1.065111 1.038823 0.0
v 1.06 1.0 0.0
v 1.065111 0.961177 0.0
v 1.080096 0.925 0.0
v 1.103934 0.893934 0.0
v 1.135 0.870096 0.0
v 1.171177 0.855111 0.0
v 1.21 0.85 0.0
v 1.51 0.35 0.2
v 1.51 0.65 0.2
v 1.51 0.65 0.0
v 1.51 0.35 0.0
v 1.21 0.65 0.0
v 1.171177 0.644889 0.0
v 1.135 0.629904 0.0
v 1.103934 0.606066 0.0
v 1.080096 0.575 0.0
v 1.065111 0.538823 0.0
v 1.06 0.5 0.0
v 1.065111 0.461177 0.0
v 1.080096 0.425 0.0
v 1.103934 0.393934 0.0
v 1.135 0.370096 0.0
v 1.171177 0.355111 0.0
v 1.21 0.35 0.0
v 1.51 -0.15 0.2
v 1.51 0.15 0.2
v 1.51 0.15 0.0
v 1.51 -0.15 0.0
v 1.21 0.15 0.0
v 1.171177 0.144889 0.0
v 1.135 0.129904 0.0
v 1.103934 0.106066 0.0
v 1.080096 0.075 0.0
v 1.065111 0.038823 0.0
v 1.06 0.0 0.0
v 1.065111 -0.038823 0.0
v 1.080096 -0.075 0.0
v 1.103934 -0.106066 0.0
v 1.135 -0.129904 0.0
v 1.171177 -0.144889 0.0
v 1.21 -0.15 0.0
v 1.51 -0.65 0.2
v 1.51 -0.35 0.2
v 1.51 -0.35 0.0
v 1.51 -0.65 0.0
v 1.21 -0.35 0.0
v 1.171177 -0.355111 0.0
v 1.135 -0.370096 0.0
v 1.103934 -0.393934 0.0
v 1.080096 -0.425 0.0
v 1.065111 -0.461177 0.0
v 1.06 -0.5 0.0
v 1.065111 -0.538823 0.0
v 1.080096 -0.575 0.0
v 1.103934 -0.606066 0.0
v 1.135 -0.629904 0.0
v 1.171177 -0.644889 0.0
v 1.21 -0.65 0.0
v 1.51 -1.15 0.2
v 1.51 -0.85 0.2
v 1.51 -0.85 0.0
v 1.51 -1.15 0.0
v 1.21 -0.85 0.0
v 1.171177 -0.855111 0.0
v 1.135 -0.870096 0.0
v 1.103934 -0.893934 0.0
v 1.080096 -0.925 0.0
v 1.065111 -0.961177 0.0
v 1.06 -1.0 0.0
v 1.065111 -1.038823 0.0
v 1.080096 -1.075 0.0
v 1.103934 -1.106066 0.0
v 1.135 -1.129904 0.0
v 1.171177 -1.144889 0.0
v 1.21 -1.15 0.0
v 1.51 -1.65 0.2
v 1.51 -1.35 0.2
v 1.51 -1.35 0.0
v 1.51 -1.65 0.0
v 1.21 -1.35 0.0
v 1.171177 -1.355111 0.0
v 1.135 -1.370096 0.0
v 1.103934 -1.393934 0.0
v 1.080096 -1.425 0.0
v 1.065111 -1.461177 0.0
v 1.06 -1.5 0.0
v 1.065111 -1.538823 0.0
v 1.080096 -1.575 0.0
v 1.103934 -1.606066 0.0
v 1.135 -1.629904 0.0
v 1.171177 -1.644889 0.0
v 1.21 -1.65 0.0
v 0.79 -2.01 0.2
v 0.79 2.01 0.2
v -0.79 2.01 0.2
v -0.79 -2.01 0.2
v 0.59 2.01 0.2
v 0.33 2.01 0.2
v 0.13 2.01 0.2
v -0.13 2.01 0.2
v -0.33 2.01 0.2
v -0.59 2.01 0.2
v -0.59 -2.01 0.2
v -0.33 -2.01 0.2
v -0.13 -2.01 0.2
v 0.13 -2.01 0.2
v 0.33 -2.01 0.2
v 0.59 -2.01 0.2
v 0.077914 0.254698 0.01
v -0.072086 0.313235 0.01
v -0.072086 0.291284 0.01
v -0.030013 0.276107 0.01
v -0.030013 0.21414 0.01
v -0.072086 0.19982 0.01
v -0.072086 0.177869 0.01
v 0.077914 0.234576 0.01
v -0.01355 0.219199 0.01
v 0.049103 0.241579 0.01
v 0.054305 0.243023 0.01
v 0.059621 0.24398 0.01
v 0.059621 0.244466 0.01
v 0.054321 0.245445 0.01
v -0.01355 0.269361 0.01
v 0.049103 0.246781 0.01
v -0.01355 0.219199 0.0
v -0.01355 0.269361 0.0
v 0.049103 0.241579 0.0
v 0.054305 0.243023 0.0
v 0.059621 0.24398 0.0
v 0.059621 0.244466 0.0
v 0.054321 0.245445 0.0
v 0.049103 0.246781 0.0
v -0.072086 0.086949 0.01
v -0.072086 0.046162 0.01
v 0.077914 0.046162 0.01
v 0.077914 0.088492 0.01
v 0.0048 0.166894 0.01
v 0.012147 0.166612 0.01
v 0.027777 0.163801 0.01
v 0.042411 0.15752 0.01
v 0.054353 0.148418 0.01
v 0.059769 0.142578 0.01
v 0.069436 0.127721 0.01
v 0.075597 0.110162 0.01
v -0.070466 0.105509 0.01
v -0.065314 0.122793 0.01
v -0.056213 0.138455 0.01
v -0.044391 0.150801 0.01
v -0.030975 0.159403 0.01
v -0.015274 0.164789 0.01
v 0.004371 0.146772 0.01
v 0.019299 0.145498 0.01
v 0.031143 0.141996 0.01
v 0.04035 0.136833 0.01
v 0.048102 0.129558 0.01
v 0.055194 0.118616 0.01
v 0.059543 0.106249 0.01
v 0.06145 0.088406 0.01
v 0.06145 0.066284 0.01
v -0.055623 0.066284 0.01
v -0.055623 0.087578 0.01
v -0.054155 0.103378 0.01
v -0.050209 0.116027 0.01
v -0.044233 0.126131 0.01
v -0.035975 0.134525 0.01
v -0.025604 0.14094 0.01
v -0.013822 0.144886 0.01
v 0.06145 0.088406 0.0
v 0.06145 0.066284 0.0
v 0.059543 0.106249 0.0
v 0.055194 0.118616 0.0
v 0.048102 0.129558 0.0
v 0.04035 0.136833 0.0
v 0.031143 0.141996 0.0
v 0.019299 0.145498 0.0
v 0.004371 0.146772 0.0
v -0.013822 0.144886 0.0
v -0.025604 0.14094 0.0
v -0.035975 0.134525 0.0
v -0.044233 0.126131 0.0
v -0.050209 0.116027 0.0
v -0.054155 0.103378 0.0
v -0.055623 0.087578 0.0
v -0.055623 0.066284 0.0
v -0.055623 0.016894 0.01
v -0.072086 0.016894 0.01
v -0.072086 -0.063594 0.01
v 0.077914 -0.063594 0.01
v 0.077914 0.013235 0.01
v 0.06145 0.013235 0.01
v 0.06145 -0.043472 0.01
v 0.01206 -0.043472 0.01
v 0.01206 0.009576 0.01
v -0.004403 0.009576 0.01
v -0.004403 -0.043472 0.01
v -0.055623 -0.043472 0.01
v -0.047848 -0.092863 0.01
v -0.064312 -0.092863 0.01
v -0.070877 -0.108852 0.01
v -0.073916 -0.134135 0.01
v -0.073845 -0.130034 0.01
v 8.4E-5 -0.204448 0.01
v -0.016942 -0.203058 0.01
v -0.032852 -0.19861 0.01
v -0.047167 -0.190683 0.01
v -0.059096 -0.17946 0.01
v -0.066968 -0.167237 0.01
v -0.071995 -0.152623 0.01
v 0.079743 -0.128162 0.01
v 0.078331 -0.144241 0.01
v 0.07333 -0.16069 0.01
v 0.065092 -0.174699 0.01
v 0.052463 -0.187737 0.01
v 0.03843 -0.196534 0.01
v 0.021377 -0.202298 0.01
v 0.073798 -0.092863 0.01
v 0.078504 -0.110205 0.01
v 0.053676 -0.092863 0.01
v 0.06328 -0.12799 0.01
v 0.060911 -0.109758 0.01
v 0.001313 -0.184326 0.01
v 0.012571 -0.183662 0.01
v 0.028812 -0.179693 0.01
v 0.040414 -0.173572 0.01
v 0.050463 -0.164556 0.01
v 0.057588 -0.153928 0.01
v 0.061625 -0.142759 0.01
v -0.057452 -0.131363 0.01
v -0.0559 -0.145283 0.01
v -0.051845 -0.156315 0.01
v -0.045593 -0.165527 0.01
v -0.038234 -0.172502 0.01
v -0.027816 -0.178738 0.01
v -0.014914 -0.18281 0.01
v -0.049338 -0.095551 0.01
v -0.055242 -0.111452 0.01
v -0.055623 -0.217253 0.01
v -0.072086 -0.217253 0.01
v -0.072086 -0.294082 0.01
v 0.077914 -0.294082 0.01
v 0.077914 -0.27396 0.01
v -0.055623 -0.27396 0.01
usemtl 1
f 1// 2// 3//
f 4// 5// 6//
f 6// 5// 3//
f 6// 3// 7//
f 7// 3// 8//
f 7// 8// 9//
f 9// 8// 10//
f 11// 8// 12//
f 12// 8// 3//
f 12// 3// 13//
f 13// 3// 2//
f 14// 15// 16//
f 16// 17// 14//
f 14// 17// 18//
f 14// 18// 1//
f 15// 19// 20//
f 20// 19// 21//
f 22// 23// 24//
f 25// 26// 27//
f 27// 26// 15//
f 27// 15// 28//
f 28// 15// 20//
f 28// 20// 29//
f 29// 20// 22//
f 29// 22// 30//
f 30// 22// 24//
f 31// 32// 33//
f 33// 32// 34//
f 33// 34// 35//
f 35// 36// 33//
f 33// 36// 37//
f 33// 37// 38//
f 38// 39// 33//
f 33// 39// 40//
f 33// 40// 41//
f 42// 43// 44//
f 44// 43// 45//
f 41// 46// 33//
f 33// 46// 43//
f 33// 43// 47//
f 47// 43// 42//
f 31// 33// 48//
f 48// 33// 16//
f 48// 16// 49//
f 49// 16// 15//
f 49// 15// 50//
f 30// 11// 29//
f 29// 11// 12//
f 29// 12// 51//
f 51// 12// 52//
f 51// 52// 53//
f 54// 55// 15//
f 15// 55// 56//
f 15// 56// 57//
f 53// 58// 51//
f 51// 58// 59//
f 51// 59// 26//
f 26// 59// 60//
f 26// 60// 61//
f 61// 62// 26//
f 26// 62// 63//
f 26// 63// 15//
f 15// 63// 64//
f 15// 64// 54//
f 57// 65// 15//
f 15// 65// 66//
f 15// 66// 50//
f 67// 68// 14//
f 14// 68// 69//
f 14// 69// 15//
f 15// 69// 70//
f 71// 70// 72//
f 73// 74// 75//
f 75// 74// 76//
f 15// 77// 78//
f 79// 80// 81//
f 81// 80// 15//
f 81// 15// 76//
f 82// 83// 77//
f 77// 83// 84//
f 85// 71// 86//
f 86// 71// 72//
f 86// 72// 87//
f 87// 72// 88//
f 70// 71// 15//
f 15// 71// 89//
f 15// 89// 90//
f 91// 92// 93//
f 93// 92// 94//
f 93// 94// 95//
f 90// 96// 15//
f 15// 96// 97//
f 15// 97// 77//
f 77// 97// 98//
f 77// 98// 82//
f 84// 99// 77//
f 77// 99// 100//
f 77// 100// 93//
f 93// 100// 101//
f 93// 101// 91//
f 76// 15// 75//
f 75// 15// 78//
f 75// 78// 102//
f 102// 78// 103//
f 102// 103// 104//
f 105// 106// 104//
f 104// 106// 107//
f 104// 107// 102//
f 102// 107// 93//
f 95// 108// 93//
f 93// 108// 109//
f 93// 109// 102//
f 102// 109// 71//
f 3// 110// 111//
f 111// 110// 112//
f 1// 3// 14//
f 14// 3// 111//
f 14// 111// 113//
f 114// 115// 85//
f 85// 115// 116//
f 85// 116// 71//
f 71// 116// 67//
f 71// 67// 102//
f 102// 67// 14//
f 102// 14// 117//
f 117// 14// 113//
f 117// 113// 118//
f 118// 113// 119//
usemtl 2
f 120// 121// 122//
f 122// 121// 123//
f 124// 125// 126//
f 126// 125// 127//
f 128// 129// 130//
f 130// 129// 131//
f 132// 133// 134//
f 135// 136// 134//
f 134// 136// 137//
f 134// 137// 138//
f 139// 140// 141//
f 135// 134// 142//
f 142// 134// 143//
f 142// 143// 144//
f 140// 145// 141//
f 141// 145// 146//
f 141// 146// 147//
f 147// 146// 148//
f 149// 150// 151//
f 152// 153// 154//
f 154// 153// 155//
f 156// 157// 158//
f 158// 157// 159//
f 160// 134// 161//
f 161// 134// 162//
f 161// 162// 163//
f 163// 162// 159//
f 163// 159// 164//
f 164// 159// 157//
f 165// 166// 167//
f 167// 166// 168//
f 167// 168// 169//
f 170// 171// 172//
f 172// 171// 173//
f 138// 174// 134//
f 134// 174// 175//
f 134// 175// 139//
f 176// 177// 178//
f 178// 177// 179//
f 178// 179// 180//
f 181// 182// 183//
f 183// 182// 184//
f 183// 184// 185//
f 185// 184// 154//
f 185// 154// 186//
f 186// 154// 155//
f 187// 188// 189//
f 189// 188// 190//
f 189// 190// 191//
f 191// 190// 157//
f 191// 157// 192//
f 192// 157// 156//
f 154// 193// 152//
f 152// 193// 194//
f 152// 194// 195//
f 195// 194// 196//
f 195// 196// 134//
f 134// 196// 197//
f 134// 197// 162//
f 198// 199// 168//
f 168// 199// 200//
f 168// 200// 169//
f 160// 198// 134//
f 134// 198// 168//
f 134// 168// 172//
f 172// 168// 201//
f 172// 201// 170//
f 173// 202// 172//
f 172// 202// 203//
f 172// 203// 204//
f 204// 203// 205//
f 204// 205// 206//
f 207// 208// 209//
f 209// 208// 210//
f 209// 210// 211//
f 211// 210// 212//
f 211// 212// 146//
f 146// 212// 213//
f 146// 213// 148//
f 214// 215// 216//
f 216// 215// 217//
f 216// 217// 218//
f 218// 217// 151//
f 218// 151// 219//
f 219// 151// 150//
f 139// 141// 134//
f 134// 141// 220//
f 134// 220// 221//
f 149// 151// 221//
f 221// 151// 222//
f 221// 222// 134//
f 134// 222// 223//
f 134// 223// 132//
f 224// 225// 226//
f 226// 225// 227//
f 226// 227// 228//
f 228// 227// 178//
f 228// 178// 229//
f 229// 178// 180//
f 230// 231// 134//
f 134// 231// 232//
f 134// 232// 195//
f 133// 233// 134//
f 134// 233// 177//
f 134// 177// 230//
f 230// 177// 176//
f 234// 235// 236//
f 236// 235// 237//
f 236// 237// 238//
f 238// 237// 239//
f 238// 239// 167//
f 167// 239// 240//
f 167// 240// 165//
f 241// 242// 243//
f 243// 242// 244//
f 245// 246// 247//
f 247// 246// 248//
f 249// 250// 251//
f 251// 250// 252//
f 253// 254// 255//
f 256// 257// 258//
f 259// 260// 261//
f 262// 263// 264//
f 257// 265// 258//
f 258// 265// 266//
f 258// 266// 267//
f 267// 268// 258//
f 258// 268// 269//
f 258// 269// 270//
f 256// 258// 271//
f 271// 258// 272//
f 271// 272// 273//
f 274// 275// 276//
f 255// 254// 260//
f 260// 254// 277//
f 260// 277// 261//
f 278// 279// 270//
f 280// 281// 282//
f 283// 284// 269//
f 284// 285// 269//
f 269// 285// 286//
f 269// 286// 270//
f 270// 286// 287//
f 288// 289// 290//
f 290// 289// 291//
f 290// 291// 255//
f 255// 291// 292//
f 255// 292// 253//
f 276// 275// 293//
f 294// 295// 296//
f 297// 298// 299//
f 299// 298// 300//
f 294// 278// 295//
f 295// 278// 270//
f 295// 270// 301//
f 301// 270// 287//
f 301// 287// 261//
f 261// 287// 302//
f 261// 302// 259//
f 264// 263// 281//
f 281// 263// 303//
f 281// 303// 282//
f 304// 305// 306//
f 306// 305// 307//
f 306// 307// 308//
f 283// 269// 275//
f 275// 269// 309//
f 275// 309// 293//
f 296// 310// 294//
f 294// 310// 299//
f 294// 299// 311//
f 311// 299// 300//
f 312// 313// 314//
f 314// 313// 315//
f 314// 315// 264//
f 264// 315// 316//
f 264// 316// 262//
f 317// 318// 319//
f 320// 321// 279//
f 279// 321// 322//
f 279// 322// 270//
f 270// 322// 323//
f 270// 323// 282//
f 282// 323// 324//
f 282// 324// 280//
f 325// 326// 327//
f 327// 326// 328//
f 329// 330// 331//
f 318// 332// 319//
f 319// 332// 270//
f 319// 270// 333//
f 333// 270// 282//
f 332// 334// 270//
f 270// 334// 335//
f 270// 335// 336//
f 274// 276// 337//
f 337// 276// 338//
f 337// 338// 339//
f 339// 338// 340//
f 339// 340// 341//
f 342// 343// 344//
f 344// 343// 345//
f 344// 345// 297//
f 297// 345// 346//
f 297// 346// 298//
f 320// 347// 321//
f 321// 347// 327//
f 321// 327// 348//
f 348// 327// 328//
f 317// 319// 331//
f 331// 319// 349//
f 331// 349// 329//
f 270// 350// 351//
f 351// 350// 352//
f 351// 352// 353//
f 308// 307// 330//
f 330// 307// 354//
f 330// 354// 331//
f 336// 355// 270//
f 270// 355// 356//
f 270// 356// 350//
f 357// 358// 359//
f 359// 358// 360//
f 359// 360// 325//
f 325// 360// 361//
f 325// 361// 326//
f 143// 134// 362//
f 362// 134// 363//
f 362// 363// 364//
f 364// 363// 365//
f 366// 247// 248//
f 367// 368// 364//
f 248// 367// 366//
f 366// 367// 364//
f 366// 364// 369//
f 369// 364// 365//
f 369// 365// 244//
f 244// 365// 243//
f 270// 351// 370//
f 370// 351// 364//
f 370// 364// 371//
f 371// 364// 368//
f 371// 368// 252//
f 252// 368// 251//
f 272// 258// 372//
f 372// 258// 373//
f 374// 375// 376//
f 122// 123// 377//
f 377// 123// 378//
f 379// 126// 127//
f 127// 374// 379//
f 379// 374// 376//
f 379// 376// 378//
f 378// 376// 372//
f 378// 372// 377//
f 377// 372// 373//
f 172// 204// 380//
f 380// 204// 376//
f 380// 376// 381//
f 381// 376// 375//
f 381// 375// 131//
f 131// 375// 130//
f 305// 304// 382//
f 382// 304// 383//
f 313// 312// 384//
f 384// 312// 385//
f 358// 357// 386//
f 386// 357// 387//
f 388// 343// 342//
f 342// 389// 388//
f 388// 389// 390//
f 388// 390// 387//
f 387// 390// 391//
f 387// 391// 386//
f 386// 391// 392//
f 386// 392// 385//
f 385// 392// 393//
f 385// 393// 384//
f 384// 393// 394//
f 384// 394// 383//
f 383// 394// 395//
f 383// 395// 382//
f 382// 395// 396//
f 382// 396// 397//
f 397// 396// 364//
f 397// 364// 353//
f 353// 364// 351//
f 289// 288// 398//
f 398// 288// 399//
f 400// 372// 399//
f 399// 372// 390//
f 399// 390// 398//
f 398// 390// 389//
f 273// 272// 401//
f 401// 272// 372//
f 401// 372// 402//
f 402// 372// 400//
f 402// 400// 341//
f 341// 400// 339//
f 403// 404// 405//
f 406// 407// 408//
f 372// 409// 410//
f 411// 412// 413//
f 414// 415// 416//
f 416// 415// 417//
f 418// 419// 420//
f 421// 422// 423//
f 421// 423// 424//
f 419// 425// 420//
f 420// 425// 426//
f 420// 426// 427//
f 422// 428// 423//
f 423// 428// 429//
f 423// 429// 430//
f 427// 431// 420//
f 420// 431// 432//
f 420// 432// 423//
f 423// 432// 433//
f 423// 433// 424//
f 418// 420// 434//
f 434// 420// 435//
f 434// 435// 436//
f 437// 438// 439//
f 438// 440// 439//
f 439// 440// 441//
f 439// 441// 442//
f 416// 443// 414//
f 414// 443// 444//
f 414// 444// 445//
f 446// 447// 439//
f 439// 447// 448//
f 439// 448// 437//
f 445// 449// 414//
f 414// 449// 450//
f 414// 450// 451//
f 413// 412// 452//
f 453// 454// 405//
f 455// 456// 457//
f 457// 456// 458//
f 412// 459// 452//
f 452// 459// 457//
f 452// 457// 460//
f 460// 457// 458//
f 460// 458// 453//
f 454// 461// 405//
f 405// 461// 462//
f 405// 462// 463//
f 463// 462// 464//
f 463// 464// 408//
f 465// 466// 467//
f 467// 466// 468//
f 469// 470// 471//
f 471// 470// 472//
f 473// 474// 468//
f 468// 474// 475//
f 468// 475// 476//
f 473// 468// 477//
f 477// 468// 478//
f 477// 478// 479//
f 479// 478// 480//
f 479// 480// 481//
f 472// 482// 471//
f 471// 482// 483//
f 471// 483// 484//
f 480// 485// 481//
f 481// 485// 486//
f 481// 486// 487//
f 487// 488// 481//
f 481// 488// 489//
f 481// 489// 490//
f 490// 491// 481//
f 481// 491// 492//
f 481// 492// 493//
f 493// 492// 494//
f 493// 494// 495//
f 496// 497// 498//
f 498// 497// 499//
f 498// 499// 467//
f 467// 499// 500//
f 467// 500// 465//
f 436// 435// 442//
f 442// 435// 501//
f 442// 501// 439//
f 439// 501// 502//
f 439// 502// 503//
f 451// 446// 414//
f 414// 446// 439//
f 414// 439// 504//
f 504// 439// 503//
f 498// 415// 496//
f 496// 415// 414//
f 496// 414// 505//
f 505// 414// 506//
f 507// 508// 504//
f 509// 510// 414//
f 510// 511// 414//
f 414// 511// 512//
f 414// 512// 506//
f 508// 513// 504//
f 504// 513// 514//
f 504// 514// 414//
f 414// 514// 515//
f 414// 515// 509//
f 507// 504// 516//
f 516// 504// 517//
f 516// 517// 518//
f 518// 517// 519//
f 518// 519// 520//
f 521// 522// 523//
f 524// 525// 526//
f 523// 522// 520//
f 520// 522// 527//
f 520// 527// 528//
f 528// 529// 520//
f 520// 529// 530//
f 520// 530// 518//
f 524// 526// 523//
f 523// 526// 531//
f 523// 531// 521//
f 484// 532// 471//
f 471// 532// 533//
f 471// 533// 534//
f 534// 533// 535//
f 534// 535// 501//
f 501// 535// 536//
f 501// 536// 502//
f 376// 407// 537//
f 537// 407// 406//
f 537// 406// 538//
f 538// 406// 539//
f 540// 541// 542//
f 543// 544// 545//
f 546// 547// 413//
f 413// 547// 540//
f 548// 452// 545//
f 545// 452// 539//
f 545// 539// 543//
f 546// 413// 549//
f 549// 413// 452//
f 549// 452// 550//
f 550// 452// 548//
f 550// 548// 551//
f 464// 411// 408//
f 408// 411// 413//
f 408// 413// 406//
f 406// 413// 540//
f 406// 540// 539//
f 539// 540// 542//
f 539// 542// 543//
f 417// 415// 430//
f 430// 415// 552//
f 430// 552// 423//
f 423// 552// 553//
f 423// 553// 460//
f 460// 553// 554//
f 460// 554// 452//
f 452// 554// 410//
f 452// 410// 539//
f 539// 410// 409//
f 539// 409// 538//
f 453// 405// 460//
f 460// 405// 404//
f 460// 404// 555//
f 556// 557// 558//
f 558// 557// 559//
f 558// 559// 560//
f 560// 559// 561//
f 561// 559// 562//
f 561// 562// 563//
f 555// 561// 460//
f 460// 561// 563//
f 460// 563// 423//
f 423// 563// 564//
f 423// 564// 420//
f 420// 564// 565//
f 420// 565// 566//
f 567// 568// 569//
f 569// 568// 570//
f 569// 570// 571//
f 571// 570// 566//
f 463// 435// 405//
f 405// 435// 420//
f 405// 420// 403//
f 403// 420// 566//
f 403// 566// 572//
f 572// 566// 570//
f 573// 574// 471//
f 476// 469// 468//
f 468// 469// 471//
f 468// 471// 467//
f 467// 471// 574//
f 467// 574// 575//
f 576// 577// 578//
f 578// 577// 579//
f 578// 579// 580//
f 580// 579// 581//
f 582// 583// 584//
f 584// 583// 585//
f 584// 585// 581//
f 586// 498// 582//
f 582// 498// 467//
f 582// 467// 583//
f 583// 467// 575//
f 534// 587// 471//
f 471// 587// 584//
f 471// 584// 573//
f 573// 584// 581//
f 573// 581// 588//
f 588// 581// 579//
f 589// 590// 586//
f 586// 590// 591//
f 591// 592// 586//
f 586// 592// 593//
f 586// 593// 594//
f 595// 596// 396//
f 396// 596// 597//
f 396// 597// 598//
f 364// 599// 600//
f 372// 410// 390//
f 390// 410// 554//
f 390// 554// 391//
f 391// 554// 553//
f 391// 553// 392//
f 392// 553// 552//
f 392// 552// 393//
f 393// 552// 415//
f 393// 415// 394//
f 394// 415// 498//
f 394// 498// 395//
f 395// 498// 586//
f 395// 586// 396//
f 396// 586// 594//
f 396// 594// 595//
f 601// 602// 603//
f 603// 602// 604//
f 598// 605// 396//
f 396// 605// 606//
f 396// 606// 364//
f 364// 606// 607//
f 364// 607// 599//
f 600// 608// 364//
f 364// 608// 609//
f 364// 609// 610//
f 610// 611// 364//
f 364// 611// 612//
f 364// 612// 603//
f 603// 612// 613//
f 603// 613// 601//
f 587// 362// 584//
f 584// 362// 614//
f 584// 614// 582//
f 582// 614// 615//
f 582// 615// 586//
f 586// 615// 603//
f 586// 603// 589//
f 589// 603// 604//
f 188// 187// 616//
f 616// 187// 617//
f 235// 234// 618//
f 618// 234// 619//
f 182// 181// 620//
f 620// 181// 621//
f 622// 225// 224//
f 224// 623// 622//
f 622// 623// 587//
f 622// 587// 621//
f 621// 587// 534//
f 621// 534// 620//
f 620// 534// 501//
f 620// 501// 617//
f 617// 501// 435//
f 617// 435// 616//
f 616// 435// 463//
f 616// 463// 619//
f 619// 463// 408//
f 619// 408// 618//
f 618// 408// 407//
f 618// 407// 624//
f 624// 407// 376//
f 624// 376// 206//
f 206// 376// 204//
f 215// 214// 625//
f 625// 214// 626//
f 627// 362// 626//
f 626// 362// 587//
f 626// 587// 625//
f 625// 587// 623//
f 144// 143// 628//
f 628// 143// 362//
f 628// 362// 629//
f 629// 362// 627//
f 629// 627// 207//
f 207// 627// 208//
f 630// 589// 631//
f 631// 589// 604//
f 631// 604// 632//
f 632// 604// 602//
f 632// 602// 633//
f 633// 602// 601//
f 633// 601// 634//
f 634// 601// 613//
f 634// 613// 635//
f 635// 613// 612//
f 635// 612// 636//
f 636// 612// 611//
f 636// 611// 637//
f 637// 611// 610//
f 637// 610// 638//
f 638// 610// 609//
f 638// 609// 639//
f 639// 609// 608//
f 639// 608// 640//
f 640// 608// 600//
f 640// 600// 641//
f 641// 600// 599//
f 641// 599// 642//
f 642// 599// 607//
f 642// 607// 643//
f 643// 607// 606//
f 643// 606// 644//
f 644// 606// 605//
f 644// 605// 645//
f 645// 605// 598//
f 645// 598// 646//
f 646// 598// 597//
f 646// 597// 647//
f 647// 597// 596//
f 647// 596// 648//
f 648// 596// 595//
f 648// 595// 649//
f 649// 595// 594//
f 649// 594// 650//
f 650// 594// 593//
f 650// 593// 651//
f 651// 593// 592//
f 651// 592// 652//
f 652// 592// 591//
f 652// 591// 653//
f 653// 591// 590//
f 653// 590// 630//
f 630// 590// 589//
f 652// 653// 654//
f 654// 653// 630//
f 654// 630// 631//
f 649// 650// 654//
f 654// 650// 651//
f 654// 651// 652//
f 646// 647// 654//
f 654// 647// 648//
f 654// 648// 649//
f 643// 644// 654//
f 654// 644// 645//
f 654// 645// 646//
f 640// 641// 654//
f 654// 641// 642//
f 654// 642// 643//
f 637// 638// 654//
f 654// 638// 639//
f 654// 639// 640//
f 634// 635// 654//
f 654// 635// 636//
f 654// 636// 637//
f 631// 632// 654//
f 654// 632// 633//
f 654// 633// 634//
usemtl 3
f 655// 656// 547//
f 547// 656// 540//
f 656// 657// 540//
f 540// 657// 541//
f 657// 658// 541//
f 541// 658// 542//
f 658// 659// 542//
f 542// 659// 543//
f 659// 660// 543//
f 543// 660// 544//
f 660// 661// 544//
f 544// 661// 545//
f 661// 662// 545//
f 545// 662// 548//
f 662// 663// 548//
f 548// 663// 551//
f 663// 664// 551//
f 551// 664// 550//
f 664// 665// 550//
f 550// 665// 549//
f 655// 547// 546//
f 655// 546// 666//
f 666// 546// 549//
f 666// 549// 665//
f 667// 668// 657//
f 662// 661// 663//
f 663// 661// 660//
f 657// 656// 667//
f 667// 656// 655//
f 667// 655// 669//
f 669// 655// 666//
f 669// 666// 670//
f 659// 658// 660//
f 660// 658// 657//
f 660// 657// 663//
f 663// 657// 668//
f 663// 668// 664//
f 664// 668// 670//
f 664// 670// 665//
f 665// 670// 666//
f 670// 671// 672//
f 670// 672// 669//
f 669// 672// 673//
f 669// 673// 667//
f 668// 667// 674//
f 674// 667// 673//
f 670// 668// 671//
f 671// 668// 674//
f 675// 676// 459//
f 459// 676// 457//
f 676// 677// 457//
f 457// 677// 455//
f 678// 453// 458//
f 678// 458// 679//
f 679// 458// 456//
f 679// 456// 680//
f 680// 456// 455//
f 680// 455// 677//
f 678// 681// 453//
f 453// 681// 454//
f 454// 681// 682//
f 683// 464// 462//
f 683// 462// 682//
f 682// 462// 461//
f 682// 461// 454//
f 683// 684// 464//
f 464// 684// 411//
f 411// 684// 412//
f 412// 684// 675//
f 412// 675// 459//
f 676// 675// 677//
f 677// 675// 684//
f 684// 683// 677//
f 677// 683// 682//
f 677// 682// 680//
f 680// 682// 681//
f 680// 681// 679//
f 679// 681// 678//
f 685// 686// 404//
f 404// 686// 555//
f 686// 687// 555//
f 555// 687// 561//
f 687// 688// 561//
f 561// 688// 560//
f 689// 556// 558//
f 689// 558// 690//
f 690// 558// 560//
f 690// 560// 688//
f 689// 691// 556//
f 556// 691// 557//
f 692// 562// 559//
f 692// 559// 693//
f 693// 559// 557//
f 693// 557// 691//
f 692// 694// 562//
f 562// 694// 563//
f 694// 695// 563//
f 563// 695// 564//
f 695// 696// 564//
f 564// 696// 565//
f 696// 697// 565//
f 565// 697// 566//
f 697// 698// 566//
f 566// 698// 571//
f 699// 567// 569//
f 699// 569// 700//
f 700// 569// 571//
f 700// 571// 698//
f 699// 701// 567//
f 567// 701// 568//
f 702// 572// 570//
f 702// 570// 703//
f 703// 570// 568//
f 703// 568// 701//
f 702// 704// 572//
f 572// 704// 403//
f 704// 685// 403//
f 403// 685// 404//
f 685// 704// 686//
f 686// 704// 702//
f 695// 694// 696//
f 696// 694// 692//
f 692// 693// 696//
f 696// 693// 691//
f 696// 691// 697//
f 697// 691// 689//
f 702// 703// 686//
f 686// 703// 701//
f 686// 701// 687//
f 687// 701// 699//
f 699// 700// 687//
f 687// 700// 698//
f 687// 698// 688//
f 688// 698// 697//
f 688// 697// 690//
f 690// 697// 689//
f 705// 446// 451//
f 705// 451// 706//
f 706// 451// 450//
f 706// 450// 707//
f 707// 450// 449//
f 707// 449// 708//
f 708// 449// 445//
f 708// 445// 709//
f 709// 445// 444//
f 709// 444// 710//
f 710// 444// 443//
f 710// 443// 711//
f 711// 443// 712//
f 712// 443// 416//
f 712// 416// 417//
f 713// 436// 714//
f 714// 436// 442//
f 442// 441// 714//
f 714// 441// 440//
f 714// 440// 715//
f 715// 440// 438//
f 715// 438// 716//
f 716// 438// 437//
f 716// 437// 717//
f 717// 437// 448//
f 717// 448// 718//
f 718// 448// 447//
f 718// 447// 719//
f 719// 447// 446//
f 719// 446// 705//
f 720// 432// 431//
f 720// 431// 721//
f 721// 431// 427//
f 721// 427// 722//
f 722// 427// 426//
f 722// 426// 723//
f 723// 426// 425//
f 723// 425// 724//
f 724// 425// 419//
f 724// 419// 725//
f 725// 419// 418//
f 725// 418// 726//
f 726// 418// 713//
f 713// 418// 434//
f 713// 434// 436//
f 712// 417// 727//
f 727// 417// 430//
f 430// 429// 727//
f 727// 429// 428//
f 727// 428// 728//
f 728// 428// 422//
f 728// 422// 729//
f 729// 422// 421//
f 729// 421// 730//
f 730// 421// 424//
f 730// 424// 731//
f 731// 424// 433//
f 731// 433// 732//
f 732// 433// 432//
f 732// 432// 720//
f 733// 705// 734//
f 734// 705// 706//
f 734// 706// 735//
f 735// 706// 707//
f 735// 707// 736//
f 736// 707// 708//
f 736// 708// 737//
f 737// 708// 709//
f 737// 709// 738//
f 738// 709// 710//
f 738// 710// 739//
f 739// 710// 711//
f 739// 711// 740//
f 740// 711// 712//
f 740// 712// 741//
f 741// 712// 727//
f 741// 727// 742//
f 742// 727// 728//
f 742// 728// 743//
f 743// 728// 729//
f 743// 729// 744//
f 744// 729// 730//
f 744// 730// 745//
f 745// 730// 731//
f 745// 731// 746//
f 746// 731// 732//
f 746// 732// 747//
f 747// 732// 720//
f 747// 720// 748//
f 748// 720// 721//
f 748// 721// 749//
f 749// 721// 722//
f 749// 722// 750//
f 750// 722// 723//
f 750// 723// 751//
f 751// 723// 724//
f 751// 724// 752//
f 752// 724// 725//
f 752// 725// 753//
f 753// 725// 726//
f 753// 726// 754//
f 754// 726// 713//
f 754// 713// 755//
f 755// 713// 714//
f 755// 714// 756//
f 756// 714// 715//
f 756// 715// 757//
f 757// 715// 716//
f 757// 716// 758//
f 758// 716// 717//
f 758// 717// 759//
f 759// 717// 718//
f 759// 718// 760//
f 760// 718// 719//
f 760// 719// 733//
f 733// 719// 705//
f 733// 761// 762//
f 733// 762// 760//
f 760// 762// 763//
f 760// 763// 759//
f 759// 763// 764//
f 759// 764// 758//
f 758// 764// 765//
f 758// 765// 757//
f 757// 765// 766//
f 757// 766// 756//
f 756// 766// 767//
f 756// 767// 755//
f 755// 767// 768//
f 755// 768// 754//
f 754// 768// 769//
f 754// 769// 753//
f 753// 769// 770//
f 753// 770// 752//
f 752// 770// 771//
f 752// 771// 751//
f 751// 771// 772//
f 751// 772// 750//
f 750// 772// 773//
f 750// 773// 749//
f 749// 773// 774//
f 749// 774// 748//
f 748// 774// 775//
f 748// 775// 747//
f 747// 775// 776//
f 747// 776// 746//
f 746// 776// 777//
f 746// 777// 745//
f 745// 777// 778//
f 745// 778// 744//
f 744// 778// 779//
f 744// 779// 743//
f 743// 779// 780//
f 743// 780// 742//
f 742// 780// 781//
f 742// 781// 741//
f 741// 781// 782//
f 741// 782// 740//
f 740// 782// 783//
f 740// 783// 739//
f 739// 783// 784//
f 739// 784// 738//
f 738// 784// 785//
f 738// 785// 737//
f 737// 785// 786//
f 737// 786// 736//
f 736// 786// 787//
f 736// 787// 735//
f 735// 787// 788//
f 735// 788// 734//
f 734// 788// 761//
f 734// 761// 733//
f 789// 790// 466//
f 466// 790// 468//
f 791// 485// 480//
f 791// 480// 792//
f 792// 480// 478//
f 792// 478// 793//
f 793// 478// 468//
f 793// 468// 790//
f 794// 492// 491//
f 794// 491// 795//
f 795// 491// 490//
f 795// 490// 796//
f 796// 490// 489//
f 796// 489// 797//
f 797// 489// 488//
f 797// 488// 798//
f 798// 488// 487//
f 798// 487// 799//
f 799// 487// 486//
f 799// 486// 800//
f 800// 486// 485//
f 800// 485// 791//
f 801// 477// 479//
f 801// 479// 802//
f 802// 479// 481//
f 802// 481// 803//
f 803// 481// 493//
f 803// 493// 804//
f 804// 493// 495//
f 804// 495// 805//
f 805// 495// 494//
f 805// 494// 806//
f 806// 494// 492//
f 806// 492// 794//
f 807// 469// 476//
f 807// 476// 808//
f 808// 476// 475//
f 808// 475// 809//
f 809// 475// 474//
f 809// 474// 810//
f 810// 474// 473//
f 810// 473// 811//
f 811// 473// 477//
f 811// 477// 801//
f 812// 535// 813//
f 813// 535// 533//
f 533// 532// 813//
f 813// 532// 484//
f 813// 484// 814//
f 814// 484// 483//
f 814// 483// 815//
f 815// 483// 482//
f 815// 482// 816//
f 816// 482// 472//
f 816// 472// 817//
f 817// 472// 470//
f 817// 470// 818//
f 818// 470// 469//
f 818// 469// 807//
f 535// 812// 819//
f 820// 503// 502//
f 820// 502// 819//
f 819// 502// 536//
f 819// 536// 535//
f 820// 821// 503//
f 503// 821// 504//
f 822// 520// 519//
f 822// 519// 823//
f 823// 519// 517//
f 823// 517// 824//
f 824// 517// 504//
f 824// 504// 821//
f 825// 522// 521//
f 825// 521// 826//
f 826// 521// 531//
f 826// 531// 827//
f 827// 531// 526//
f 827// 526// 828//
f 828// 526// 525//
f 828// 525// 829//
f 829// 525// 524//
f 829// 524// 830//
f 830// 524// 523//
f 830// 523// 831//
f 831// 523// 520//
f 831// 520// 822//
f 832// 516// 518//
f 832// 518// 833//
f 833// 518// 530//
f 833// 530// 834//
f 834// 530// 529//
f 834// 529// 835//
f 835// 529// 528//
f 835// 528// 836//
f 836// 528// 527//
f 836// 527// 837//
f 837// 527// 522//
f 837// 522// 825//
f 838// 515// 514//
f 838// 514// 839//
f 839// 514// 513//
f 839// 513// 840//
f 840// 513// 508//
f 840// 508// 841//
f 841// 508// 507//
f 841// 507// 842//
f 842// 507// 516//
f 842// 516// 832//
f 843// 497// 844//
f 844// 497// 496//
f 496// 505// 844//
f 844// 505// 506//
f 844// 506// 845//
f 845// 506// 512//
f 845// 512// 846//
f 846// 512// 511//
f 846// 511// 847//
f 847// 511// 510//
f 847// 510// 848//
f 848// 510// 509//
f 848// 509// 849//
f 849// 509// 515//
f 849// 515// 838//
f 789// 466// 465//
f 789// 465// 850//
f 850// 465// 500//
f 850// 500// 851//
f 851// 500// 843//
f 843// 500// 499//
f 843// 499// 497//
f 790// 789// 793//
f 793// 789// 850//
f 793// 850// 792//
f 792// 850// 851//
f 792// 851// 791//
f 791// 851// 843//
f 791// 843// 800//
f 800// 843// 844//
f 800// 844// 799//
f 799// 844// 845//
f 799// 845// 798//
f 798// 845// 846//
f 798// 846// 797//
f 797// 846// 847//
f 797// 847// 796//
f 796// 847// 848//
f 796// 848// 795//
f 795// 848// 849//
f 795// 849// 794//
f 794// 849// 838//
f 794// 838// 806//
f 806// 838// 839//
f 806// 839// 805//
f 805// 839// 840//
f 805// 840// 804//
f 804// 840// 841//
f 804// 841// 803//
f 803// 841// 842//
f 803// 842// 802//
f 802// 842// 832//
f 802// 832// 801//
f 801// 832// 833//
f 801// 833// 811//
f 811// 833// 834//
f 811// 834// 810//
f 810// 834// 835//
f 810// 835// 809//
f 809// 835// 836//
f 809// 836// 808//
f 808// 836// 837//
f 808// 837// 807//
f 807// 837// 825//
f 807// 825// 818//
f 818// 825// 826//
f 818// 826// 817//
f 817// 826// 827//
f 817// 827// 816//
f 816// 827// 828//
f 816// 828// 815//
f 815// 828// 829//
f 815// 829// 814//
f 814// 829// 830//
f 814// 830// 813//
f 813// 830// 831//
f 813// 831// 812//
f 812// 831// 822//
f 812// 822// 819//
f 819// 822// 823//
f 819// 823// 820//
f 820// 823// 824//
f 820// 824// 821//
f 852// 853// 573//
f 573// 853// 574//
f 853// 854// 574//
f 574// 854// 575//
f 854// 855// 575//
f 575// 855// 583//
f 855// 856// 583//
f 583// 856// 585//
f 856// 857// 585//
f 585// 857// 581//
f 857// 858// 581//
f 581// 858// 580//
f 859// 576// 578//
f 859// 578// 860//
f 860// 578// 580//
f 860// 580// 858//
f 859// 861// 576//
f 576// 861// 577//
f 862// 588// 579//
f 862// 579// 863//
f 863// 579// 577//
f 863// 577// 861//
f 862// 852// 588//
f 588// 852// 573//
f 857// 856// 858//
f 858// 856// 855//
f 858// 855// 860//
f 853// 852// 854//
f 854// 852// 862//
f 862// 863// 854//
f 854// 863// 861//
f 854// 861// 855//
f 855// 861// 859//
f 855// 859// 860//
usemtl 2
f 671// 674// 672//
f 672// 674// 673//
f 774// 762// 775//
f 775// 762// 761//
f 775// 761// 776//
f 776// 761// 777//
f 766// 762// 767//
f 767// 762// 768//
f 787// 786// 783//
f 783// 786// 785//
f 783// 785// 784//
f 780// 779// 761//
f 761// 779// 778//
f 761// 778// 777//
f 766// 765// 762//
f 762// 765// 764//
f 762// 764// 763//
f 787// 783// 788//
f 788// 783// 782//
f 788// 782// 761//
f 761// 782// 781//
f 761// 781// 780//
f 774// 773// 762//
f 762// 773// 772//
f 762// 772// 771//
f 771// 770// 762//
f 762// 770// 769//
f 762// 769// 768//
usemtl 1
f 864// 865// 397//
f 397// 865// 382//
f 382// 865// 305//
f 305// 865// 866//
f 305// 866// 307//
f 307// 866// 867//
f 352// 868// 353//
f 353// 868// 869//
f 353// 869// 397//
f 397// 869// 864//
f 865// 864// 866//
f 866// 864// 869//
f 307// 867// 870//
f 307// 870// 354//
f 354// 870// 871//
f 354// 871// 331//
f 331// 871// 872//
f 331// 872// 317//
f 317// 872// 873//
f 317// 873// 318//
f 318// 873// 874//
f 318// 874// 332//
f 332// 874// 875//
f 332// 875// 334//
f 334// 875// 876//
f 334// 876// 335//
f 335// 876// 877//
f 335// 877// 336//
f 336// 877// 878//
f 336// 878// 355//
f 355// 878// 879//
f 355// 879// 356//
f 356// 879// 880//
f 356// 880// 350//
f 350// 880// 868//
f 350// 868// 352//
f 866// 869// 867//
f 867// 869// 868//
f 876// 867// 877//
f 877// 867// 878//
f 868// 880// 867//
f 867// 880// 879//
f 867// 879// 878//
f 872// 871// 876//
f 876// 871// 870//
f 876// 870// 867//
f 872// 876// 873//
f 873// 876// 875//
f 873// 875// 874//
f 881// 882// 383//
f 383// 882// 384//
f 384// 882// 313//
f 313// 882// 883//
f 313// 883// 315//
f 315// 883// 884//
f 306// 885// 304//
f 304// 885// 886//
f 304// 886// 383//
f 383// 886// 881//
f 882// 881// 883//
f 883// 881// 886//
f 315// 884// 887//
f 315// 887// 316//
f 316// 887// 888//
f 316// 888// 262//
f 262// 888// 889//
f 262// 889// 263//
f 263// 889// 890//
f 263// 890// 303//
f 303// 890// 891//
f 303// 891// 282//
f 282// 891// 892//
f 282// 892// 333//
f 333// 892// 893//
f 333// 893// 319//
f 319// 893// 894//
f 319// 894// 349//
f 349// 894// 895//
f 349// 895// 329//
f 329// 895// 896//
f 329// 896// 330//
f 330// 896// 897//
f 330// 897// 308//
f 308// 897// 885//
f 308// 885// 306//
f 883// 886// 884//
f 884// 886// 885//
f 893// 884// 894//
f 894// 884// 895//
f 885// 897// 884//
f 884// 897// 896//
f 884// 896// 895//
f 889// 888// 893//
f 893// 888// 887//
f 893// 887// 884//
f 889// 893// 890//
f 890// 893// 892//
f 890// 892// 891//
f 898// 899// 385//
f 385// 899// 386//
f 386// 899// 358//
f 358// 899// 900//
f 358// 900// 360//
f 360// 900// 901//
f 314// 902// 312//
f 312// 902// 903//
f 312// 903// 385//
f 385// 903// 898//
f 899// 898// 900//
f 900// 898// 903//
f 360// 901// 904//
f 360// 904// 361//
f 361// 904// 905//
f 361// 905// 326//
f 326// 905// 906//
f 326// 906// 328//
f 328// 906// 907//
f 328// 907// 348//
f 348// 907// 908//
f 348// 908// 321//
f 321// 908// 909//
f 321// 909// 322//
f 322// 909// 910//
f 322// 910// 323//
f 323// 910// 911//
f 323// 911// 324//
f 324// 911// 912//
f 324// 912// 280//
f 280// 912// 913//
f 280// 913// 281//
f 281// 913// 914//
f 281// 914// 264//
f 264// 914// 902//
f 264// 902// 314//
f 901// 900// 903//
f 903// 902// 901//
f 901// 902// 914//
f 901// 914// 913//
f 901// 910// 909//
f 907// 906// 905//
f 913// 912// 901//
f 901// 912// 911//
f 901// 911// 910//
f 909// 908// 901//
f 901// 908// 907//
f 901// 907// 904//
f 904// 907// 905//
f 915// 916// 387//
f 387// 916// 388//
f 388// 916// 343//
f 343// 916// 917//
f 343// 917// 345//
f 345// 917// 918//
f 359// 919// 357//
f 357// 919// 920//
f 357// 920// 387//
f 387// 920// 915//
f 916// 915// 917//
f 917// 915// 920//
f 345// 918// 921//
f 345// 921// 346//
f 346// 921// 922//
f 346// 922// 298//
f 298// 922// 923//
f 298// 923// 300//
f 300// 923// 924//
f 300// 924// 311//
f 311// 924// 925//
f 311// 925// 294//
f 294// 925// 926//
f 294// 926// 278//
f 278// 926// 927//
f 278// 927// 279//
f 279// 927// 928//
f 279// 928// 320//
f 320// 928// 929//
f 320// 929// 347//
f 347// 929// 930//
f 347// 930// 327//
f 327// 930// 931//
f 327// 931// 325//
f 325// 931// 919//
f 325// 919// 359//
f 917// 920// 918//
f 918// 920// 919//
f 924// 923// 922//
f 919// 931// 918//
f 918// 931// 930//
f 918// 930// 929//
f 929// 928// 918//
f 918// 928// 927//
f 918// 927// 926//
f 926// 925// 918//
f 918// 925// 924//
f 918// 924// 921//
f 921// 924// 922//
f 932// 933// 389//
f 389// 933// 398//
f 398// 933// 289//
f 289// 933// 934//
f 289// 934// 291//
f 291// 934// 935//
f 344// 936// 342//
f 342// 936// 937//
f 342// 937// 389//
f 389// 937// 932//
f 933// 932// 934//
f 934// 932// 937//
f 291// 935// 938//
f 291// 938// 292//
f 292// 938// 939//
f 292// 939// 253//
f 253// 939// 940//
f 253// 940// 254//
f 254// 940// 941//
f 254// 941// 277//
f 277// 941// 942//
f 277// 942// 261//
f 261// 942// 943//
f 261// 943// 301//
f 301// 943// 944//
f 301// 944// 295//
f 295// 944// 945//
f 295// 945// 296//
f 296// 945// 946//
f 296// 946// 310//
f 310// 946// 947//
f 310// 947// 299//
f 299// 947// 948//
f 299// 948// 297//
f 297// 948// 936//
f 297// 936// 344//
f 935// 934// 937//
f 937// 936// 935//
f 935// 936// 948//
f 935// 948// 947//
f 947// 946// 935//
f 935// 946// 945//
f 935// 945// 944//
f 940// 939// 944//
f 944// 939// 938//
f 944// 938// 935//
f 940// 944// 941//
f 941// 944// 943//
f 941// 943// 942//
f 949// 950// 399//
f 399// 950// 400//
f 400// 950// 339//
f 339// 950// 951//
f 339// 951// 337//
f 337// 951// 952//
f 290// 953// 288//
f 288// 953// 954//
f 288// 954// 399//
f 399// 954// 949//
f 950// 949// 951//
f 951// 949// 954//
f 337// 952// 955//
f 337// 955// 274//
f 274// 955// 956//
f 274// 956// 275//
f 275// 956// 957//
f 275// 957// 283//
f 283// 957// 958//
f 283// 958// 284//
f 284// 958// 959//
f 284// 959// 285//
f 285// 959// 960//
f 285// 960// 286//
f 286// 960// 961//
f 286// 961// 287//
f 287// 961// 962//
f 287// 962// 302//
f 302// 962// 963//
f 302// 963// 259//
f 259// 963// 964//
f 259// 964// 260//
f 260// 964// 965//
f 260// 965// 255//
f 255// 965// 953//
f 255// 953// 290//
f 952// 951// 954//
f 954// 953// 952//
f 952// 953// 965//
f 952// 965// 964//
f 964// 963// 952//
f 952// 963// 962//
f 952// 962// 961//
f 957// 956// 961//
f 961// 956// 955//
f 961// 955// 952//
f 957// 961// 958//
f 958// 961// 960//
f 958// 960// 959//
f 966// 967// 402//
f 402// 967// 401//
f 401// 967// 273//
f 273// 967// 968//
f 273// 968// 271//
f 271// 968// 969//
f 340// 970// 341//
f 341// 970// 971//
f 341// 971// 402//
f 402// 971// 966//
f 967// 966// 968//
f 968// 966// 971//
f 271// 969// 972//
f 271// 972// 256//
f 256// 972// 973//
f 256// 973// 257//
f 257// 973// 974//
f 257// 974// 265//
f 265// 974// 975//
f 265// 975// 266//
f 266// 975// 976//
f 266// 976// 267//
f 267// 976// 977//
f 267// 977// 268//
f 268// 977// 978//
f 268// 978// 269//
f 269// 978// 979//
f 269// 979// 309//
f 309// 979// 980//
f 309// 980// 293//
f 293// 980// 981//
f 293// 981// 276//
f 276// 981// 982//
f 276// 982// 338//
f 338// 982// 970//
f 338// 970// 340//
f 968// 971// 969//
f 969// 971// 970//
f 978// 969// 979//
f 979// 969// 980//
f 970// 982// 969//
f 969// 982// 981//
f 969// 981// 980//
f 974// 973// 978//
f 978// 973// 972//
f 978// 972// 969//
f 974// 978// 975//
f 975// 978// 977//
f 975// 977// 976//
f 983// 984// 629//
f 629// 984// 628//
f 984// 983// 985//
f 985// 983// 986//
f 628// 984// 144//
f 144// 984// 985//
f 144// 985// 142//
f 142// 985// 987//
f 142// 987// 988//
f 142// 988// 135//
f 135// 988// 989//
f 135// 989// 136//
f 136// 989// 990//
f 136// 990// 137//
f 137// 990// 991//
f 137// 991// 138//
f 138// 991// 992//
f 138// 992// 174//
f 174// 992// 993//
f 174// 993// 175//
f 175// 993// 994//
f 175// 994// 139//
f 139// 994// 995//
f 139// 995// 140//
f 140// 995// 996//
f 140// 996// 145//
f 145// 996// 997//
f 145// 997// 146//
f 146// 997// 998//
f 146// 998// 211//
f 211// 998// 999//
f 211// 999// 209//
f 209// 999// 207//
f 207// 999// 986//
f 207// 986// 629//
f 629// 986// 983//
f 985// 986// 987//
f 987// 986// 999//
f 994// 987// 995//
f 995// 987// 996//
f 999// 998// 987//
f 987// 998// 997//
f 987// 997// 996//
f 990// 989// 994//
f 994// 989// 988//
f 994// 988// 987//
f 990// 994// 991//
f 991// 994// 993//
f 991// 993// 992//
f 1000// 1001// 626//
f 626// 1001// 627//
f 1001// 1000// 1002//
f 1002// 1000// 1003//
f 627// 1001// 208//
f 208// 1001// 1002//
f 208// 1002// 210//
f 210// 1002// 1004//
f 210// 1004// 1005//
f 210// 1005// 212//
f 212// 1005// 1006//
f 212// 1006// 213//
f 213// 1006// 1007//
f 213// 1007// 148//
f 148// 1007// 1008//
f 148// 1008// 147//
f 147// 1008// 1009//
f 147// 1009// 141//
f 141// 1009// 1010//
f 141// 1010// 220//
f 220// 1010// 1011//
f 220// 1011// 221//
f 221// 1011// 1012//
f 221// 1012// 149//
f 149// 1012// 1013//
f 149// 1013// 150//
f 150// 1013// 1014//
f 150// 1014// 219//
f 219// 1014// 1015//
f 219// 1015// 218//
f 218// 1015// 1016//
f 218// 1016// 216//
f 216// 1016// 214//
f 214// 1016// 1003//
f 214// 1003// 626//
f 626// 1003// 1000//
f 1004// 1002// 1003//
f 1003// 1016// 1004//
f 1004// 1016// 1015//
f 1004// 1015// 1014//
f 1014// 1013// 1004//
f 1004// 1013// 1012//
f 1004// 1012// 1011//
f 1007// 1006// 1011//
f 1011// 1006// 1005//
f 1011// 1005// 1004//
f 1007// 1011// 1008//
f 1008// 1011// 1010//
f 1008// 1010// 1009//
f 1017// 1018// 623//
f 623// 1018// 625//
f 1018// 1017// 1019//
f 1019// 1017// 1020//
f 625// 1018// 215//
f 215// 1018// 1019//
f 215// 1019// 217//
f 217// 1019// 1021//
f 217// 1021// 1022//
f 217// 1022// 151//
f 151// 1022// 1023//
f 151// 1023// 222//
f 222// 1023// 1024//
f 222// 1024// 223//
f 223// 1024// 1025//
f 223// 1025// 132//
f 132// 1025// 1026//
f 132// 1026// 133//
f 133// 1026// 1027//
f 133// 1027// 233//
f 233// 1027// 1028//
f 233// 1028// 177//
f 177// 1028// 1029//
f 177// 1029// 179//
f 179// 1029// 1030//
f 179// 1030// 180//
f 180// 1030// 1031//
f 180// 1031// 229//
f 229// 1031// 1032//
f 229// 1032// 228//
f 228// 1032// 1033//
f 228// 1033// 226//
f 226// 1033// 224//
f 224// 1033// 1020//
f 224// 1020// 623//
f 623// 1020// 1017//
f 1019// 1020// 1021//
f 1021// 1020// 1033//
f 1028// 1024// 1023//
f 1033// 1032// 1021//
f 1021// 1032// 1031//
f 1021// 1031// 1030//
f 1024// 1028// 1025//
f 1025// 1028// 1027//
f 1025// 1027// 1026//
f 1030// 1029// 1021//
f 1021// 1029// 1028//
f 1021// 1028// 1022//
f 1022// 1028// 1023//
f 1034// 1035// 621//
f 621// 1035// 622//
f 1035// 1034// 1036//
f 1036// 1034// 1037//
f 622// 1035// 225//
f 225// 1035// 1036//
f 225// 1036// 227//
f 227// 1036// 1038//
f 227// 1038// 1039//
f 227// 1039// 178//
f 178// 1039// 1040//
f 178// 1040// 176//
f 176// 1040// 1041//
f 176// 1041// 230//
f 230// 1041// 1042//
f 230// 1042// 231//
f 231// 1042// 1043//
f 231// 1043// 232//
f 232// 1043// 1044//
f 232// 1044// 195//
f 195// 1044// 1045//
f 195// 1045// 152//
f 152// 1045// 1046//
f 152// 1046// 153//
f 153// 1046// 1047//
f 153// 1047// 155//
f 155// 1047// 1048//
f 155// 1048// 186//
f 186// 1048// 1049//
f 186// 1049// 185//
f 185// 1049// 1050//
f 185// 1050// 183//
f 183// 1050// 181//
f 181// 1050// 1037//
f 181// 1037// 621//
f 621// 1037// 1034//
f 1041// 1040// 1050//
f 1049// 1048// 1047//
f 1050// 1045// 1044//
f 1036// 1037// 1038//
f 1038// 1037// 1050//
f 1038// 1050// 1039//
f 1039// 1050// 1040//
f 1049// 1047// 1050//
f 1050// 1047// 1046//
f 1050// 1046// 1045//
f 1044// 1043// 1050//
f 1050// 1043// 1042//
f 1050// 1042// 1041//
f 1051// 1052// 617//
f 617// 1052// 620//
f 1052// 1051// 1053//
f 1053// 1051// 1054//
f 620// 1052// 182//
f 182// 1052// 1053//
f 182// 1053// 184//
f 184// 1053// 1055//
f 184// 1055// 1056//
f 184// 1056// 154//
f 154// 1056// 1057//
f 154// 1057// 193//
f 193// 1057// 1058//
f 193// 1058// 194//
f 194// 1058// 1059//
f 194// 1059// 196//
f 196// 1059// 1060//
f 196// 1060// 197//
f 197// 1060// 1061//
f 197// 1061// 162//
f 162// 1061// 1062//
f 162// 1062// 159//
f 159// 1062// 1063//
f 159// 1063// 158//
f 158// 1063// 1064//
f 158// 1064// 156//
f 156// 1064// 1065//
f 156// 1065// 192//
f 192// 1065// 1066//
f 192// 1066// 191//
f 191// 1066// 1067//
f 191// 1067// 189//
f 189// 1067// 187//
f 187// 1067// 1054//
f 187// 1054// 617//
f 617// 1054// 1051//
f 1060// 1059// 1067//
f 1067// 1059// 1058//
f 1067// 1058// 1057//
f 1053// 1054// 1055//
f 1055// 1054// 1067//
f 1055// 1067// 1056//
f 1056// 1067// 1057//
f 1064// 1063// 1065//
f 1065// 1063// 1062//
f 1065// 1062// 1066//
f 1066// 1062// 1067//
f 1067// 1062// 1061//
f 1067// 1061// 1060//
f 1068// 1069// 619//
f 619// 1069// 616//
f 1069// 1068// 1070//
f 1070// 1068// 1071//
f 616// 1069// 188//
f 188// 1069// 1070//
f 188// 1070// 190//
f 190// 1070// 1072//
f 190// 1072// 1073//
f 190// 1073// 157//
f 157// 1073// 1074//
f 157// 1074// 164//
f 164// 1074// 1075//
f 164// 1075// 163//
f 163// 1075// 1076//
f 163// 1076// 161//
f 161// 1076// 1077//
f 161// 1077// 160//
f 160// 1077// 1078//
f 160// 1078// 198//
f 198// 1078// 1079//
f 198// 1079// 199//
f 199// 1079// 1080//
f 199// 1080// 200//
f 200// 1080// 1081//
f 200// 1081// 169//
f 169// 1081// 1082//
f 169// 1082// 167//
f 167// 1082// 1083//
f 167// 1083// 238//
f 238// 1083// 1084//
f 238// 1084// 236//
f 236// 1084// 234//
f 234// 1084// 1071//
f 234// 1071// 619//
f 619// 1071// 1068//
f 1070// 1071// 1072//
f 1072// 1071// 1084//
f 1079// 1075// 1074//
f 1084// 1083// 1072//
f 1072// 1083// 1082//
f 1072// 1082// 1081//
f 1075// 1079// 1076//
f 1076// 1079// 1078//
f 1076// 1078// 1077//
f 1081// 1080// 1072//
f 1072// 1080// 1079//
f 1072// 1079// 1073//
f 1073// 1079// 1074//
f 1085// 1086// 624//
f 624// 1086// 618//
f 1086// 1085// 1087//
f 1087// 1085// 1088//
f 618// 1086// 235//
f 235// 1086// 1087//
f 235// 1087// 237//
f 237// 1087// 1089//
f 237// 1089// 1090//
f 237// 1090// 239//
f 239// 1090// 1091//
f 239// 1091// 240//
f 240// 1091// 1092//
f 240// 1092// 165//
f 165// 1092// 1093//
f 165// 1093// 166//
f 166// 1093// 1094//
f 166// 1094// 168//
f 168// 1094// 1095//
f 168// 1095// 201//
f 201// 1095// 1096//
f 201// 1096// 170//
f 170// 1096// 1097//
f 170// 1097// 171//
f 171// 1097// 1098//
f 171// 1098// 173//
f 173// 1098// 1099//
f 173// 1099// 202//
f 202// 1099// 1100//
f 202// 1100// 203//
f 203// 1100// 1101//
f 203// 1101// 205//
f 205// 1101// 206//
f 206// 1101// 1088//
f 206// 1088// 624//
f 624// 1088// 1085//
f 1087// 1088// 1089//
f 1089// 1088// 1101//
f 1096// 1089// 1097//
f 1097// 1089// 1098//
f 1101// 1100// 1089//
f 1089// 1100// 1099//
f 1089// 1099// 1098//
f 1092// 1091// 1096//
f 1096// 1091// 1090//
f 1096// 1090// 1089//
f 1092// 1096// 1093//
f 1093// 1096// 1095//
f 1093// 1095// 1094//
f 172// 380// 1102//
f 1103// 363// 80//
f 80// 363// 134//
f 80// 134// 15//
f 15// 134// 172//
f 15// 172// 19//
f 19// 172// 1102//
f 270// 370// 1104//
f 1104// 110// 270//
f 270// 110// 3//
f 270// 3// 258//
f 258// 3// 5//
f 258// 5// 373//
f 373// 5// 1105//
f 1103// 1106// 363//
f 363// 1106// 365//
f 1107// 1108// 369//
f 369// 1108// 366//
f 1109// 1110// 367//
f 367// 1110// 368//
f 1111// 1104// 371//
f 371// 1104// 370//
f 1105// 1112// 373//
f 373// 1112// 377//
f 1113// 1114// 378//
f 378// 1114// 379//
f 1115// 1116// 374//
f 374// 1116// 375//
f 1117// 1102// 381//
f 381// 1102// 380//
f 1112// 1105// 4//
f 4// 1105// 5//
f 377// 1112// 122//
f 122// 1112// 4//
f 122// 4// 120//
f 120// 4// 6//
f 6// 7// 120//
f 120// 7// 121//
f 121// 7// 123//
f 123// 7// 9//
f 123// 9// 378//
f 378// 9// 1113//
f 1114// 1113// 10//
f 10// 1113// 9//
f 379// 1114// 126//
f 126// 1114// 10//
f 126// 10// 124//
f 124// 10// 8//
f 30// 125// 11//
f 11// 125// 124//
f 11// 124// 8//
f 125// 30// 127//
f 127// 30// 24//
f 127// 24// 374//
f 374// 24// 1115//
f 1116// 1115// 23//
f 23// 1115// 24//
f 375// 1116// 130//
f 130// 1116// 23//
f 130// 23// 128//
f 128// 23// 22//
f 22// 20// 128//
f 128// 20// 129//
f 129// 20// 131//
f 131// 20// 21//
f 131// 21// 381//
f 381// 21// 1117//
f 1102// 1117// 19//
f 19// 1117// 21//
f 1106// 1103// 79//
f 79// 1103// 80//
f 365// 1106// 243//
f 243// 1106// 79//
f 243// 79// 241//
f 241// 79// 81//
f 81// 76// 241//
f 241// 76// 242//
f 242// 76// 244//
f 244// 76// 74//
f 244// 74// 369//
f 369// 74// 1107//
f 1108// 1107// 73//
f 73// 1107// 74//
f 366// 1108// 247//
f 247// 1108// 73//
f 247// 73// 245//
f 245// 73// 75//
f 117// 246// 102//
f 102// 246// 245//
f 102// 245// 75//
f 246// 117// 248//
f 248// 117// 118//
f 248// 118// 367//
f 367// 118// 1109//
f 1110// 1109// 119//
f 119// 1109// 118//
f 368// 1110// 251//
f 251// 1110// 119//
f 251// 119// 249//
f 249// 119// 113//
f 113// 111// 249//
f 249// 111// 250//
f 250// 111// 252//
f 252// 111// 112//
f 252// 112// 371//
f 371// 112// 1111//
f 1104// 1111// 110//
f 110// 1111// 112//
usemtl 2
f 1118// 1119// 78//
f 78// 1119// 103//
f 1119// 1120// 103//
f 103// 1120// 104//
f 1120// 1121// 104//
f 104// 1121// 105//
f 1121// 1122// 105//
f 105// 1122// 106//
f 1122// 1123// 106//
f 106// 1123// 107//
f 1123// 1124// 107//
f 107// 1124// 93//
f 1124// 1125// 93//
f 93// 1125// 77//
f 1125// 1118// 77//
f 77// 1118// 78//
f 1126// 1127// 1125//
f 1124// 1123// 1122//
f 1127// 1128// 1125//
f 1125// 1128// 1129//
f 1125// 1129// 1118//
f 1118// 1129// 1130//
f 1118// 1130// 1131//
f 1125// 1124// 1126//
f 1126// 1124// 1122//
f 1126// 1122// 1132//
f 1132// 1122// 1121//
f 1131// 1133// 1118//
f 1118// 1133// 1132//
f 1118// 1132// 1119//
f 1119// 1132// 1121//
f 1119// 1121// 1120//
f 1126// 1132// 1134//
f 1134// 1132// 1135//
f 1127// 1126// 1136//
f 1136// 1126// 1134//
f 1127// 1136// 1137//
f 1127// 1137// 1128//
f 1128// 1137// 1138//
f 1128// 1138// 1129//
f 1130// 1129// 1139//
f 1139// 1129// 1138//
f 1130// 1139// 1140//
f 1130// 1140// 1131//
f 1131// 1140// 1141//
f 1131// 1141// 1133//
f 1132// 1133// 1135//
f 1135// 1133// 1141//
f 1142// 1143// 109//
f 109// 1143// 71//
f 1143// 1144// 71//
f 71// 1144// 89//
f 1144// 1145// 89//
f 89// 1145// 90//
f 1146// 100// 99//
f 1146// 99// 1147//
f 1147// 99// 84//
f 1147// 84// 1148//
f 1148// 84// 83//
f 1148// 83// 1149//
f 1149// 83// 82//
f 1149// 82// 1150//
f 1150// 82// 98//
f 1150// 98// 1151//
f 1151// 98// 97//
f 1151// 97// 1152//
f 1152// 97// 96//
f 1152// 96// 1153//
f 1153// 96// 90//
f 1153// 90// 1145//
f 1142// 109// 108//
f 1142// 108// 1154//
f 1154// 108// 95//
f 1154// 95// 1155//
f 1155// 95// 94//
f 1155// 94// 1156//
f 1156// 94// 92//
f 1156// 92// 1157//
f 1157// 92// 91//
f 1157// 91// 1158//
f 1158// 91// 101//
f 1158// 101// 1159//
f 1159// 101// 100//
f 1159// 100// 1146//
f 1159// 1146// 1160//
f 1160// 1146// 1147//
f 1160// 1147// 1161//
f 1161// 1147// 1148//
f 1161// 1148// 1162//
f 1162// 1148// 1149//
f 1162// 1149// 1163//
f 1163// 1149// 1150//
f 1163// 1150// 1164//
f 1164// 1150// 1151//
f 1164// 1151// 1165//
f 1165// 1151// 1152//
f 1165// 1152// 1166//
f 1166// 1152// 1153//
f 1166// 1153// 1167//
f 1167// 1153// 1145//
f 1167// 1145// 1168//
f 1168// 1145// 1144//
f 1168// 1144// 1169//
f 1169// 1144// 1143//
f 1169// 1143// 1170//
f 1170// 1143// 1142//
f 1170// 1142// 1171//
f 1171// 1142// 1154//
f 1171// 1154// 1172//
f 1172// 1154// 1155//
f 1172// 1155// 1173//
f 1173// 1155// 1156//
f 1173// 1156// 1174//
f 1174// 1156// 1157//
f 1174// 1157// 1175//
f 1175// 1157// 1158//
f 1175// 1158// 1176//
f 1176// 1158// 1159//
f 1176// 1159// 1160//
f 1167// 1168// 1177//
f 1177// 1168// 1178//
f 1167// 1177// 1179//
f 1167// 1179// 1166//
f 1166// 1179// 1180//
f 1166// 1180// 1165//
f 1165// 1180// 1181//
f 1165// 1181// 1164//
f 1164// 1181// 1182//
f 1164// 1182// 1163//
f 1163// 1182// 1183//
f 1163// 1183// 1162//
f 1162// 1183// 1184//
f 1162// 1184// 1161//
f 1161// 1184// 1185//
f 1161// 1185// 1160//
f 1160// 1185// 1186//
f 1160// 1186// 1176//
f 1176// 1186// 1187//
f 1176// 1187// 1175//
f 1175// 1187// 1188//
f 1175// 1188// 1174//
f 1174// 1188// 1189//
f 1174// 1189// 1173//
f 1173// 1189// 1190//
f 1173// 1190// 1172//
f 1172// 1190// 1191//
f 1172// 1191// 1171//
f 1171// 1191// 1192//
f 1171// 1192// 1170//
f 1169// 1170// 1193//
f 1193// 1170// 1192//
f 1168// 1169// 1178//
f 1178// 1169// 1193//
f 1194// 1195// 116//
f 116// 1195// 67//
f 1195// 1196// 67//
f 67// 1196// 68//
f 1196// 1197// 68//
f 68// 1197// 69//
f 1197// 1198// 69//
f 69// 1198// 70//
f 1198// 1199// 70//
f 70// 1199// 72//
f 1199// 1200// 72//
f 72// 1200// 88//
f 1200// 1201// 88//
f 88// 1201// 87//
f 1201// 1202// 87//
f 87// 1202// 86//
f 1202// 1203// 86//
f 86// 1203// 85//
f 1203// 1204// 85//
f 85// 1204// 114//
f 1204// 1205// 114//
f 114// 1205// 115//
f 1205// 1194// 115//
f 115// 1194// 116//
f 1196// 1195// 1194//
f 1194// 1205// 1196//
f 1196// 1205// 1204//
f 1196// 1204// 1197//
f 1199// 1198// 1200//
f 1200// 1198// 1197//
f 1200// 1197// 1201//
f 1201// 1197// 1204//
f 1201// 1204// 1202//
f 1202// 1204// 1203//
f 1206// 1207// 16//
f 16// 1207// 17//
f 17// 1207// 1208//
f 1209// 13// 2//
f 1209// 2// 1210//
f 1210// 2// 1//
f 1210// 1// 1208//
f 1208// 1// 18//
f 1208// 18// 17//
f 1211// 62// 61//
f 1211// 61// 1212//
f 1212// 61// 60//
f 1212// 60// 1213//
f 1213// 60// 59//
f 1213// 59// 1214//
f 1214// 59// 58//
f 1214// 58// 1215//
f 1215// 58// 53//
f 1215// 53// 1216//
f 1216// 53// 52//
f 1216// 52// 1217//
f 1217// 52// 1209//
f 1209// 52// 12//
f 1209// 12// 13//
f 1218// 65// 57//
f 1218// 57// 1219//
f 1219// 57// 56//
f 1219// 56// 1220//
f 1220// 56// 55//
f 1220// 55// 1221//
f 1221// 55// 54//
f 1221// 54// 1222//
f 1222// 54// 64//
f 1222// 64// 1223//
f 1223// 64// 63//
f 1223// 63// 1224//
f 1224// 63// 62//
f 1224// 62// 1211//
f 1225// 50// 66//
f 1225// 66// 1226//
f 1226// 66// 65//
f 1226// 65// 1218//
f 1225// 1227// 50//
f 50// 1227// 49//
f 1228// 31// 48//
f 1228// 48// 1229//
f 1229// 48// 49//
f 1229// 49// 1227//
f 1230// 39// 38//
f 1230// 38// 1231//
f 1231// 38// 37//
f 1231// 37// 1232//
f 1232// 37// 36//
f 1232// 36// 1233//
f 1233// 36// 35//
f 1233// 35// 1234//
f 1234// 35// 34//
f 1234// 34// 1235//
f 1235// 34// 32//
f 1235// 32// 1236//
f 1236// 32// 31//
f 1236// 31// 1228//
f 1237// 42// 44//
f 1237// 44// 1238//
f 1238// 44// 45//
f 1238// 45// 1239//
f 1239// 45// 43//
f 1239// 43// 1240//
f 1240// 43// 46//
f 1240// 46// 1241//
f 1241// 46// 41//
f 1241// 41// 1242//
f 1242// 41// 40//
f 1242// 40// 1243//
f 1243// 40// 39//
f 1243// 39// 1230//
f 1206// 16// 33//
f 1206// 33// 1244//
f 1244// 33// 47//
f 1244// 47// 1245//
f 1245// 47// 42//
f 1245// 42// 1237//
f 1238// 1209// 1237//
f 1237// 1209// 1210//
f 1237// 1210// 1245//
f 1245// 1210// 1208//
f 1245// 1208// 1244//
f 1244// 1208// 1207//
f 1244// 1207// 1206//
f 1227// 1225// 1229//
f 1229// 1225// 1226//
f 1229// 1226// 1228//
f 1228// 1226// 1218//
f 1228// 1218// 1236//
f 1236// 1218// 1219//
f 1236// 1219// 1235//
f 1235// 1219// 1220//
f 1235// 1220// 1234//
f 1234// 1220// 1221//
f 1234// 1221// 1233//
f 1233// 1221// 1222//
f 1233// 1222// 1232//
f 1232// 1222// 1223//
f 1232// 1223// 1231//
f 1231// 1223// 1224//
f 1231// 1224// 1230//
f 1230// 1224// 1211//
f 1230// 1211// 1243//
f 1243// 1211// 1212//
f 1243// 1212// 1242//
f 1242// 1212// 1213//
f 1242// 1213// 1241//
f 1241// 1213// 1214//
f 1241// 1214// 1240//
f 1240// 1214// 1215//
f 1240// 1215// 1239//
f 1239// 1215// 1216//
f 1239// 1216// 1238//
f 1238// 1216// 1217//
f 1238// 1217// 1209//
f 1246// 1247// 26//
f 26// 1247// 51//
f 1247// 1248// 51//
f 51// 1248// 29//
f 1248// 1249// 29//
f 29// 1249// 28//
f 1249// 1250// 28//
f 28// 1250// 27//
f 1250// 1251// 27//
f 27// 1251// 25//
f 1251// 1246// 25//
f 25// 1246// 26//
f 1250// 1249// 1251//
f 1251// 1249// 1248//
f 1251// 1248// 1246//
f 1246// 1248// 1247//
usemtl 1
f 1134// 1135// 1136//
f 1136// 1135// 1141//
f 1136// 1141// 1137//
f 1137// 1141// 1140//
f 1137// 1140// 1138//
f 1138// 1140// 1139//
f 1177// 1178// 1193//
f 1186// 1185// 1177//
f 1186// 1177// 1187//
f 1185// 1184// 1177//
f 1177// 1184// 1183//
f 1177// 1183// 1179//
f 1193// 1192// 1177//
f 1177// 1192// 1191//
f 1177// 1191// 1190//
f 1182// 1181// 1183//
f 1183// 1181// 1180//
f 1183// 1180// 1179//
f 1190// 1189// 1177//
f 1177// 1189// 1188//
f 1177// 1188// 1187//
